<?xml version="1.0" encoding="UTF-8" standalone="no"?>
<svg
   xmlns:dc="http://purl.org/dc/elements/1.1/"
   xmlns:cc="http://creativecommons.org/ns#"
   xmlns:rdf="http://www.w3.org/1999/02/22-rdf-syntax-ns#"
   xmlns:svg="http://www.w3.org/2000/svg"
   xmlns="http://www.w3.org/2000/svg"
   id="svg2064"
   height="477.89999"
   width="477.89999"
   version="1.0">
  <metadata
     id="metadata2070">
    <rdf:RDF>
      <cc:Work
         rdf:about="">
        <dc:format>image/svg+xml</dc:format>
        <dc:type
           rdf:resource="http://purl.org/dc/dcmitype/StillImage" />
        <dc:title></dc:title>
      </cc:Work>
    </rdf:RDF>
  </metadata>
  <defs
     id="defs2068" />
  <path
     id="path2062"
     d="M 462.95,477.85917 V 398.95 h -64 v 64 h -64 -64 v -64 h 64 v -64 h -64 v -64 h 64 64 v 64 h 64 v -64 -64 h -64 v -64 h 64 v -64 -64 h -64 v 64 h -64 v -64 h -64 v 64 64 h 64 v 64 h -64 -64 -64 v -64 h 64 v -64 -64 h -64 v 64 h -64 v -64 h -64 v 64 64 h 64 v 64 h -64 v 64 64 h 64 v -64 h 64 64 v 64 h -64 v 64 h 64 v 64 h -64 -64 v -64 h -64 v 78.91525"
     style="fill:none;stroke:#ffffff;stroke-width:29.89999962;stroke-miterlimit:4;stroke-dasharray:none;stroke-opacity:1" />
</svg>
