<?xml version="1.0" encoding="UTF-8" standalone="no"?>
<!-- Created with Inkscape (http://www.inkscape.org/) -->

<svg
   width="145.45786mm"
   height="146.38797mm"
   viewBox="0 0 145.45786 146.38797"
   version="1.1"
   id="svg5"
   xml:space="preserve"
   xmlns="http://www.w3.org/2000/svg"
   xmlns:svg="http://www.w3.org/2000/svg"><defs
     id="defs2" /><g
     id="layer1"
     transform="translate(-35.238974,-60.459226)"><path
       style="fill:#9e0101;fill-opacity:1;stroke-width:0.156687"
       d="m 118.85831,206.54516 c -7.59341,-3.00818 -15.44286,-0.90416 -23.673178,-0.69001 -8.673969,-0.62812 -17.255213,-0.56392 -25.950592,-0.12614 -8.627807,-0.35647 -17.46403,0.47465 -25.940715,-0.83712 -8.2738,-0.0811 -8.303654,-10.02237 -7.943627,-16.18571 0.590885,-5.90383 -0.703032,-12.09649 0.517134,-17.51241 -0.490089,-6.76301 0.171861,-13.15137 -0.01957,-19.58037 1.732568,-6.65547 -0.325351,-13.35265 0.318262,-19.87305 1.656294,-6.94202 -0.760788,-14.16031 0.567729,-21.69329 0.367517,-7.81239 -0.425288,-15.582829 0.162101,-23.411382 1.289889,-7.839697 -3.876343,-21.30029 5.25655,-24.947808 8.184678,-1.622617 16.507769,0.120592 24.695025,-0.396032 9.613325,-0.355112 19.447546,-0.760869 28.956102,0.702613 8.192839,-2.052979 16.669769,0.45784 24.934629,-1.091458 7.53362,0.698637 15.45654,0.382915 23.16857,0.115314 8.52629,-0.493864 17.08289,0.643702 25.54849,0.06432 7.73525,-2.921147 12.39346,4.993794 10.68774,11.895451 0.0497,8.494686 0.38802,16.882282 0.55387,25.372942 -1.51365,6.7901 0.55378,14.45908 -1.1142,21.93737 0.76548,9.05712 0.47721,18.8987 0.86722,27.29974 -1.0457,6.81154 0.74029,14.1543 -0.63096,21.15405 0.26601,8.46931 0.17354,17.85035 -0.50703,26.70156 -1.44364,4.7961 -3.76799,9.11076 -8.15155,8.89996 -5.03649,3.63444 -12.40164,0.764 -18.30352,1.15566 -11.63584,3.88207 -23.04787,-2.19024 -33.99844,1.04584 z m -10.9197,-4.98056 c 3.34803,-6.3132 4.02679,-13.39376 5.20162,-20.20738 -0.19279,-8.63437 2.16341,-16.59774 2.27275,-25.28462 1.73169,-7.04131 0.45523,-14.22268 2.03285,-21.31947 -0.7709,-8.52565 10.39341,-3.04165 15.59209,-3.44044 5.95481,-2.03395 3.10779,8.77566 8.72217,4.8352 3.37252,-6.49621 1.68585,-14.79541 1.33974,-21.79585 -0.7605,-6.95177 -6.19518,-9.14243 -11.22136,-7.62465 3.48913,-5.06322 9.57597,-0.13513 14.02172,-4.0502 0.43139,-1.66648 4.80862,-12.350397 -2.1258,-14.274132 -1.75278,6.97548 -6.11002,14.008632 -13.66391,9.226878 -5.23743,0.06481 -12.60972,4.886764 -13.87377,-3.59602 -3.68669,-9.117304 -7.39053,7.955154 -3.27287,9.262994 3.77856,0.43093 16.62423,-1.79926 12.02083,4.09897 -5.28868,-3.97762 -11.0387,2.32288 -12.55973,7.54269 0.14155,7.6183 -1.5629,14.94547 -1.96663,22.57531 -0.37327,5.80615 -0.26522,11.6004 -0.85542,17.46876 -0.34877,7.46494 -1.9456,14.80056 -1.66365,22.33067 -1.82815,7.7023 -1.88101,15.91368 -2.57628,24.08929 0.0755,1.35709 2.12865,1.18169 2.57565,0.162 z m 18.62446,-75.22387 c -3.33213,-0.81448 -13.09046,1.27023 -8.95225,-4.64585 6.60334,2.75693 14.50904,0.44683 20.52943,3.43605 -2.22941,2.69565 -8.36661,0.52535 -11.57718,1.2098 z m -9.02085,-7.99186 c 0.22194,-6.2137 10.80664,-7.11002 16.10395,-5.41861 5.59824,-1.49281 6.11305,7.31101 0.24573,4.79968 -5.48652,-0.61028 -10.90735,-0.023 -16.34968,0.61893 z m 40.67285,82.81769 c 4.3304,-3.38272 2.75566,-8.81806 2.00265,-11.79256 0.62081,-3.71217 2.83841,-4.9641 1.72417,-8.51237 6.31961,-3.45852 -5.81568,-12.69466 -6.27865,-7.90016 3.40582,2.55015 2.29266,11.37714 -1.91353,4.82611 -6.01587,-7.68798 -0.83201,9.81753 -5.61496,2.28382 -7.77331,-6.61687 -2.65342,11.19689 3.36589,9.95839 4.90088,0.87668 1.534,12.49742 6.71443,11.13677 z m -56.82906,-0.96941 c -3.085805,-7.19733 -11.729654,-8.24792 -18.336886,-9.90511 -6.390616,0.46853 -13.082134,-1.101 -19.223467,1.49788 -9.018245,1.26509 -2.577567,-10.91638 -4.168391,-15.80324 0.06138,-4.15871 -3.954371,-14.40306 -5.217114,-5.12496 -2.053637,7.45914 -3.303712,17.62861 -1.293161,23.92375 5.886165,4.50026 13.212652,0.92723 19.814857,1.41554 6.326002,1.87595 13.790279,-1.51516 19.930065,2.76925 2.630709,1.2863 5.62753,1.37496 8.494097,1.22689 z m 17.47674,-0.4115 c 7.84308,-2.02081 6.46816,-14.23531 13.04952,-15.28913 4.08936,8.88139 11.77506,-7.29125 6.57669,-7.40363 -2.5824,4.14475 -12.02417,4.64317 -7.07499,-1.64234 1.16969,-9.3337 -10.9086,7.27249 -6.94403,-1.73669 3.84612,-3.19387 2.35796,-10.17634 -2.36252,-4.73835 -4.80961,3.90376 -6.49929,10.35039 -0.0731,13.2944 0.0443,6.44038 -5.00909,11.60818 -4.82437,18.01657 0.47796,0.76011 1.41395,0.0782 1.65275,-0.50083 z m -77.381517,-0.3248 c 7.120584,-5.1145 3.460804,-14.68631 5.641858,-21.87054 0.26143,-6.9977 1.588666,-14.00626 1.368715,-20.79617 2.918074,-5.38432 -7.914238,-9.34363 -0.24288,-12.13063 6.307478,-4.43423 13.776861,-2.69961 20.945971,-2.96904 7.099018,1.43561 14.404157,-0.007 21.603854,0.78757 4.793741,3.27164 15.530979,-6.41297 6.839497,-6.76399 -6.715826,1.37122 -14.077375,-0.31802 -20.9728,-0.12357 -7.77597,-0.39827 -15.375565,0.66067 -23.089694,1.56656 -6.882056,0.0737 -16.57137,3.02555 -13.949188,11.78743 0.546773,9.23693 -0.481924,18.65032 1.438732,27.80389 0.473175,7.60861 -0.254808,15.26174 -1.686682,22.73855 0.382736,0.76672 1.601502,0.39197 2.102617,-0.0301 z m 131.233827,-1.45863 c 2.66705,-8.31261 0.48945,-17.08096 1.2002,-25.60758 -0.0901,-5.78969 0.50816,-11.94119 0.64387,-17.92212 2.52797,-5.57139 -4.28588,-9.49059 -5.73153,-15.41424 -4.55896,-4.09128 -11.77563,-0.83266 -15.6689,-4.535 -1.68968,-5.24046 -0.39943,-12.56297 6.69522,-9.04272 4.91345,2.33254 10.58903,9.40707 15.81975,7.38435 0.77123,-8.37355 -11.15407,-10.96654 -17.39,-13.3585 -3.87905,1.13865 -6.60969,0.96082 -5.21719,-4.01486 3.56185,-2.23382 10.89522,0.10005 15.38967,1.67598 6.17529,5.56487 8.23405,-4.66992 1.4885,-5.87207 -5.36011,-4.23024 -13.62077,2.12469 -17.48003,-1.47179 3.80829,-6.16724 14.20349,-0.0655 18.42517,-6.79561 2.60009,-4.941944 3.36387,-16.692692 -5.44735,-16.209165 -3.42519,0.941993 -11.74625,3.619477 -7.86031,-3.27131 5.47149,-1.128311 18.91445,-2.835082 10.91788,-10.765071 -4.1292,-0.323067 1.88926,7.327278 -4.03151,5.565857 -9.76009,2.175436 -4.40032,-14.040197 -13.14332,-11.947179 2.42712,7.485066 -1.87839,15.582232 -0.43069,23.267438 3.36656,5.875331 16.74712,-1.864674 15.89425,7.525412 -3.67703,5.434598 -14.94889,1.065439 -17.59564,7.803308 -1.78691,8.14636 -1.80129,16.49039 -2.04952,24.821 -1.74155,7.4529 2.32959,11.24938 9.59132,11.0315 7.65771,0.27942 15.36667,7.3114 12.53296,15.38284 0.27441,7.44302 -0.58033,14.30255 -0.51738,21.72851 0.89209,6.49476 -0.38088,17.52951 4.09678,20.82757 z m -97.83757,-9.68134 c 2.479899,-7.88481 3.10047,-16.68478 1.705118,-24.86438 -2.397435,-4.63369 0.436583,-3.03346 2.936864,-2.63356 4.499817,-6.97026 16.256475,3.6064 19.793606,-4.36486 -4.335475,-5.56681 -12.781538,-2.77259 -19.426845,-3.50176 -8.536151,0.7606 -16.577437,-1.2189 -24.072422,0.87354 -7.916939,1.06181 3.913893,4.99358 7.30249,3.98597 5.80488,-1.26659 10.091501,1.76875 7.499005,7.97118 -0.339884,6.75198 -1.320838,13.77073 -0.345951,20.39208 0.507413,2.03609 2.641488,3.6422 4.608135,2.14179 z m 18.050403,-2.59523 c 2.209811,-5.16663 5.18889,-16.29923 -2.675645,-17.8957 -3.981566,-5.02631 -14.903275,3.9955 -5.552479,5.1183 7.596736,1.50325 1.009737,13.8149 8.228124,12.7774 z m 60.708477,-16.75751 c 2.69887,-4.03094 1.38654,-11.65914 7.43888,-10.39034 4.24699,-7.6802 -9.61244,-4.638 -6.71596,-11.81387 -1.07383,-6.65798 -5.8052,-2.05717 -4.03687,2.58203 -3.44429,3.32277 -14.89985,2.71225 -12.71218,-5.39599 0.60352,-3.82403 -4.06711,-9.75356 -4.16978,-2.61472 0.84176,5.48802 -0.032,13.14691 -7.58647,10.00098 -3.94872,-0.88065 -9.73644,3.27003 -3.47064,4.93538 6.26579,1.66536 13.18574,-1.83275 10.75006,6.69494 -2.47796,8.84413 10.30803,4.60461 15.3416,5.91138 1.72024,0.0412 3.44075,0.0709 5.16136,0.0902 z m -10.25362,-4.59586 c -9.4747,0.73009 -0.47807,-10.84442 5.32355,-5.92699 3.0873,3.71196 -0.99652,7.78255 -5.32355,5.92699 z M 65.899417,149.02089 c 7.003532,-0.3914 14.011644,0.20821 21.016875,-0.28266 8.301842,-3.05425 -4.513081,-6.6743 -8.219138,-4.86133 -7.840869,-0.0601 -15.241521,0.27378 -22.505815,3.09294 1.320271,2.54416 6.964639,2.12801 9.708078,2.05105 z M 46.922218,131.42324 c 7.552356,-0.66454 10.173409,-7.7048 14.602459,-12.35925 4.992405,-3.22018 10.85525,4.37376 4.606125,7.14841 -0.961452,8.41276 9.009018,-0.23188 9.55583,-3.93993 5.094566,-7.21421 -7.228985,-11.61375 -12.626545,-8.71393 -6.376606,-0.31372 -1.832435,-7.22604 2.891865,-4.35523 5.773344,0.86194 11.623853,0.15278 17.412924,0.43504 6.301774,-1.5076 16.945604,5.093 20.255654,-2.68322 -4.54926,-4.94526 -15.045072,1.23052 -17.485076,-3.10911 4.716572,-2.27954 13.616337,1.54661 15.919266,-5.121073 0.48806,-6.988805 -7.789025,-9.776366 -13.395365,-9.170997 -5.565068,0.458381 -12.269862,-0.466709 -18.393597,-0.119844 -6.820518,-1.112115 -14.005512,-0.25976 -20.607035,1.690917 -8.124989,-3.767625 -10.485652,11.254427 -1.422558,10.019757 2.989682,0.0935 14.580812,0.63545 6.881427,3.20519 -3.46627,-0.85283 -16.992744,2.3364 -7.99613,4.39851 2.860465,-0.32596 16.186317,-0.80231 8.149626,2.65467 -3.95042,0.64056 -14.303242,1.05548 -13.378403,5.13616 6.590418,-0.23384 15.900856,2.60539 7.176518,9.28575 -0.40131,1.29064 -7.378438,6.43136 -2.146985,5.59815 z M 74.943447,104.6541 c -3.012255,-0.27632 -16.080721,0.88722 -9.461055,-3.27313 2.882387,1.78344 11.957448,-1.56546 10.442075,3.07938 z M 47.717938,98.02247 C 49.56184,87.986665 60.846394,95.881289 67.3619,94.074409 c 7.779893,-0.268268 15.16319,0.423619 22.854062,0.51546 4.631591,-2.372585 9.587495,4.756734 2.149702,3.161882 -10.076533,0.394836 -20.089173,-0.965213 -30.150747,-0.839036 -4.768028,1.254837 -9.685854,0.421043 -14.496979,1.109755 z m 51.354042,32.96377 c 6.28104,-0.7555 7.65848,-12.2798 2.78667,-14.97474 -7.119675,-1.4932 -19.661564,-4.11028 -23.2787,3.86631 1.604549,3.75911 0.04969,11.94644 5.912665,9.18329 4.761885,1.26188 9.962045,1.55986 14.579365,1.92514 z m -14.665839,-4.26617 c -2.569576,-9.44944 16.365739,-7.2457 13.543343,-1.87702 -4.826431,-0.64641 -9.038178,1.08336 -13.543343,1.87702 z M 124.97172,95.068161 c 3.38739,-4.345802 2.13988,-14.286359 -4.79111,-10.255845 -1.2153,1.92628 1.3432,13.343001 4.79111,10.255845 z m 9.21612,0.319373 c 7.20183,-2.975461 0.37034,-13.723665 -3.44818,-8.058004 1.51007,2.167141 -0.39968,8.97793 3.44818,8.058004 z M 85.844687,86.574476 c 6.034006,-2.887345 13.7119,2.014397 17.035993,-2.602168 -2.35877,-6.208821 -11.84939,-3.285631 -17.32492,-4.308845 -2.650252,0.08881 -14.287469,-0.439069 -7.552038,-2.749853 7.189786,-1.211491 16.670452,2.397646 22.113358,-3.74126 1.82554,-4.084062 -2.3124,-11.230248 -5.591802,-4.309093 -5.026193,4.886026 -13.779268,2.813234 -19.388161,1.926946 0.0749,-4.372064 -7.146834,-9.336702 -5.353042,-1.749132 -4.522612,4.716698 -13.685559,0.310232 -19.928438,2.88072 -2.737491,-2.6558 -6.235114,-8.830591 -6.865968,-1.4008 -2.507758,9.686798 9.556662,2.459793 14.437401,4.515512 3.599786,1.754389 14.241687,-2.046033 12.103589,4.310823 -6.849145,0.945831 -13.900846,0.05149 -20.848919,0.292122 -4.658095,0.905468 -7.281398,5.027473 -1.210412,5.357946 6.671721,0.511271 13.442941,-0.778338 19.963705,0.264064 6.275065,0.264286 12.599453,-0.780976 18.409654,1.313018 z m 58.178243,-5.538314 c 4.79888,-5.191156 -4.91611,-5.581843 -8.3819,-4.897658 -6.97024,-1.114102 -14.8234,0.537857 -22.32844,0.543433 -7.58359,3.554653 6.61319,3.374726 9.58188,3.408939 7.02869,0.132189 14.15771,0.600781 21.12846,0.945286 z m -5.70945,-10.159039 c 1.56345,-7.078714 -10.69391,-3.106548 -15.05588,-4.722849 -3.96626,-0.799558 -10.23889,2.088394 -3.23524,4.055958 6.05323,-0.126647 12.41778,1.20596 18.29112,0.666891 z"
       id="path225" /></g></svg>
