<?xml version="1.0" standalone="no"?>
<!DOCTYPE svg PUBLIC "-//W3C//DTD SVG 1.1//EN" "http://www.w3.org/Graphics/SVG/1.1/DTD/svg11.dtd" >
<svg xmlns="http://www.w3.org/2000/svg" xmlns:xlink="http://www.w3.org/1999/xlink" version="1.1">
<metadata>
Created by FontForge 20160407 at Sun May 29 01:51:06 2016
 By Jimmy Wärting
Digitized data copyright (c) 2012-2015, The Mozilla Foundation and Telefonica S.A.
</metadata>
<defs>
<font id="FiraSans-SemiBoldItalic" horiz-adv-x="560" >
  <font-face 
    font-family="Fira Sans SemiBold"
    font-weight="600"
    font-style="italic"
    font-stretch="normal"
    units-per-em="1000"
    panose-1="2 11 7 3 5 0 0 2 0 4"
    ascent="800"
    descent="-200"
    x-height="530"
    cap-height="692"
    bbox="-759 -354 1360 1174"
    underline-thickness="50"
    underline-position="-100"
    slope="-8"
    unicode-range="U+000D-1F310"
  />
<missing-glyph horiz-adv-x="657" 
d="M448 -350h-414l198 1400h414zM279 998l-183 -1296h306l183 1296h-306zM416.5 425.5q23.5 -25.5 23.5 -66.5q0 -9 -2 -27q-7 -52 -32 -79.5t-75 -34.5l-8 -47q-1 -10 -9 -16t-16 -6q-11 0 -18.5 7.5t-5.5 18.5l10 82q52 3 74.5 21t27.5 60q2 14 2 21q0 44 -50 44
q-28 0 -53 -13l-12 -1q-11 0 -17.5 6.5t-6.5 16.5q0 19 29 29t64 10q51 0 74.5 -25.5zM311 110.5q9 -9.5 9 -23.5q0 -17 -10.5 -28t-26.5 -11q-14 0 -22.5 10t-8.5 25q0 16 10.5 26.5t25.5 10.5q14 0 23 -9.5z" />
    <glyph glyph-name="fi" unicode="fi" horiz-adv-x="585" 
d="M479 0h-140l60 430h-151l-53 -379q-11 -80 -42 -131.5t-77 -82.5t-116 -57l-36 103q61 24 91 58t40 105l53 384h-82l14 100h83l7 55q11 77 69 124.5t153 47.5q49 0 89.5 -11t79.5 -33l-50 -91q-56 29 -108 29q-45 0 -67 -18t-27 -56l-7 -47h291z" />
    <glyph glyph-name="fl" unicode="fl" horiz-adv-x="617" 
d="M564 104l19 -101q-44 -19 -96 -19q-56 0 -85.5 29t-29.5 84q0 20 2 31l72 511q-45 15 -90 15q-41 0 -61.5 -19t-25.5 -58l-7 -47h106l-30 -100h-90l-53 -379q-11 -80 -42 -131.5t-77 -82.5t-116 -57l-36 103q61 24 91 58t40 105l53 384h-82l14 100h83l7 55
q11 77 66.5 124.5t147.5 47.5q70 0 126 -21l131 14l-87 -615q-1 -5 -1 -13q0 -25 23 -25q12 0 28 7z" />
    <glyph glyph-name=".notdef" horiz-adv-x="657" 
d="M448 -350h-414l198 1400h414zM279 998l-183 -1296h306l183 1296h-306zM416.5 425.5q23.5 -25.5 23.5 -66.5q0 -9 -2 -27q-7 -52 -32 -79.5t-75 -34.5l-8 -47q-1 -10 -9 -16t-16 -6q-11 0 -18.5 7.5t-5.5 18.5l10 82q52 3 74.5 21t27.5 60q2 14 2 21q0 44 -50 44
q-28 0 -53 -13l-12 -1q-11 0 -17.5 6.5t-6.5 16.5q0 19 29 29t64 10q51 0 74.5 -25.5zM311 110.5q9 -9.5 9 -23.5q0 -17 -10.5 -28t-26.5 -11q-14 0 -22.5 10t-8.5 25q0 16 10.5 26.5t25.5 10.5q14 0 23 -9.5z" />
    <glyph glyph-name="null" horiz-adv-x="0" 
 />
    <glyph glyph-name="nonmarkingreturn" unicode="&#xd;" horiz-adv-x="235" 
 />
    <glyph glyph-name="space" unicode=" " horiz-adv-x="235" 
 />
    <glyph glyph-name="A" unicode="A" horiz-adv-x="577" 
d="M380 155h-216l-59 -155h-151l306 692h177l112 -692h-152zM368 264l-36 326l-126 -326h162z" />
    <glyph glyph-name="Aacute" unicode="&#xc1;" horiz-adv-x="577" 
d="M380 155h-216l-59 -155h-151l306 692h177l112 -692h-152zM368 264l-36 326l-126 -326h162zM506 837l-236 -88l-34 72l220 125z" />
    <glyph glyph-name="Abreve" unicode="&#x102;" horiz-adv-x="577" 
d="M380 155h-216l-59 -155h-151l306 692h177l112 -692h-152zM368 264l-36 326l-126 -326h162zM278.5 773q-33.5 21 -49.5 56.5t-14 77.5l78 11q12 -65 73 -65q34 0 58.5 19t38.5 49l80 -18q-14 -64 -64 -107.5t-119 -43.5q-48 0 -81.5 21z" />
    <glyph glyph-name="uni1EAE" unicode="&#x1eae;" horiz-adv-x="577" 
d="M371 890l-50 49l148 164l70 -76zM278.5 758q-33.5 21 -49.5 56.5t-14 77.5l78 11q12 -65 73 -65q34 0 58.5 19t38.5 49l80 -18q-14 -64 -64 -107.5t-119 -43.5q-48 0 -81.5 21zM380 155h-216l-59 -155h-151l306 692h177l112 -692h-152zM368 264l-36 326l-126 -326h162z
" />
    <glyph glyph-name="uni1EB6" unicode="&#x1eb6;" horiz-adv-x="577" 
d="M380 155h-216l-59 -155h-151l306 692h177l112 -692h-152zM368 264l-36 326l-126 -326h162zM279.5 773q-33.5 21 -49.5 56.5t-14 77.5l79 11q5 -30 23 -47.5t50 -17.5q33 0 58 19t39 49l80 -18q-15 -65 -64.5 -108t-119.5 -43q-48 0 -81.5 21zM169 -209.5
q-21 20.5 -21 53.5q0 39 27 65.5t67 26.5q35 0 56 -21t21 -53q0 -39 -27.5 -65.5t-66.5 -26.5q-35 0 -56 20.5z" />
    <glyph glyph-name="uni1EB0" unicode="&#x1eb0;" horiz-adv-x="577" 
d="M370 890l-133 137l85 74l105 -164zM278.5 758q-33.5 21 -49.5 56.5t-14 77.5l78 11q12 -65 73 -65q34 0 58.5 19t38.5 49l80 -18q-14 -64 -64 -107.5t-119 -43.5q-48 0 -81.5 21zM380 155h-216l-59 -155h-151l306 692h177l112 -692h-152zM368 264l-36 326l-126 -326h162z
" />
    <glyph glyph-name="uni1EB2" unicode="&#x1eb2;" horiz-adv-x="577" 
d="M322 1036l-19 64q45 25 106 25q52 0 80.5 -24t28.5 -65q0 -42 -25 -67.5t-70 -34.5l-7 -44h-86l9 89q38 2 58 12.5t20 32.5q0 26 -35 26q-29 0 -60 -14zM278.5 758q-33.5 21 -49.5 56.5t-14 77.5l78 11q12 -65 73 -65q34 0 58.5 19t38.5 49l80 -18q-14 -64 -64 -107.5
t-119 -43.5q-48 0 -81.5 21zM380 155h-216l-59 -155h-151l306 692h177l112 -692h-152zM368 264l-36 326l-126 -326h162z" />
    <glyph glyph-name="uni1EB4" unicode="&#x1eb4;" horiz-adv-x="577" 
d="M307.5 966.5q-13.5 -10.5 -29.5 -33.5l-67 38q26 46 60.5 75t73.5 29q21 0 36.5 -7t33.5 -20q11 -9 19 -13t17 -4q17 0 30.5 10.5t29.5 32.5l68 -37q-26 -48 -60.5 -75.5t-71.5 -27.5q-20 0 -35 6.5t-35 19.5q-12 9 -20.5 13t-17.5 4q-18 0 -31.5 -10.5zM425.5 857
q24.5 19 38.5 49l80 -18q-14 -64 -64 -107.5t-119 -43.5q-48 0 -81.5 21t-49.5 56.5t-14 77.5l78 11q12 -65 73 -65q34 0 58.5 19zM437 692l112 -692h-152l-17 155h-216l-59 -155h-151l306 692h177zM368 264l-36 326l-126 -326h162z" />
    <glyph glyph-name="uni01CD" unicode="&#x1cd;" horiz-adv-x="577" 
d="M380 155h-216l-59 -155h-151l306 692h177l112 -692h-152zM368 264l-36 326l-126 -326h162zM551 875l-154 -124h-87l-121 124l58 60l117 -83l141 83z" />
    <glyph glyph-name="Acircumflex" unicode="&#xc2;" horiz-adv-x="577" 
d="M380 155h-216l-59 -155h-151l306 692h177l112 -692h-152zM368 264l-36 326l-126 -326h162zM368 840l-141 -84l-47 60l155 124h86l121 -124l-56 -60z" />
    <glyph glyph-name="uni1EA4" unicode="&#x1ea4;" horiz-adv-x="577" 
d="M519 862l-50 49l148 164l70 -76zM222 720l-47 60l155 124h86l121 -124l-56 -60l-118 84zM437 692l112 -692h-152l-17 155h-216l-59 -155h-151l306 692h177zM368 264l-36 326l-126 -326h162z" />
    <glyph glyph-name="uni1EAC" unicode="&#x1eac;" horiz-adv-x="577" 
d="M380 155h-216l-59 -155h-151l306 692h177l112 -692h-152zM368 264l-36 326l-126 -326h162zM368 840l-141 -84l-47 60l155 124h86l121 -124l-56 -60zM169 -209.5q-21 20.5 -21 53.5q0 39 27 65.5t67 26.5q35 0 56 -21t21 -53q0 -39 -27.5 -65.5t-66.5 -26.5
q-35 0 -56 20.5z" />
    <glyph glyph-name="uni1EA6" unicode="&#x1ea6;" horiz-adv-x="577" 
d="M220 862l-133 137l85 74l105 -164zM175 780l155 124h86l121 -124l-56 -60l-118 84l-141 -84zM380 155h-216l-59 -155h-151l306 692h177l112 -692h-152zM368 264l-36 326l-126 -326h162z" />
    <glyph glyph-name="uni1EA8" unicode="&#x1ea8;" horiz-adv-x="577" 
d="M646.5 1057q28.5 -24 28.5 -65q0 -42 -25 -67.5t-70 -34.5l-7 -44h-86l9 89q38 2 58 12.5t20 32.5q0 26 -35 26q-29 0 -60 -14l-19 64q45 25 106 25q52 0 80.5 -24zM219 720l-47 60l155 124h86l121 -124l-56 -60l-118 84zM437 692l112 -692h-152l-17 155h-216l-59 -155
h-151l306 692h177zM368 264l-36 326l-126 -326h162z" />
    <glyph glyph-name="uni1EAA" unicode="&#x1eaa;" horiz-adv-x="577" 
d="M307.5 964.5q-13.5 -10.5 -29.5 -33.5l-67 38q26 46 60.5 75t73.5 29q21 0 36.5 -7t33.5 -20q11 -9 19 -13t17 -4q17 0 30.5 10.5t29.5 32.5l68 -37q-26 -48 -60.5 -75.5t-71.5 -27.5q-20 0 -35 6.5t-35 19.5q-12 9 -20.5 13t-17.5 4q-18 0 -31.5 -10.5zM223 720l-47 60
l155 124h86l121 -124l-56 -60l-118 84zM437 692l112 -692h-152l-17 155h-216l-59 -155h-151l306 692h177zM368 264l-36 326l-126 -326h162z" />
    <glyph glyph-name="uni0200" unicode="&#x200;" horiz-adv-x="577" 
d="M380 155h-216l-59 -155h-151l306 692h177l112 -692h-152zM368 264l-36 326l-126 -326h162zM340 824l-79 -35l-92 176l105 50zM498 826l-78 -32l-84 173l105 48z" />
    <glyph glyph-name="Adieresis" unicode="&#xc4;" horiz-adv-x="577" 
d="M380 155h-216l-59 -155h-151l306 692h177l112 -692h-152zM368 264l-36 326l-126 -326h162zM311.5 899.5q18.5 -18.5 18.5 -46.5q0 -34 -23.5 -58.5t-57.5 -24.5q-29 0 -48.5 19t-19.5 48q0 33 24 57t58 24q30 0 48.5 -18.5zM534.5 899.5q18.5 -18.5 18.5 -46.5
q0 -34 -23 -58.5t-58 -24.5q-29 0 -48 19t-19 48q0 33 23.5 57t57.5 24q30 0 48.5 -18.5z" />
    <glyph glyph-name="uni01DE" unicode="&#x1de;" horiz-adv-x="577" 
d="M523 931h-293l13 100h294zM194.5 768q-19.5 23 -15.5 55q5 30 28 50t53 20t48.5 -18.5t18.5 -46.5q0 -34 -23.5 -58.5t-57.5 -24.5q-32 0 -51.5 23zM531.5 874.5q18.5 -18.5 18.5 -46.5q0 -34 -23 -58.5t-58 -24.5q-29 0 -48 19t-19 48q0 33 23.5 57t57.5 24
q30 0 48.5 -18.5zM437 692l112 -692h-152l-17 155h-216l-59 -155h-151l306 692h177zM368 264l-36 326l-126 -326h162z" />
    <glyph glyph-name="uni0226" unicode="&#x226;" horiz-adv-x="577" 
d="M380 155h-216l-59 -155h-151l306 692h177l112 -692h-152zM368 264l-36 326l-126 -326h162zM438 908q21 -21 21 -54q0 -38 -27.5 -64.5t-67.5 -26.5q-35 0 -56 21t-21 54q0 38 27.5 64.5t67.5 26.5q35 0 56 -21z" />
    <glyph glyph-name="uni1EA0" unicode="&#x1ea0;" horiz-adv-x="577" 
d="M380 155h-216l-59 -155h-151l306 692h177l112 -692h-152zM368 264l-36 326l-126 -326h162zM169 -209.5q-21 20.5 -21 53.5q0 39 27 65.5t67 26.5q35 0 56 -21t21 -53q0 -39 -27.5 -65.5t-66.5 -26.5q-35 0 -56 20.5z" />
    <glyph glyph-name="uni01E0" unicode="&#x1e0;" horiz-adv-x="577" 
d="M524 932h-293l13 100h294zM304.5 876.5q27.5 26.5 67.5 26.5q35 0 56 -21t21 -54q0 -38 -27.5 -64.5t-67.5 -26.5q-35 0 -56 21t-21 54q0 38 27.5 64.5zM380 155h-216l-59 -155h-151l306 692h177l112 -692h-152zM368 264l-36 326l-126 -326h162z" />
    <glyph glyph-name="Agrave" unicode="&#xc0;" horiz-adv-x="577" 
d="M380 155h-216l-59 -155h-151l306 692h177l112 -692h-152zM368 264l-36 326l-126 -326h162zM505 822l-41 -73l-226 89l61 108z" />
    <glyph glyph-name="uni1EA2" unicode="&#x1ea2;" horiz-adv-x="577" 
d="M380 155h-216l-59 -155h-151l306 692h177l112 -692h-152zM368 264l-36 326l-126 -326h162zM326 852q38 2 58 12.5t20 32.5q0 26 -35 26q-29 0 -60 -14l-19 64q45 25 106 25q52 0 80.5 -24t28.5 -65q0 -42 -25 -67.5t-70 -34.5l-7 -44h-86z" />
    <glyph glyph-name="uni0202" unicode="&#x202;" horiz-adv-x="577" 
d="M380 155h-216l-59 -155h-151l306 692h177l112 -692h-152zM368 264l-36 326l-126 -326h162zM195 784q16 71 66 115.5t121 44.5q73 0 111.5 -46.5t35.5 -118.5l-82 -11q-9 76 -74 76q-67 0 -99 -79z" />
    <glyph glyph-name="uni2C6D" unicode="&#x2c6d;" horiz-adv-x="675" 
d="M587.5 94.5q7.5 -9.5 22.5 -14.5l-41 -94q-46 4 -77 23.5t-45 58.5q-36 -41 -78.5 -62.5t-96.5 -21.5q-106 0 -167.5 73t-61.5 203q0 116 41.5 219t115.5 166t167 63q50 0 85.5 -19t63.5 -54l19 57h124l-77 -547q-2 -18 -2 -25q0 -16 7.5 -25.5zM439 152l54 389
q-20 28 -46 42.5t-63 14.5q-60 0 -103.5 -49.5t-65.5 -128.5t-22 -164q0 -88 30.5 -126t85.5 -38q73 0 130 60z" />
    <glyph glyph-name="Amacron" unicode="&#x100;" horiz-adv-x="577" 
d="M380 155h-216l-59 -155h-151l306 692h177l112 -692h-152zM368 264l-36 326l-126 -326h162zM215 784l14 100h293l-13 -100h-294z" />
    <glyph glyph-name="Aogonek" unicode="&#x104;" horiz-adv-x="577" 
d="M349 -117q0 -16 11.5 -25t33.5 -9q25 0 62 8l-20 -92q-37 -7 -66 -7q-58 0 -93 28t-35 74q0 106 152 164l-14 131h-216l-59 -155h-151l306 692h177l112 -692h-64q-136 -50 -136 -117zM368 264l-36 326l-126 -326h162z" />
    <glyph glyph-name="Aring" unicode="&#xc5;" horiz-adv-x="577" 
d="M380 155h-216l-59 -155h-151l306 692h177l112 -692h-152zM368 264l-36 326l-126 -326h162zM473.5 954q31.5 -32 31.5 -81q0 -37 -18.5 -68.5t-52 -50.5t-75.5 -19q-54 0 -86 32t-32 81q0 36 19 68t52.5 51t75.5 19q54 0 85.5 -32zM340.5 894q-15.5 -19 -15.5 -43
q0 -20 10.5 -31t28.5 -11q27 0 42.5 18.5t15.5 42.5q0 21 -10.5 32t-29.5 11q-26 0 -41.5 -19z" />
    <glyph glyph-name="Aringacute" unicode="&#x1fa;" horiz-adv-x="577" 
d="M277 977l-34 72l220 125l50 -109zM266 759q-32 32 -32 81q0 36 19 68t52.5 51t75.5 19q54 0 85.5 -32t31.5 -81q0 -37 -18.5 -68.5t-52 -50.5t-75.5 -19q-54 0 -86 32zM333.5 886q-15.5 -19 -15.5 -43q0 -20 10.5 -31t28.5 -11q27 0 42.5 18.5t15.5 42.5q0 21 -10.5 32
t-29.5 11q-26 0 -41.5 -19zM380 155h-216l-59 -155h-151l306 692h177l112 -692h-152zM368 264l-36 326l-126 -326h162z" />
    <glyph glyph-name="uni023A" unicode="&#x23a;" horiz-adv-x="577" 
d="M391 155h-121l-92 -228l-55 13l88 215h-56l-62 -155h-139l306 692h169l25 62l54 -13l-56 -138l97 -603h-138zM252 257l96 236l-14 108l-138 -344h56zM378 257l-16 124l-50 -124h66z" />
    <glyph glyph-name="Atilde" unicode="&#xc3;" horiz-adv-x="577" 
d="M380 155h-216l-59 -155h-151l306 692h177l112 -692h-152zM368 264l-36 326l-126 -326h162zM387 773.5q-16 7.5 -34 20.5q-13 9 -21.5 13.5t-17.5 4.5q-18 0 -32 -11.5t-30 -35.5l-67 40q26 49 60.5 79t74.5 30q22 0 37.5 -7.5t32.5 -20.5q12 -9 20 -13.5t17 -4.5
q16 0 30 11t30 34l69 -39q-27 -50 -61.5 -79t-71.5 -29q-20 0 -36 7.5z" />
    <glyph glyph-name="AE" unicode="&#xc6;" horiz-adv-x="826" 
d="M505 585l14 -182h243l-14 -106h-221l14 -189h227l-16 -108h-340l-9 155h-229l-74 -155h-156l359 692h509l-30 -107h-277zM397 264l-17 319l-153 -319h170z" />
    <glyph glyph-name="AEacute" unicode="&#x1fc;" horiz-adv-x="826" 
d="M505 585l14 -182h243l-14 -106h-221l14 -189h227l-16 -108h-340l-9 155h-229l-74 -155h-156l359 692h509l-30 -107h-277zM397 264l-17 319l-153 -319h170zM692 837l-236 -88l-34 72l220 125z" />
    <glyph glyph-name="uni01E2" unicode="&#x1e2;" horiz-adv-x="826" 
d="M505 585l14 -182h243l-14 -106h-221l14 -189h227l-16 -108h-340l-9 155h-229l-74 -155h-156l359 692h509l-30 -107h-277zM397 264l-17 319l-153 -319h170zM401 784l14 100h293l-13 -100h-294z" />
    <glyph glyph-name="B" unicode="B" horiz-adv-x="606" 
d="M530.5 321q37.5 -33 37.5 -101q0 -100 -74.5 -160t-244.5 -60h-213l97 692h199q251 0 251 -157q0 -69 -43.5 -111.5t-108.5 -57.5q62 -12 99.5 -45zM262 586l-25 -175h70q62 0 94.5 29.5t32.5 80.5q0 36 -25.5 50.5t-73.5 14.5h-73zM384.5 140.5q34.5 31.5 34.5 89.5
q0 81 -112 81h-83l-29 -202h66q89 0 123.5 31.5z" />
    <glyph glyph-name="uni1E02" unicode="&#x1e02;" horiz-adv-x="606" 
d="M530.5 321q37.5 -33 37.5 -101q0 -100 -74.5 -160t-244.5 -60h-213l97 692h199q251 0 251 -157q0 -69 -43.5 -111.5t-108.5 -57.5q62 -12 99.5 -45zM262 586l-25 -175h70q62 0 94.5 29.5t32.5 80.5q0 36 -25.5 50.5t-73.5 14.5h-73zM384.5 140.5q34.5 31.5 34.5 89.5
q0 81 -112 81h-83l-29 -202h66q89 0 123.5 31.5zM427 908q21 -21 21 -54q0 -38 -27.5 -64.5t-67.5 -26.5q-35 0 -56 21t-21 54q0 38 27.5 64.5t67.5 26.5q35 0 56 -21z" />
    <glyph glyph-name="uni1E04" unicode="&#x1e04;" horiz-adv-x="606" 
d="M530.5 321q37.5 -33 37.5 -101q0 -100 -74.5 -160t-244.5 -60h-213l97 692h199q251 0 251 -157q0 -69 -43.5 -111.5t-108.5 -57.5q62 -12 99.5 -45zM262 586l-25 -175h70q62 0 94.5 29.5t32.5 80.5q0 36 -25.5 50.5t-73.5 14.5h-73zM384.5 140.5q34.5 31.5 34.5 89.5
q0 81 -112 81h-83l-29 -202h66q89 0 123.5 31.5zM186 -209.5q-21 20.5 -21 53.5q0 39 27 65.5t67 26.5q35 0 56 -21t21 -53q0 -39 -27.5 -65.5t-66.5 -26.5q-35 0 -56 20.5z" />
    <glyph glyph-name="uni0181" unicode="&#x181;" horiz-adv-x="733" 
d="M658.5 321q37.5 -33 37.5 -101q0 -100 -75 -160t-244 -60h-214l82 585h-27q-56 0 -56 -60q0 -21 8 -51l-99 -40q-12 25 -19 47.5t-7 48.5q0 74 52 118t138 44h25h200q118 0 184.5 -37.5t66.5 -119.5q0 -69 -43.5 -111.5t-109.5 -57.5q63 -12 100.5 -45zM389 586l-24 -175
h70q62 0 94 29.5t32 80.5q0 36 -25.5 50.5t-73.5 14.5h-73zM511.5 140.5q34.5 31.5 34.5 89.5q0 81 -112 81h-83l-28 -202h65q89 0 123.5 31.5z" />
    <glyph glyph-name="uni0243" unicode="&#x243;" horiz-adv-x="620" 
d="M544.5 321q37.5 -33 37.5 -101q0 -100 -74.5 -160t-244.5 -60h-214l24 174h-70l12 77h69l62 441h200q251 0 251 -157q0 -69 -43.5 -111.5t-108.5 -57.5q62 -12 99.5 -45zM276 586l-25 -175h70q62 0 94.5 29.5t32.5 80.5q0 36 -25.5 50.5t-74.5 14.5h-72zM398.5 140.5
q34.5 31.5 34.5 89.5q0 81 -112 81h-84l-8 -60h125l-11 -77h-125l-9 -65h66q89 0 123.5 31.5z" />
    <glyph glyph-name="uni0182" unicode="&#x182;" horiz-adv-x="583" 
d="M498 394.5q63 -47.5 63 -139.5q0 -64 -29.5 -122t-96.5 -95.5t-174 -37.5h-225l97 692h413l-31 -113h-253l-20 -137h76q117 0 180 -47.5zM374 148q34 39 34 101q0 45 -27.5 67t-83.5 22h-69l-32 -229h69q75 0 109 39z" />
    <glyph glyph-name="C" unicode="C" horiz-adv-x="563" 
d="M595 628l-81 -79q-26 24 -54 36t-62 12q-72 0 -117.5 -52t-65.5 -128t-20 -150q0 -85 34 -126t95 -41q39 0 71.5 15t73.5 44l57 -90q-43 -37 -99 -61t-120 -24q-123 0 -193 74t-70 211q0 104 36.5 204.5t115 167.5t198.5 67q126 0 201 -80z" />
    <glyph glyph-name="Cacute" unicode="&#x106;" horiz-adv-x="563" 
d="M595 628l-81 -79q-26 24 -54 36t-62 12q-72 0 -117.5 -52t-65.5 -128t-20 -150q0 -85 34 -126t95 -41q39 0 71.5 15t73.5 44l57 -90q-43 -37 -99 -61t-120 -24q-123 0 -193 74t-70 211q0 104 36.5 204.5t115 167.5t198.5 67q126 0 201 -80zM564 837l-236 -88l-34 72
l220 125z" />
    <glyph glyph-name="Ccaron" unicode="&#x10c;" horiz-adv-x="563" 
d="M595 628l-81 -79q-26 24 -54 36t-62 12q-72 0 -117.5 -52t-65.5 -128t-20 -150q0 -85 34 -126t95 -41q39 0 71.5 15t73.5 44l57 -90q-43 -37 -99 -61t-120 -24q-123 0 -193 74t-70 211q0 104 36.5 204.5t115 167.5t198.5 67q126 0 201 -80zM609 875l-154 -124h-87
l-121 124l58 60l117 -83l141 83z" />
    <glyph glyph-name="Ccedilla" unicode="&#xc7;" horiz-adv-x="563" 
d="M442 14.5q-47 -22.5 -101 -28.5l-6 -36q44 -4 66.5 -27t22.5 -60q0 -29 -16 -56.5t-50.5 -45.5t-87.5 -18q-32 0 -58.5 8.5t-44.5 22.5l41 65q27 -16 59 -16q25 0 39.5 9.5t14.5 27.5q0 17 -19 24t-66 7l24 96q-102 14 -159 86.5t-57 195.5q0 104 36.5 204.5t115 167.5
t198.5 67q126 0 201 -80l-81 -79q-26 24 -54 36t-62 12q-72 0 -117.5 -52t-65.5 -128t-20 -150q0 -85 34 -126t95 -41q39 0 71.5 15t73.5 44l57 -90q-37 -32 -84 -54.5z" />
    <glyph glyph-name="Ccircumflex" unicode="&#x108;" horiz-adv-x="563" 
d="M595 628l-81 -79q-26 24 -54 36t-62 12q-72 0 -117.5 -52t-65.5 -128t-20 -150q0 -85 34 -126t95 -41q39 0 71.5 15t73.5 44l57 -90q-43 -37 -99 -61t-120 -24q-123 0 -193 74t-70 211q0 104 36.5 204.5t115 167.5t198.5 67q126 0 201 -80zM426 840l-141 -84l-47 60
l155 124h86l121 -124l-56 -60z" />
    <glyph glyph-name="Cdotaccent" unicode="&#x10a;" horiz-adv-x="563" 
d="M595 628l-81 -79q-26 24 -54 36t-62 12q-72 0 -117.5 -52t-65.5 -128t-20 -150q0 -85 34 -126t95 -41q39 0 71.5 15t73.5 44l57 -90q-43 -37 -99 -61t-120 -24q-123 0 -193 74t-70 211q0 104 36.5 204.5t115 167.5t198.5 67q126 0 201 -80zM496 908q21 -21 21 -54
q0 -38 -27.5 -64.5t-67.5 -26.5q-35 0 -56 21t-21 54q0 38 27.5 64.5t67.5 26.5q35 0 56 -21z" />
    <glyph glyph-name="uni0187" unicode="&#x187;" horiz-adv-x="571" 
d="M783 808l-53 -87q-17 11 -31 15.5t-33 4.5q-56 0 -65 -67l-6 -46l-67 -69q-62 38 -128 38q-73 0 -119 -52t-66.5 -128t-20.5 -150q0 -85 34.5 -126t94.5 -41q40 0 71.5 15t73.5 44l58 -90q-43 -37 -99 -61t-121 -24q-122 0 -192 74t-70 211q0 101 38 202.5t114.5 169
t185.5 67.5q53 0 94 -19q12 76 58.5 117t124.5 41q69 0 124 -39z" />
    <glyph glyph-name="uni023B" unicode="&#x23b;" horiz-adv-x="563" 
d="M395.5 115q32.5 15 73.5 44l57 -90q-43 -37 -99 -61t-120 -24q-42 0 -78 9l-27 -66l-54 13l29 72q-64 31 -98.5 96.5t-34.5 160.5q0 104 36.5 204.5t115 167.5t198.5 67q34 0 64 -6l21 52l54 -13l-22 -54q47 -21 84 -59l-81 -79q-23 22 -46 33l-192 -475q20 -7 48 -7
q39 0 71.5 15zM229 140l186 456q-6 1 -17 1q-72 0 -117.5 -52t-65.5 -128t-20 -150q0 -85 34 -127z" />
    <glyph glyph-name="D" unicode="D" horiz-adv-x="641" 
d="M535 635q85 -57 85 -205q0 -120 -38 -216.5t-124.5 -155t-225.5 -58.5h-196l97 692h176q141 0 226 -57zM262 584l-66 -476h58q80 0 129 48t69 121t20 153q0 89 -40 121.5t-112 32.5h-58z" />
    <glyph glyph-name="uni01F1" unicode="&#x1f1;" horiz-adv-x="1161" 
d="M535 635q85 -57 85 -205q0 -120 -38 -216.5t-124.5 -155t-225.5 -58.5h-196l97 692h176q141 0 226 -57zM262 584l-66 -476h58q80 0 129 48t69 121t20 153q0 89 -40 121.5t-112 32.5h-58zM628 111l377 465h-278l16 116h444l-16 -113l-370 -461l309 1l-31 -119h-465z" />
    <glyph glyph-name="uni01C4" unicode="&#x1c4;" horiz-adv-x="1161" 
d="M535 635q85 -57 85 -205q0 -120 -38 -216.5t-124.5 -155t-225.5 -58.5h-196l97 692h176q141 0 226 -57zM262 584l-66 -476h58q80 0 129 48t69 121t20 153q0 89 -40 121.5t-112 32.5h-58zM628 111l377 465h-278l16 116h444l-16 -113l-370 -461l309 1l-31 -119h-465z
M1164 875l-154 -124h-87l-121 124l58 60l117 -83l141 83z" />
    <glyph glyph-name="uni0189" unicode="&#x189;" horiz-adv-x="651" 
d="M545 634.5q85 -57.5 85 -204.5q0 -120 -38.5 -216.5t-125 -155t-224.5 -58.5h-197l43 307h-69l12 92h70l41 293h177q141 0 226 -57.5zM392 156q49 48 69 121t20 153q0 89 -39.5 121.5t-111.5 32.5h-58l-26 -185h139l-13 -92h-139l-28 -199h58q80 0 129 48z" />
    <glyph glyph-name="Eth" unicode="&#xd0;" horiz-adv-x="651" 
d="M545 634.5q85 -57.5 85 -204.5q0 -120 -38.5 -216.5t-125 -155t-224.5 -58.5h-197l43 307h-69l12 92h70l41 293h177q141 0 226 -57.5zM392 156q49 48 69 121t20 153q0 89 -39.5 121.5t-111.5 32.5h-58l-26 -185h139l-13 -92h-139l-28 -199h58q80 0 129 48z" />
    <glyph glyph-name="Dcaron" unicode="&#x10e;" horiz-adv-x="641" 
d="M535 635q85 -57 85 -205q0 -120 -38 -216.5t-124.5 -155t-225.5 -58.5h-196l97 692h176q141 0 226 -57zM262 584l-66 -476h58q80 0 129 48t69 121t20 153q0 89 -40 121.5t-112 32.5h-58zM555 875l-154 -124h-87l-121 124l58 60l117 -83l141 83z" />
    <glyph glyph-name="uni1E12" unicode="&#x1e12;" horiz-adv-x="641" 
d="M535 635q85 -57 85 -205q0 -120 -38 -216.5t-124.5 -155t-225.5 -58.5h-196l97 692h176q141 0 226 -57zM262 584l-66 -476h58q80 0 129 48t69 121t20 153q0 89 -40 121.5t-112 32.5h-58zM41 -195l155 131h87l120 -131l-59 -60l-116 89l-140 -89z" />
    <glyph glyph-name="Dcroat" unicode="&#x110;" horiz-adv-x="651" 
d="M545 634.5q85 -57.5 85 -204.5q0 -120 -38.5 -216.5t-125 -155t-224.5 -58.5h-197l43 307h-69l12 92h70l41 293h177q141 0 226 -57.5zM392 156q49 48 69 121t20 153q0 89 -39.5 121.5t-111.5 32.5h-58l-26 -185h139l-13 -92h-139l-28 -199h58q80 0 129 48z" />
    <glyph glyph-name="uni1E0A" unicode="&#x1e0a;" horiz-adv-x="641" 
d="M535 635q85 -57 85 -205q0 -120 -38 -216.5t-124.5 -155t-225.5 -58.5h-196l97 692h176q141 0 226 -57zM262 584l-66 -476h58q80 0 129 48t69 121t20 153q0 89 -40 121.5t-112 32.5h-58zM442 908q21 -21 21 -54q0 -38 -27.5 -64.5t-67.5 -26.5q-35 0 -56 21t-21 54
q0 38 27.5 64.5t67.5 26.5q35 0 56 -21z" />
    <glyph glyph-name="uni1E0C" unicode="&#x1e0c;" horiz-adv-x="641" 
d="M535 635q85 -57 85 -205q0 -120 -38 -216.5t-124.5 -155t-225.5 -58.5h-196l97 692h176q141 0 226 -57zM262 584l-66 -476h58q80 0 129 48t69 121t20 153q0 89 -40 121.5t-112 32.5h-58zM170 -209.5q-21 20.5 -21 53.5q0 39 27 65.5t67 26.5q35 0 56 -21t21 -53
q0 -39 -27.5 -65.5t-66.5 -26.5q-35 0 -56 20.5z" />
    <glyph glyph-name="uni018A" unicode="&#x18a;" horiz-adv-x="769" 
d="M663 634.5q85 -57.5 85 -204.5q0 -120 -38.5 -216.5t-125 -155t-224.5 -58.5h-197l82 585h-27q-56 0 -56 -60q0 -21 8 -51l-99 -40q-12 25 -19 47.5t-7 48.5q0 74 52 118t138 44h25h177q141 0 226 -57.5zM510 156q49 48 69 121t20 153q0 89 -40 121.5t-112 32.5h-57
l-67 -476h58q80 0 129 48z" />
    <glyph glyph-name="uni1E0E" unicode="&#x1e0e;" horiz-adv-x="641" 
d="M535 635q85 -57 85 -205q0 -120 -38 -216.5t-124.5 -155t-225.5 -58.5h-196l97 692h176q141 0 226 -57zM262 584l-66 -476h58q80 0 129 48t69 121t20 153q0 89 -40 121.5t-112 32.5h-58zM394 -87l-14 -100h-293l13 100h294z" />
    <glyph glyph-name="uni018B" unicode="&#x18b;" horiz-adv-x="585" 
d="M475 0h-229q-106 0 -170 52t-64 148q0 115 81 178.5t220 63.5h79l19 137h-262l16 113h407zM345 109l32 229h-66q-72 0 -109.5 -36t-37.5 -99q0 -49 28 -71.5t81 -22.5h72z" />
    <glyph glyph-name="uni01F2" unicode="&#x1f2;" horiz-adv-x="1086" 
d="M535 635q85 -57 85 -205q0 -120 -38 -216.5t-124.5 -155t-225.5 -58.5h-196l97 692h176q141 0 226 -57zM262 584l-66 -476h58q80 0 129 48t69 121t20 153q0 89 -40 121.5t-112 32.5h-58zM1085 429l-278 -319h238l-29 -110h-398l13 102l280 319h-213l16 109h385z" />
    <glyph glyph-name="uni01C5" unicode="&#x1c5;" horiz-adv-x="1086" 
d="M535 635q85 -57 85 -205q0 -120 -38 -216.5t-124.5 -155t-225.5 -58.5h-196l97 692h176q141 0 226 -57zM262 584l-66 -476h58q80 0 129 48t69 121t20 153q0 89 -40 121.5t-112 32.5h-58zM1085 429l-278 -319h238l-29 -110h-398l13 102l280 319h-213l16 109h385zM1115 746
l-155 -131h-87l-120 131l56 60l116 -89l144 89z" />
    <glyph glyph-name="E" unicode="E" horiz-adv-x="521" 
d="M509 585h-246l-26 -180h215l-14 -106h-215l-27 -191h264l-15 -108h-409l97 692h407z" />
    <glyph glyph-name="Eacute" unicode="&#xc9;" horiz-adv-x="521" 
d="M509 585h-246l-26 -180h215l-14 -106h-215l-27 -191h264l-15 -108h-409l97 692h407zM495 837l-236 -88l-34 72l220 125z" />
    <glyph glyph-name="Ebreve" unicode="&#x114;" horiz-adv-x="521" 
d="M509 585h-246l-26 -180h215l-14 -106h-215l-27 -191h264l-15 -108h-409l97 692h407zM267.5 773q-33.5 21 -49.5 56.5t-14 77.5l78 11q12 -65 73 -65q34 0 58.5 19t38.5 49l80 -18q-14 -64 -64 -107.5t-119 -43.5q-48 0 -81.5 21z" />
    <glyph glyph-name="Ecaron" unicode="&#x11a;" horiz-adv-x="521" 
d="M509 585h-246l-26 -180h215l-14 -106h-215l-27 -191h264l-15 -108h-409l97 692h407zM541 875l-154 -124h-87l-121 124l58 60l117 -83l141 83z" />
    <glyph glyph-name="uni0228" unicode="&#x228;" horiz-adv-x="521" 
d="M263 585l-26 -180h215l-14 -106h-215l-27 -191h264l-15 -108h-163l-8 -50q44 -4 66 -27t22 -60q0 -29 -16 -56.5t-50.5 -45.5t-87.5 -18q-61 0 -103 31l41 65q27 -16 59 -16q25 0 39.5 9.5t14.5 27.5q0 17 -19 24t-66 7l27 109h-165l97 692h407l-31 -107h-246z" />
    <glyph glyph-name="Ecircumflex" unicode="&#xca;" horiz-adv-x="521" 
d="M509 585h-246l-26 -180h215l-14 -106h-215l-27 -191h264l-15 -108h-409l97 692h407zM357 840l-141 -84l-47 60l155 124h86l121 -124l-56 -60z" />
    <glyph glyph-name="uni1EBE" unicode="&#x1ebe;" horiz-adv-x="521" 
d="M676 999l-168 -137l-50 49l148 164zM352 804l-141 -84l-47 60l155 124h86l121 -124l-56 -60zM509 585h-246l-26 -180h215l-14 -106h-215l-27 -191h264l-15 -108h-409l97 692h407z" />
    <glyph glyph-name="uni1EC6" unicode="&#x1ec6;" horiz-adv-x="521" 
d="M509 585h-246l-26 -180h215l-14 -106h-215l-27 -191h264l-15 -108h-409l97 692h407zM357 840l-141 -84l-47 60l155 124h86l121 -124l-56 -60zM159 -209.5q-21 20.5 -21 53.5q0 39 27 65.5t67 26.5q35 0 56 -21t21 -53q0 -39 -27.5 -65.5t-66.5 -26.5q-35 0 -56 20.5z" />
    <glyph glyph-name="uni1EC0" unicode="&#x1ec0;" horiz-adv-x="521" 
d="M267 909l-57 -47l-133 137l85 74zM353 804l-141 -84l-47 60l155 124h86l121 -124l-56 -60zM509 585h-246l-26 -180h215l-14 -106h-215l-27 -191h264l-15 -108h-409l97 692h407z" />
    <glyph glyph-name="uni1EC2" unicode="&#x1ec2;" horiz-adv-x="521" 
d="M485 935q38 2 58 12.5t20 32.5q0 26 -35 26q-29 0 -60 -14l-19 64q45 25 106 25q52 0 80.5 -24t28.5 -65q0 -42 -25 -67.5t-70 -34.5l-7 -44h-86zM349 804l-141 -84l-47 60l155 124h86l121 -124l-56 -60zM509 585h-246l-26 -180h215l-14 -106h-215l-27 -191h264l-15 -108
h-409l97 692h407z" />
    <glyph glyph-name="uni1EC4" unicode="&#x1ec4;" horiz-adv-x="521" 
d="M402 938.5q-15 6.5 -35 19.5q-12 9 -20.5 13t-17.5 4q-18 0 -31.5 -10.5t-29.5 -33.5l-67 38q26 46 60.5 75t73.5 29q21 0 36.5 -7t33.5 -20q11 -9 19 -13t17 -4q17 0 30.5 10.5t29.5 32.5l68 -37q-26 -48 -60.5 -75.5t-71.5 -27.5q-20 0 -35 6.5zM354 804l-141 -84
l-47 60l155 124h86l121 -124l-56 -60zM509 585h-246l-26 -180h215l-14 -106h-215l-27 -191h264l-15 -108h-409l97 692h407z" />
    <glyph glyph-name="uni0204" unicode="&#x204;" horiz-adv-x="521" 
d="M509 585h-246l-26 -180h215l-14 -106h-215l-27 -191h264l-15 -108h-409l97 692h407zM330 824l-79 -35l-92 176l105 50zM488 826l-78 -32l-84 173l105 48z" />
    <glyph glyph-name="Edieresis" unicode="&#xcb;" horiz-adv-x="521" 
d="M509 585h-246l-26 -180h215l-14 -106h-215l-27 -191h264l-15 -108h-409l97 692h407zM301.5 899.5q18.5 -18.5 18.5 -46.5q0 -34 -23.5 -58.5t-57.5 -24.5q-29 0 -48.5 19t-19.5 48q0 33 24 57t58 24q30 0 48.5 -18.5zM524.5 899.5q18.5 -18.5 18.5 -46.5q0 -34 -23 -58.5
t-58 -24.5q-29 0 -48 19t-19 48q0 33 23.5 57t57.5 24q30 0 48.5 -18.5z" />
    <glyph glyph-name="Edotaccent" unicode="&#x116;" horiz-adv-x="521" 
d="M509 585h-246l-26 -180h215l-14 -106h-215l-27 -191h264l-15 -108h-409l97 692h407zM427 908q21 -21 21 -54q0 -38 -27.5 -64.5t-67.5 -26.5q-35 0 -56 21t-21 54q0 38 27.5 64.5t67.5 26.5q35 0 56 -21z" />
    <glyph glyph-name="uni1EB8" unicode="&#x1eb8;" horiz-adv-x="521" 
d="M509 585h-246l-26 -180h215l-14 -106h-215l-27 -191h264l-15 -108h-409l97 692h407zM159 -209.5q-21 20.5 -21 53.5q0 39 27 65.5t67 26.5q35 0 56 -21t21 -53q0 -39 -27.5 -65.5t-66.5 -26.5q-35 0 -56 20.5z" />
    <glyph glyph-name="Egrave" unicode="&#xc8;" horiz-adv-x="521" 
d="M509 585h-246l-26 -180h215l-14 -106h-215l-27 -191h264l-15 -108h-409l97 692h407zM494 822l-41 -73l-226 89l61 108z" />
    <glyph glyph-name="uni1EBA" unicode="&#x1eba;" horiz-adv-x="521" 
d="M509 585h-246l-26 -180h215l-14 -106h-215l-27 -191h264l-15 -108h-409l97 692h407zM315 852q38 2 58 12.5t20 32.5q0 26 -35 26q-29 0 -60 -14l-19 64q45 25 106 25q52 0 80.5 -24t28.5 -65q0 -42 -25 -67.5t-70 -34.5l-7 -44h-86z" />
    <glyph glyph-name="uni0206" unicode="&#x206;" horiz-adv-x="521" 
d="M509 585h-246l-26 -180h215l-14 -106h-215l-27 -191h264l-15 -108h-409l97 692h407zM184 784q16 71 66 115.5t121 44.5q73 0 111.5 -46.5t35.5 -118.5l-82 -11q-9 76 -74 76q-67 0 -99 -79z" />
    <glyph glyph-name="Emacron" unicode="&#x112;" horiz-adv-x="521" 
d="M509 585h-246l-26 -180h215l-14 -106h-215l-27 -191h264l-15 -108h-409l97 692h407zM204 784l14 100h293l-13 -100h-294z" />
    <glyph glyph-name="Eogonek" unicode="&#x118;" horiz-adv-x="521" 
d="M263 585l-26 -180h215l-14 -106h-215l-27 -191h264l-15 -108h-38q-136 -50 -136 -117q0 -16 11.5 -25t33.5 -9q25 0 62 8l-20 -92q-37 -7 -66 -7q-58 0 -93 28t-35 74q0 85 99 140h-227l97 692h407l-31 -107h-246z" />
    <glyph glyph-name="uni0190" unicode="&#x190;" horiz-adv-x="528" 
d="M461.5 685q52.5 -23 94.5 -69l-80 -74q-57 57 -129 57q-55 0 -84.5 -28.5t-29.5 -73.5q0 -38 24.5 -58t71.5 -20h74l-33 -108h-51q-71 0 -110.5 -32t-39.5 -91q0 -93 108 -93q43 0 80.5 16.5t73.5 48.5l71 -81q-100 -95 -246 -95q-71 0 -125 23.5t-83.5 67t-29.5 100.5
q0 85 52.5 134.5t142.5 59.5q-62 13 -94.5 49t-32.5 90q0 59 34 104.5t92 70.5t126 25q71 0 123.5 -23z" />
    <glyph glyph-name="uni018E" unicode="&#x18e;" horiz-adv-x="518" 
d="M505 692l-96 -692h-409l15 108h263l27 191h-215l15 106h215l25 180h-258l15 107h403z" />
    <glyph glyph-name="uni01A9" unicode="&#x1a9;" horiz-adv-x="494" 
d="M514 583h-288l145 -214l-7 -65l-200 -193h284l-16 -111h-444l15 109l229 232l-162 242l15 109h444z" />
    <glyph glyph-name="uni0246" unicode="&#x246;" horiz-adv-x="520" 
d="M456 585l-73 -180h69l-14 -106h-98l-78 -191h198l-15 -108h-226l-30 -73l-55 13l25 60h-123l97 692h307l25 62l54 -13l-20 -49h41l-31 -107h-53zM397 585h-134l-26 -180h86zM280 299h-57l-27 -191h7z" />
    <glyph glyph-name="uni1EBC" unicode="&#x1ebc;" horiz-adv-x="521" 
d="M509 585h-246l-26 -180h215l-14 -106h-215l-27 -191h264l-15 -108h-409l97 692h407zM376 773.5q-16 7.5 -34 20.5q-13 9 -21.5 13.5t-17.5 4.5q-18 0 -32 -11.5t-30 -35.5l-67 40q26 49 60.5 79t74.5 30q22 0 37.5 -7.5t32.5 -20.5q12 -9 20 -13.5t17 -4.5q16 0 30 11
t30 34l69 -39q-27 -50 -61.5 -79t-71.5 -29q-20 0 -36 7.5z" />
    <glyph glyph-name="uni01B7" unicode="&#x1b7;" horiz-adv-x="537" 
d="M519 586l-207 -185q91 -3 139.5 -46.5t48.5 -121.5q0 -76 -38.5 -132.5t-105 -86.5t-149.5 -30q-79 0 -132.5 25.5t-89.5 75.5l84 72q30 -33 61.5 -47.5t75.5 -14.5q64 0 104 36t40 97q0 46 -29 65.5t-88 19.5h-96l11 86l203 184h-259l15 109h426z" />
    <glyph glyph-name="uni01EE" unicode="&#x1ee;" horiz-adv-x="537" 
d="M519 586l-207 -185q91 -3 139.5 -46.5t48.5 -121.5q0 -76 -38.5 -132.5t-105 -86.5t-149.5 -30q-79 0 -132.5 25.5t-89.5 75.5l84 72q30 -33 61.5 -47.5t75.5 -14.5q64 0 104 36t40 97q0 46 -29 65.5t-88 19.5h-96l11 86l203 184h-259l15 109h426zM522 875l-154 -124h-87
l-121 124l58 60l117 -83l141 83z" />
    <glyph glyph-name="uni01B8" unicode="&#x1b8;" horiz-adv-x="538" 
d="M534 583h-269l159 -186l-11 -84h-1h-93q-69 0 -109 -34.5t-40 -95.5q0 -42 25.5 -65t73.5 -23q49 0 87.5 15.5t77.5 48.5l68 -77q-49 -48 -109.5 -73t-139.5 -25q-110 0 -171.5 53t-61.5 142q0 66 32.5 116t90 78t128.5 29l-162 184l14 106h426z" />
    <glyph glyph-name="F" unicode="F" horiz-adv-x="480" 
d="M498 585h-236l-27 -196h205l-14 -107h-206l-39 -282h-145l97 692h396z" />
    <glyph glyph-name="uni1E1E" unicode="&#x1e1e;" horiz-adv-x="480" 
d="M498 585h-236l-27 -196h205l-14 -107h-206l-39 -282h-145l97 692h396zM419 908q21 -21 21 -54q0 -38 -27.5 -64.5t-67.5 -26.5q-35 0 -56 21t-21 54q0 38 27.5 64.5t67.5 26.5q35 0 56 -21z" />
    <glyph glyph-name="uni0191" unicode="&#x191;" horiz-adv-x="480" 
d="M262 585l-27 -196h205l-14 -107h-206l-39 -282h-1l-6 -40q-14 -90 -68.5 -135t-139.5 -45q-76 0 -129 43l59 87q17 -11 31 -16t34 -5q58 0 68 66l6 45h1l97 692h396l-31 -107h-236z" />
    <glyph glyph-name="G" unicode="G" horiz-adv-x="632" 
d="M629 622l-86 -77q-31 29 -60 41.5t-70 12.5q-79 0 -128 -53.5t-70.5 -134t-21.5 -166.5q0 -80 31 -115.5t93 -35.5q56 0 104 26l25 168h-96l1 107h251l-47 -339q-55 -35 -118.5 -53.5t-130.5 -18.5q-128 0 -195.5 70t-67.5 205q0 110 39.5 213t123 169.5t208.5 66.5
q132 0 215 -86z" />
    <glyph glyph-name="uni01F4" unicode="&#x1f4;" horiz-adv-x="632" 
d="M629 622l-86 -77q-31 29 -60 41.5t-70 12.5q-79 0 -128 -53.5t-70.5 -134t-21.5 -166.5q0 -80 31 -115.5t93 -35.5q56 0 104 26l25 168h-96l1 107h251l-47 -339q-55 -35 -118.5 -53.5t-130.5 -18.5q-128 0 -195.5 70t-67.5 205q0 110 39.5 213t123 169.5t208.5 66.5
q132 0 215 -86zM564 837l-236 -88l-34 72l220 125z" />
    <glyph glyph-name="uni0194" unicode="&#x194;" horiz-adv-x="559" 
d="M330 82q23 -50 33 -85t10 -73q0 -69 -41.5 -106.5t-115.5 -37.5q-64 0 -96 30t-32 81q0 43 22 87.5t69 107.5l-128 606h152l65 -509l210 509h150zM245 8q-45 -73 -45 -106q0 -26 24 -26q18 0 27.5 12.5t9.5 32.5q0 36 -16 87z" />
    <glyph glyph-name="Gbreve" unicode="&#x11e;" horiz-adv-x="632" 
d="M629 622l-86 -77q-31 29 -60 41.5t-70 12.5q-79 0 -128 -53.5t-70.5 -134t-21.5 -166.5q0 -80 31 -115.5t93 -35.5q56 0 104 26l25 168h-96l1 107h251l-47 -339q-55 -35 -118.5 -53.5t-130.5 -18.5q-128 0 -195.5 70t-67.5 205q0 110 39.5 213t123 169.5t208.5 66.5
q132 0 215 -86zM336.5 773q-33.5 21 -49.5 56.5t-14 77.5l78 11q12 -65 73 -65q34 0 58.5 19t38.5 49l80 -18q-14 -64 -64 -107.5t-119 -43.5q-48 0 -81.5 21z" />
    <glyph glyph-name="Gcaron" unicode="&#x1e6;" horiz-adv-x="632" 
d="M629 622l-86 -77q-31 29 -60 41.5t-70 12.5q-79 0 -128 -53.5t-70.5 -134t-21.5 -166.5q0 -80 31 -115.5t93 -35.5q56 0 104 26l25 168h-96l1 107h251l-47 -339q-55 -35 -118.5 -53.5t-130.5 -18.5q-128 0 -195.5 70t-67.5 205q0 110 39.5 213t123 169.5t208.5 66.5
q132 0 215 -86zM610 875l-154 -124h-87l-121 124l58 60l117 -83l141 83z" />
    <glyph glyph-name="Gcircumflex" unicode="&#x11c;" horiz-adv-x="632" 
d="M629 622l-86 -77q-31 29 -60 41.5t-70 12.5q-79 0 -128 -53.5t-70.5 -134t-21.5 -166.5q0 -80 31 -115.5t93 -35.5q56 0 104 26l25 168h-96l1 107h251l-47 -339q-55 -35 -118.5 -53.5t-130.5 -18.5q-128 0 -195.5 70t-67.5 205q0 110 39.5 213t123 169.5t208.5 66.5
q132 0 215 -86zM426 840l-141 -84l-47 60l155 124h86l121 -124l-56 -60z" />
    <glyph glyph-name="Gcommaaccent" unicode="&#x122;" horiz-adv-x="632" 
d="M629 622l-86 -77q-31 29 -60 41.5t-70 12.5q-79 0 -128 -53.5t-70.5 -134t-21.5 -166.5q0 -80 31 -115.5t93 -35.5q56 0 104 26l25 168h-96l1 107h251l-47 -339q-55 -35 -118.5 -53.5t-130.5 -18.5q-128 0 -195.5 70t-67.5 205q0 110 39.5 213t123 169.5t208.5 66.5
q132 0 215 -86zM340.5 -88.5q18.5 -18.5 18.5 -46.5q0 -21 -8 -40.5t-29 -52.5l-57 -90h-72l46 117q-25 20 -25 51q0 35 22.5 57.5t55.5 22.5q30 0 48.5 -18.5z" />
    <glyph glyph-name="Gdotaccent" unicode="&#x120;" horiz-adv-x="632" 
d="M629 622l-86 -77q-31 29 -60 41.5t-70 12.5q-79 0 -128 -53.5t-70.5 -134t-21.5 -166.5q0 -80 31 -115.5t93 -35.5q56 0 104 26l25 168h-96l1 107h251l-47 -339q-55 -35 -118.5 -53.5t-130.5 -18.5q-128 0 -195.5 70t-67.5 205q0 110 39.5 213t123 169.5t208.5 66.5
q132 0 215 -86zM497 908q21 -21 21 -54q0 -38 -27.5 -64.5t-67.5 -26.5q-35 0 -56 21t-21 54q0 38 27.5 64.5t67.5 26.5q35 0 56 -21z" />
    <glyph glyph-name="uni0193" unicode="&#x193;" horiz-adv-x="606" 
d="M818 808l-53 -87q-17 10 -31.5 15t-32.5 5q-27 0 -44.5 -17t-21.5 -50l-6 -52l-74 -66q-68 43 -142 43q-79 0 -128.5 -53.5t-71 -134.5t-21.5 -166q0 -80 31 -115.5t93 -35.5q56 0 105 26l24 168h-96l1 107h251l-46 -339q-55 -35 -119 -53.5t-131 -18.5q-128 0 -195 70
t-67 205q0 108 40.5 211.5t122.5 170.5t198 67q63 0 106 -21q12 77 58.5 118.5t124.5 41.5q70 0 125 -39z" />
    <glyph glyph-name="uni0241" unicode="&#x241;" horiz-adv-x="499" 
d="M159 327l60 17q70 20 106 59.5t36 103.5q0 44 -23 68t-67 24q-39 0 -74.5 -14.5t-73.5 -44.5l-64 79q51 44 108 66.5t127 22.5q101 0 159.5 -51.5t58.5 -139.5q0 -178 -188 -232l-27 -8l-39 -277h-144z" />
    <glyph glyph-name="uni01E4" unicode="&#x1e4;" horiz-adv-x="659" 
d="M639 172h-68l-16 -116q-55 -35 -118.5 -53.5t-130.5 -18.5q-128 0 -195.5 70t-67.5 205q0 110 39.5 213t123 169.5t208.5 66.5q132 0 215 -86l-86 -77q-31 29 -60 41.5t-70 12.5q-79 0 -128 -53.5t-70.5 -134t-21.5 -166.5q0 -80 31 -115.5t93 -35.5q61 0 109 26l7 52
h-100l16 96h98l6 44h-101v94h252l-19 -138h70z" />
    <glyph glyph-name="H" unicode="H" horiz-adv-x="660" 
d="M447 303h-224l-42 -303h-145l97 692h145l-39 -273h225l39 273h145l-97 -692h-145z" />
    <glyph glyph-name="Hbar" unicode="&#x126;" horiz-adv-x="676" 
d="M687 502h-60l-70 -502h-145l42 303h-225l-42 -303h-145l70 502h-59l13 86h58l15 104h145l-15 -104h225l15 104h145l-15 -104h60zM482 502h-225l-12 -83h225z" />
    <glyph glyph-name="uni021E" unicode="&#x21e;" horiz-adv-x="660" 
d="M447 303h-224l-42 -303h-145l97 692h145l-39 -273h225l39 273h145l-97 -692h-145zM592 875l-154 -124h-87l-121 124l58 60l117 -83l141 83z" />
    <glyph glyph-name="Hcircumflex" unicode="&#x124;" horiz-adv-x="660" 
d="M447 303h-224l-42 -303h-145l97 692h145l-39 -273h225l39 273h145l-97 -692h-145zM409 840l-141 -84l-47 60l155 124h86l121 -124l-56 -60z" />
    <glyph glyph-name="uni1E24" unicode="&#x1e24;" horiz-adv-x="660" 
d="M447 303h-224l-42 -303h-145l97 692h145l-39 -273h225l39 273h145l-97 -692h-145zM216 -209.5q-21 20.5 -21 53.5q0 39 27 65.5t67 26.5q35 0 56 -21t21 -53q0 -39 -27.5 -65.5t-66.5 -26.5q-35 0 -56 20.5z" />
    <glyph glyph-name="uniA7AA" unicode="&#xa7aa;" horiz-adv-x="787" 
d="M775 692l-97 -692h-145l41 303h-224l-43 -303h-145l83 585h-27q-56 0 -56 -60q0 -21 8 -51l-99 -40q-12 25 -19 47.5t-7 48.5q0 74 52 118t138 44h25h144l-38 -273h225l39 273h145z" />
    <glyph glyph-name="uniA78D" unicode="&#xa78d;" horiz-adv-x="608" 
d="M596 692l-97 -692h-145l36 259q-40 -27 -78 -39.5t-84 -12.5q-86 0 -134 49.5t-48 137.5q0 21 3 45l36 253h143l-36 -254q-2 -12 -2 -33q0 -45 22 -66t67 -21q71 0 126 46l46 328h145z" />
    <glyph glyph-name="uni01F6" unicode="&#x1f6;" horiz-adv-x="941" 
d="M903 411q0 -198 -63.5 -312.5t-224.5 -114.5q-93 0 -140 46.5t-47 116.5q0 10 2 28l17 128h-224l-42 -303h-145l97 692h145l-39 -273h225l39 273h145l-72 -514q-2 -18 -2 -27q0 -61 53 -61q80 0 110 104.5t30 238.5q0 56 -5 97h133q8 -59 8 -119z" />
    <glyph glyph-name="I" unicode="I" horiz-adv-x="290" 
d="M181 0h-145l97 692h145z" />
    <glyph glyph-name="IJ" unicode="&#x132;" horiz-adv-x="598" 
d="M181 0h-145l97 692h145zM506 101q-11 -80 -45.5 -131.5t-83.5 -81t-116 -50.5l-27 106q46 17 71.5 39.5t37.5 52t19 75.5l82 581h145z" />
    <glyph glyph-name="Iacute" unicode="&#xcd;" horiz-adv-x="290" 
d="M181 0h-145l97 692h145zM362 837l-236 -88l-34 72l220 125z" />
    <glyph glyph-name="Ibreve" unicode="&#x12c;" horiz-adv-x="290" 
d="M181 0h-145l97 692h145zM133.5 773q-33.5 21 -49.5 56.5t-14 77.5l78 11q12 -65 73 -65q34 0 58.5 19t38.5 49l80 -18q-14 -64 -64 -107.5t-119 -43.5q-48 0 -81.5 21z" />
    <glyph glyph-name="uni01CF" unicode="&#x1cf;" horiz-adv-x="290" 
d="M181 0h-145l97 692h145zM407 875l-154 -124h-87l-121 124l58 60l117 -83l141 83z" />
    <glyph glyph-name="Icircumflex" unicode="&#xce;" horiz-adv-x="290" 
d="M181 0h-145l97 692h145zM224 840l-141 -84l-47 60l155 124h86l121 -124l-56 -60z" />
    <glyph glyph-name="uni0208" unicode="&#x208;" horiz-adv-x="290" 
d="M181 0h-145l97 692h145zM196 824l-79 -35l-92 176l105 50zM354 826l-78 -32l-84 173l105 48z" />
    <glyph glyph-name="Idieresis" unicode="&#xcf;" horiz-adv-x="290" 
d="M181 0h-145l97 692h145zM167.5 899.5q18.5 -18.5 18.5 -46.5q0 -34 -23.5 -58.5t-57.5 -24.5q-29 0 -48.5 19t-19.5 48q0 33 24 57t58 24q30 0 48.5 -18.5zM390.5 899.5q18.5 -18.5 18.5 -46.5q0 -34 -23 -58.5t-58 -24.5q-29 0 -48 19t-19 48q0 33 23.5 57t57.5 24
q30 0 48.5 -18.5z" />
    <glyph glyph-name="uni1E2E" unicode="&#x1e2e;" horiz-adv-x="290" 
d="M398 1000l-168 -137l-50 49l148 164zM159 876q19 -19 19 -48q0 -33 -24 -57t-58 -24q-29 0 -48 19t-19 48q0 33 24 57t58 24q29 0 48 -19zM396.5 876.5q18.5 -18.5 18.5 -46.5q0 -34 -23.5 -58.5t-58.5 -24.5q-28 0 -47.5 19.5t-19.5 47.5q0 33 24 57t58 24
q30 0 48.5 -18.5zM181 0h-145l97 692h145z" />
    <glyph glyph-name="Idotaccent" unicode="&#x130;" horiz-adv-x="290" 
d="M181 0h-145l97 692h145zM294 908q21 -21 21 -54q0 -38 -27.5 -64.5t-67.5 -26.5q-35 0 -56 21t-21 54q0 38 27.5 64.5t67.5 26.5q35 0 56 -21z" />
    <glyph glyph-name="uni1ECA" unicode="&#x1eca;" horiz-adv-x="290" 
d="M181 0h-145l97 692h145zM26 -209.5q-21 20.5 -21 53.5q0 39 27 65.5t67 26.5q35 0 56 -21t21 -53q0 -39 -27.5 -65.5t-66.5 -26.5q-35 0 -56 20.5z" />
    <glyph glyph-name="Igrave" unicode="&#xcc;" horiz-adv-x="290" 
d="M181 0h-145l97 692h145zM360 822l-41 -73l-226 89l61 108z" />
    <glyph glyph-name="uni1EC8" unicode="&#x1ec8;" horiz-adv-x="290" 
d="M181 0h-145l97 692h145zM182 852q38 2 58 12.5t20 32.5q0 26 -35 26q-29 0 -60 -14l-19 64q45 25 106 25q52 0 80.5 -24t28.5 -65q0 -42 -25 -67.5t-70 -34.5l-7 -44h-86z" />
    <glyph glyph-name="uni020A" unicode="&#x20a;" horiz-adv-x="290" 
d="M181 0h-145l97 692h145zM51 784q16 71 66 115.5t121 44.5q73 0 111.5 -46.5t35.5 -118.5l-82 -11q-9 76 -74 76q-67 0 -99 -79z" />
    <glyph glyph-name="Imacron" unicode="&#x12a;" horiz-adv-x="290" 
d="M181 0h-145l97 692h145zM71 784l14 100h293l-13 -100h-294z" />
    <glyph glyph-name="Iogonek" unicode="&#x12e;" horiz-adv-x="290" 
d="M278 692l-97 -692h-31q-136 -50 -136 -117q0 -16 11.5 -25t33.5 -9q25 0 62 8l-20 -92q-37 -7 -66 -7q-58 0 -93 28t-35 74q0 98 131 155l95 677h145z" />
    <glyph glyph-name="uni0196" unicode="&#x196;" horiz-adv-x="375" 
d="M348 24q-58 -40 -136 -40q-77 0 -121.5 38t-44.5 110q0 17 3 36l5 36l70 488h145l-70 -488l-7 -49q-1 -6 -1 -17q0 -45 45 -45q21 0 35.5 5t38.5 16z" />
    <glyph glyph-name="uni0197" unicode="&#x197;" horiz-adv-x="326" 
d="M321 305h-78l-43 -305h-145l43 305h-83l16 109h82l39 278h145l-39 -278h79z" />
    <glyph glyph-name="Itilde" unicode="&#x128;" horiz-adv-x="290" 
d="M181 0h-145l97 692h145zM243 773.5q-16 7.5 -34 20.5q-13 9 -21.5 13.5t-17.5 4.5q-18 0 -32 -11.5t-30 -35.5l-67 40q26 49 60.5 79t74.5 30q22 0 37.5 -7.5t32.5 -20.5q12 -9 20 -13.5t17 -4.5q16 0 30 11t30 34l69 -39q-27 -50 -61.5 -79t-71.5 -29q-20 0 -36 7.5z
" />
    <glyph glyph-name="J" unicode="J" horiz-adv-x="308" 
d="M216 101q-11 -80 -45.5 -131.5t-83.5 -81t-116 -50.5l-27 106q46 17 71.5 39.5t37.5 52t19 75.5l82 581h145z" />
    <glyph glyph-name="Jcircumflex" unicode="&#x134;" horiz-adv-x="308" 
d="M216 101q-11 -80 -45.5 -131.5t-83.5 -81t-116 -50.5l-27 106q46 17 71.5 39.5t37.5 52t19 75.5l82 581h145zM245 840l-141 -84l-47 60l155 124h86l121 -124l-56 -60z" />
    <glyph glyph-name="uni0248" unicode="&#x248;" horiz-adv-x="326" 
d="M322 287h-80l-26 -186q-11 -80 -45.5 -131.5t-83.5 -81t-116 -50.5l-27 106q46 17 71.5 39.5t37.5 52t19 75.5l24 176h-80l16 112h80l42 293h145l-41 -293h80z" />
    <glyph glyph-name="K" unicode="K" horiz-adv-x="613" 
d="M181 0h-145l97 692h145zM391 371l195 -371h-167l-181 369l269 323h158z" />
    <glyph glyph-name="uni01E8" unicode="&#x1e8;" horiz-adv-x="613" 
d="M181 0h-145l97 692h145zM391 371l195 -371h-167l-181 369l269 323h158zM587 875l-154 -124h-87l-121 124l58 60l117 -83l141 83z" />
    <glyph glyph-name="Kcommaaccent" unicode="&#x136;" horiz-adv-x="613" 
d="M181 0h-145l97 692h145zM391 371l195 -371h-167l-181 369l269 323h158zM316.5 -88.5q18.5 -18.5 18.5 -46.5q0 -21 -8 -40.5t-29 -52.5l-57 -90h-72l46 117q-25 20 -25 51q0 35 22.5 57.5t55.5 22.5q30 0 48.5 -18.5z" />
    <glyph glyph-name="uni0198" unicode="&#x198;" horiz-adv-x="640" 
d="M391 372l195 -372h-168l-180 369l183 233q45 59 83 82.5t93 23.5q36 0 61.5 -11t48.5 -31l-53 -80q-12 7 -21.5 10.5t-23.5 3.5q-21 0 -36.5 -10.5t-41.5 -43.5zM181 0h-145l97 692h145z" />
    <glyph glyph-name="L" unicode="L" horiz-adv-x="502" 
d="M197 118h269l-31 -118h-399l97 692h145z" />
    <glyph glyph-name="uni01C7" unicode="&#x1c7;" horiz-adv-x="810" 
d="M197 118h269l-31 -118h-399l97 692h145zM718 101q-11 -80 -45.5 -131.5t-83.5 -81t-116 -50.5l-27 106q46 17 71.5 39.5t37.5 52t19 75.5l82 581h145z" />
    <glyph glyph-name="Lacute" unicode="&#x139;" horiz-adv-x="502" 
d="M197 118h269l-31 -118h-399l97 692h145zM362 837l-236 -88l-34 72l220 125z" />
    <glyph glyph-name="uni023D" unicode="&#x23d;" horiz-adv-x="517" 
d="M481 118l-31 -118h-400l43 307h-77l15 112h78l38 273h145l-38 -273h83l-15 -112h-84l-26 -189h269z" />
    <glyph glyph-name="Lcaron" unicode="&#x13d;" horiz-adv-x="502" 
d="M197 118h269l-31 -118h-399l97 692h145zM447 692l-76 -208l-73 8l41 213z" />
    <glyph glyph-name="uni1E3C" unicode="&#x1e3c;" horiz-adv-x="502" 
d="M197 118h269l-31 -118h-399l97 692h145zM25 -195l155 131h87l120 -131l-59 -60l-116 89l-140 -89z" />
    <glyph glyph-name="Lcommaaccent" unicode="&#x13b;" horiz-adv-x="502" 
d="M197 118h269l-31 -118h-399l97 692h145zM271.5 -88.5q18.5 -18.5 18.5 -46.5q0 -21 -8 -40.5t-29 -52.5l-57 -90h-72l46 117q-25 20 -25 51q0 35 22.5 57.5t55.5 22.5q30 0 48.5 -18.5z" />
    <glyph glyph-name="Ldot" unicode="&#x13f;" horiz-adv-x="502" 
d="M197 118h269l-31 -118h-399l97 692h145zM472.5 457.5q20.5 -20.5 20.5 -52.5q0 -39 -27 -66t-67 -27q-35 0 -56 21t-21 54q0 38 27.5 64.5t67.5 26.5q35 0 55.5 -20.5z" />
    <glyph glyph-name="uni1E36" unicode="&#x1e36;" horiz-adv-x="502" 
d="M197 118h269l-31 -118h-399l97 692h145zM154 -209.5q-21 20.5 -21 53.5q0 39 27 65.5t67 26.5q35 0 56 -21t21 -53q0 -39 -27.5 -65.5t-66.5 -26.5q-35 0 -56 20.5z" />
    <glyph glyph-name="uni01C8" unicode="&#x1c8;" horiz-adv-x="775" 
d="M197 118h269l-31 -118h-399l97 692h145zM676 51q-11 -80 -41.5 -131.5t-77 -82.5t-116.5 -57l-36 103q61 24 91 58t40 105l68 484h140zM765.5 782.5q20.5 -20.5 20.5 -52.5q0 -39 -27 -66t-67 -27q-35 0 -56 21t-21 54q0 38 27.5 64.5t67.5 26.5q35 0 55.5 -20.5z" />
    <glyph glyph-name="Lslash" unicode="&#x141;" horiz-adv-x="530" 
d="M463 0h-399l32 231l-46 -27l-38 80l100 58l49 350h144l-36 -258l147 84l39 -80l-202 -116l-28 -204h269z" />
    <glyph glyph-name="M" unicode="M" horiz-adv-x="785" 
d="M698 0h-142l24 283q13 162 34 290l-184 -499h-139l-55 497q-6 -127 -39 -295l-52 -276h-142l151 692h177l48 -485l172 485h191z" />
    <glyph glyph-name="uni1E3E" unicode="&#x1e3e;" horiz-adv-x="785" 
d="M698 0h-142l24 283q13 162 34 290l-184 -499h-139l-55 497q-6 -127 -39 -295l-52 -276h-142l151 692h177l48 -485l172 485h191zM598 837l-236 -88l-34 72l220 125z" />
    <glyph glyph-name="uni1E40" unicode="&#x1e40;" horiz-adv-x="785" 
d="M698 0h-142l24 283q13 162 34 290l-184 -499h-139l-55 497q-6 -127 -39 -295l-52 -276h-142l151 692h177l48 -485l172 485h191zM530 908q21 -21 21 -54q0 -38 -27.5 -64.5t-67.5 -26.5q-35 0 -56 21t-21 54q0 38 27.5 64.5t67.5 26.5q35 0 56 -21z" />
    <glyph glyph-name="uni019C" unicode="&#x19c;" horiz-adv-x="906" 
d="M894 692l-97 -692h-127l-1 68q-40 -44 -79 -64t-85 -20q-51 0 -85.5 24.5t-48.5 68.5q-42 -48 -86.5 -70.5t-93.5 -22.5q-68 0 -105.5 43t-37.5 114q0 20 3 41l72 510h145l-72 -508q-2 -18 -2 -25q0 -31 13.5 -47t38.5 -16q31 0 58 17.5t59 56.5l1 12l72 510h145
l-71 -508q-2 -18 -2 -25q0 -63 51 -63q31 0 58 17.5t59 56.5l73 522h145z" />
    <glyph glyph-name="N" unicode="N" horiz-adv-x="659" 
d="M549 0h-184l-144 569v-41q0 -132 -18 -266l-37 -262h-130l97 692h183l147 -569q-2 60 -2 85q0 91 13 187l42 297h130z" />
    <glyph glyph-name="uni01CA" unicode="&#x1ca;" horiz-adv-x="967" 
d="M549 0h-184l-144 569v-41q0 -132 -18 -266l-37 -262h-130l97 692h183l147 -569q-2 60 -2 85q0 91 13 187l42 297h130zM875 101q-11 -80 -45.5 -131.5t-83.5 -81t-116 -50.5l-27 106q46 17 71.5 39.5t37.5 52t19 75.5l82 581h145z" />
    <glyph glyph-name="Nacute" unicode="&#x143;" horiz-adv-x="659" 
d="M549 0h-184l-144 569v-41q0 -132 -18 -266l-37 -262h-130l97 692h183l147 -569q-2 60 -2 85q0 91 13 187l42 297h130zM553 837l-236 -88l-34 72l220 125z" />
    <glyph glyph-name="Ncaron" unicode="&#x147;" horiz-adv-x="659" 
d="M549 0h-184l-144 569v-41q0 -132 -18 -266l-37 -262h-130l97 692h183l147 -569q-2 60 -2 85q0 91 13 187l42 297h130zM598 875l-154 -124h-87l-121 124l58 60l117 -83l141 83z" />
    <glyph glyph-name="uni1E4A" unicode="&#x1e4a;" horiz-adv-x="659" 
d="M549 0h-184l-144 569v-41q0 -132 -18 -266l-37 -262h-130l97 692h183l147 -569q-2 60 -2 85q0 91 13 187l42 297h130zM83 -195l155 131h87l120 -131l-59 -60l-116 89l-140 -89z" />
    <glyph glyph-name="Ncommaaccent" unicode="&#x145;" horiz-adv-x="659" 
d="M549 0h-184l-144 569v-41q0 -132 -18 -266l-37 -262h-130l97 692h183l147 -569q-2 60 -2 85q0 91 13 187l42 297h130zM329.5 -88.5q18.5 -18.5 18.5 -46.5q0 -21 -8 -40.5t-29 -52.5l-57 -90h-72l46 117q-25 20 -25 51q0 35 22.5 57.5t55.5 22.5q30 0 48.5 -18.5z" />
    <glyph glyph-name="uni1E44" unicode="&#x1e44;" horiz-adv-x="659" 
d="M549 0h-184l-144 569v-41q0 -132 -18 -266l-37 -262h-130l97 692h183l147 -569q-2 60 -2 85q0 91 13 187l42 297h130zM485 908q21 -21 21 -54q0 -38 -27.5 -64.5t-67.5 -26.5q-35 0 -56 21t-21 54q0 38 27.5 64.5t67.5 26.5q35 0 56 -21z" />
    <glyph glyph-name="uni1E46" unicode="&#x1e46;" horiz-adv-x="659" 
d="M549 0h-184l-144 569v-41q0 -132 -18 -266l-37 -262h-130l97 692h183l147 -569q-2 60 -2 85q0 91 13 187l42 297h130zM212 -209.5q-21 20.5 -21 53.5q0 39 27 65.5t67 26.5q35 0 56 -21t21 -53q0 -39 -27.5 -65.5t-66.5 -26.5q-35 0 -56 20.5z" />
    <glyph glyph-name="uni01F8" unicode="&#x1f8;" horiz-adv-x="659" 
d="M549 0h-184l-144 569v-41q0 -132 -18 -266l-37 -262h-130l97 692h183l147 -569q-2 60 -2 85q0 91 13 187l42 297h130zM551 822l-41 -73l-226 89l61 108z" />
    <glyph glyph-name="Eng" unicode="&#x14a;" horiz-adv-x="659" 
d="M646 692l-97 -692l-5 -40q-14 -89 -68.5 -134.5t-139.5 -45.5q-75 0 -130 43l59 87q17 -11 31 -16t34 -5q58 0 68 66l7 45h-40l-144 569v-41q0 -132 -18 -266l-37 -262h-130l97 692h183l147 -569q-2 60 -2 85q0 91 13 187l42 297h130z" />
    <glyph glyph-name="uni019D" unicode="&#x19d;" horiz-adv-x="659" 
d="M646 692l-97 -692h-184l-144 569v-41q0 -132 -18 -266l-37 -262l-6 -41q-13 -89 -63 -134t-130 -45q-75 0 -130 43l59 82q17 -11 31 -15.5t34 -4.5q59 0 68 70l7 45l97 692h183l147 -569q-2 60 -2 85q0 91 13 187l42 297h130z" />
    <glyph glyph-name="uni01CB" unicode="&#x1cb;" horiz-adv-x="932" 
d="M549 0h-184l-144 569v-41q0 -132 -18 -266l-37 -262h-130l97 692h183l147 -569q-2 60 -2 85q0 91 13 187l42 297h130zM833 51q-11 -80 -41.5 -131.5t-77 -82.5t-116.5 -57l-36 103q61 24 91 58t40 105l68 484h140zM922.5 782.5q20.5 -20.5 20.5 -52.5q0 -39 -27 -66
t-67 -27q-35 0 -56 21t-21 54q0 38 27.5 64.5t67.5 26.5q35 0 55.5 -20.5z" />
    <glyph glyph-name="uni0220" unicode="&#x220;" horiz-adv-x="658" 
d="M581.5 666.5q39.5 -41.5 39.5 -110.5q0 -17 -3 -37l-100 -727h-145l98 706q2 11 2 31q0 35 -15.5 51.5t-49.5 16.5q-43 0 -76.5 -18.5t-76.5 -57.5l-1 5l-74 -526h-144l97 692h126l1 -68q50 43 97 63.5t106 20.5q79 0 118.5 -41.5z" />
    <glyph glyph-name="Ntilde" unicode="&#xd1;" horiz-adv-x="659" 
d="M549 0h-184l-144 569v-41q0 -132 -18 -266l-37 -262h-130l97 692h183l147 -569q-2 60 -2 85q0 91 13 187l42 297h130zM434 773.5q-16 7.5 -34 20.5q-13 9 -21.5 13.5t-17.5 4.5q-18 0 -32 -11.5t-30 -35.5l-67 40q26 49 60.5 79t74.5 30q22 0 37.5 -7.5t32.5 -20.5
q12 -9 20 -13.5t17 -4.5q16 0 30 11t30 34l69 -39q-27 -50 -61.5 -79t-71.5 -29q-20 0 -36 7.5z" />
    <glyph glyph-name="O" unicode="O" horiz-adv-x="682" 
d="M592.5 634q68.5 -74 68.5 -209q0 -104 -35 -204.5t-115 -168.5t-206 -68q-123 0 -192 74t-69 208q0 103 35 204t115.5 169.5t206.5 68.5q123 0 191.5 -74zM274 542q-44 -56 -62 -134t-18 -151q0 -86 30.5 -124.5t89.5 -38.5q74 0 118 56t61.5 134.5t17.5 152.5
q0 84 -30 122.5t-90 38.5q-73 0 -117 -56z" />
    <glyph glyph-name="uni0222" unicode="&#x222;" horiz-adv-x="641" 
d="M487 392q54 -21 82.5 -59.5t28.5 -93.5q0 -72 -39.5 -130t-110.5 -91.5t-163 -33.5q-80 0 -138 27t-88 73t-30 104q0 74 43 126.5t119 78.5q-74 39 -74 128q0 9 2 29l20 142h145l-21 -150q-3 -16 -3 -30q0 -36 20.5 -54t62.5 -18q54 0 81.5 29t33.5 77l21 146h146
l-21 -146q-16 -109 -117 -154zM406 133q41 39 41 103q0 46 -28.5 72t-84.5 26q-70 0 -111.5 -39t-41.5 -103q0 -47 28.5 -72.5t84.5 -25.5q71 0 112 39z" />
    <glyph glyph-name="Oacute" unicode="&#xd3;" horiz-adv-x="682" 
d="M592.5 634q68.5 -74 68.5 -209q0 -104 -35 -204.5t-115 -168.5t-206 -68q-123 0 -192 74t-69 208q0 103 35 204t115.5 169.5t206.5 68.5q123 0 191.5 -74zM274 542q-44 -56 -62 -134t-18 -151q0 -86 30.5 -124.5t89.5 -38.5q74 0 118 56t61.5 134.5t17.5 152.5
q0 84 -30 122.5t-90 38.5q-73 0 -117 -56zM560 837l-236 -88l-34 72l220 125z" />
    <glyph glyph-name="Obreve" unicode="&#x14e;" horiz-adv-x="682" 
d="M592.5 634q68.5 -74 68.5 -209q0 -104 -35 -204.5t-115 -168.5t-206 -68q-123 0 -192 74t-69 208q0 103 35 204t115.5 169.5t206.5 68.5q123 0 191.5 -74zM274 542q-44 -56 -62 -134t-18 -151q0 -86 30.5 -124.5t89.5 -38.5q74 0 118 56t61.5 134.5t17.5 152.5
q0 84 -30 122.5t-90 38.5q-73 0 -117 -56zM332.5 773q-33.5 21 -49.5 56.5t-14 77.5l78 11q12 -65 73 -65q34 0 58.5 19t38.5 49l80 -18q-14 -64 -64 -107.5t-119 -43.5q-48 0 -81.5 21z" />
    <glyph glyph-name="uni01D1" unicode="&#x1d1;" horiz-adv-x="682" 
d="M592.5 634q68.5 -74 68.5 -209q0 -104 -35 -204.5t-115 -168.5t-206 -68q-123 0 -192 74t-69 208q0 103 35 204t115.5 169.5t206.5 68.5q123 0 191.5 -74zM274 542q-44 -56 -62 -134t-18 -151q0 -86 30.5 -124.5t89.5 -38.5q74 0 118 56t61.5 134.5t17.5 152.5
q0 84 -30 122.5t-90 38.5q-73 0 -117 -56zM605 875l-154 -124h-87l-121 124l58 60l117 -83l141 83z" />
    <glyph glyph-name="uni019F" unicode="&#x19f;" horiz-adv-x="681" 
d="M592.5 634.5q68.5 -73.5 68.5 -209.5q0 -39 -6 -83q-16 -111 -63.5 -192t-121 -123.5t-165.5 -42.5q-124 0 -192.5 73.5t-68.5 208.5q0 41 6 84q15 111 63 191.5t121.5 123.5t165.5 43q124 0 192.5 -73.5zM204 394h310q2 34 2 46q0 158 -125 158q-142 0 -187 -204z
M503 308h-312q-2 -19 -2 -53q0 -161 125 -161q147 0 189 214z" />
    <glyph glyph-name="Ocircumflex" unicode="&#xd4;" horiz-adv-x="682" 
d="M592.5 634q68.5 -74 68.5 -209q0 -104 -35 -204.5t-115 -168.5t-206 -68q-123 0 -192 74t-69 208q0 103 35 204t115.5 169.5t206.5 68.5q123 0 191.5 -74zM274 542q-44 -56 -62 -134t-18 -151q0 -86 30.5 -124.5t89.5 -38.5q74 0 118 56t61.5 134.5t17.5 152.5
q0 84 -30 122.5t-90 38.5q-73 0 -117 -56zM422 840l-141 -84l-47 60l155 124h86l121 -124l-56 -60z" />
    <glyph glyph-name="uni1ED0" unicode="&#x1ed0;" horiz-adv-x="682" 
d="M741 999l-168 -137l-50 49l148 164zM417 804l-141 -84l-47 60l155 124h86l121 -124l-56 -60zM592.5 634q68.5 -74 68.5 -209q0 -104 -35 -204.5t-115 -168.5t-206 -68q-123 0 -192 74t-69 208q0 103 35 204t115.5 169.5t206.5 68.5q123 0 191.5 -74zM274 542
q-44 -56 -62 -134t-18 -151q0 -86 30.5 -124.5t89.5 -38.5q74 0 118 56t61.5 134.5t17.5 152.5q0 84 -30 122.5t-90 38.5q-73 0 -117 -56z" />
    <glyph glyph-name="uni1ED8" unicode="&#x1ed8;" horiz-adv-x="682" 
d="M592.5 634q68.5 -74 68.5 -209q0 -104 -35 -204.5t-115 -168.5t-206 -68q-123 0 -192 74t-69 208q0 103 35 204t115.5 169.5t206.5 68.5q123 0 191.5 -74zM274 542q-44 -56 -62 -134t-18 -151q0 -86 30.5 -124.5t89.5 -38.5q74 0 118 56t61.5 134.5t17.5 152.5
q0 84 -30 122.5t-90 38.5q-73 0 -117 -56zM422 840l-141 -84l-47 60l155 124h86l121 -124l-56 -60zM221 -209.5q-21 20.5 -21 53.5q0 39 27 65.5t67 26.5q35 0 56 -21t21 -53q0 -39 -27.5 -65.5t-66.5 -26.5q-35 0 -56 20.5z" />
    <glyph glyph-name="uni1ED2" unicode="&#x1ed2;" horiz-adv-x="682" 
d="M331 909l-57 -47l-133 137l85 74zM417 804l-141 -84l-47 60l155 124h86l121 -124l-56 -60zM592.5 634q68.5 -74 68.5 -209q0 -104 -35 -204.5t-115 -168.5t-206 -68q-123 0 -192 74t-69 208q0 103 35 204t115.5 169.5t206.5 68.5q123 0 191.5 -74zM274 542
q-44 -56 -62 -134t-18 -151q0 -86 30.5 -124.5t89.5 -38.5q74 0 118 56t61.5 134.5t17.5 152.5q0 84 -30 122.5t-90 38.5q-73 0 -117 -56z" />
    <glyph glyph-name="uni1ED4" unicode="&#x1ed4;" horiz-adv-x="682" 
d="M550 935q38 2 58 12.5t20 32.5q0 26 -35 26q-29 0 -60 -14l-19 64q45 25 106 25q52 0 80.5 -24t28.5 -65q0 -42 -25 -67.5t-70 -34.5l-7 -44h-86zM414 804l-141 -84l-47 60l155 124h86l121 -124l-56 -60zM592.5 634q68.5 -74 68.5 -209q0 -104 -35 -204.5t-115 -168.5
t-206 -68q-123 0 -192 74t-69 208q0 103 35 204t115.5 169.5t206.5 68.5q123 0 191.5 -74zM274 542q-44 -56 -62 -134t-18 -151q0 -86 30.5 -124.5t89.5 -38.5q74 0 118 56t61.5 134.5t17.5 152.5q0 84 -30 122.5t-90 38.5q-73 0 -117 -56z" />
    <glyph glyph-name="uni1ED6" unicode="&#x1ed6;" horiz-adv-x="682" 
d="M466 938.5q-15 6.5 -35 19.5q-12 9 -20.5 13t-17.5 4q-18 0 -31.5 -10.5t-29.5 -33.5l-67 38q26 46 60.5 75t73.5 29q21 0 36.5 -7t33.5 -20q11 -9 19 -13t17 -4q17 0 30.5 10.5t29.5 32.5l68 -37q-26 -48 -60.5 -75.5t-71.5 -27.5q-20 0 -35 6.5zM418 804l-141 -84
l-47 60l155 124h86l121 -124l-56 -60zM592.5 634q68.5 -74 68.5 -209q0 -104 -35 -204.5t-115 -168.5t-206 -68q-123 0 -192 74t-69 208q0 103 35 204t115.5 169.5t206.5 68.5q123 0 191.5 -74zM274 542q-44 -56 -62 -134t-18 -151q0 -86 30.5 -124.5t89.5 -38.5
q74 0 118 56t61.5 134.5t17.5 152.5q0 84 -30 122.5t-90 38.5q-73 0 -117 -56z" />
    <glyph glyph-name="uni020C" unicode="&#x20c;" horiz-adv-x="682" 
d="M592.5 634q68.5 -74 68.5 -209q0 -104 -35 -204.5t-115 -168.5t-206 -68q-123 0 -192 74t-69 208q0 103 35 204t115.5 169.5t206.5 68.5q123 0 191.5 -74zM274 542q-44 -56 -62 -134t-18 -151q0 -86 30.5 -124.5t89.5 -38.5q74 0 118 56t61.5 134.5t17.5 152.5
q0 84 -30 122.5t-90 38.5q-73 0 -117 -56zM394 824l-79 -35l-92 176l105 50zM552 826l-78 -32l-84 173l105 48z" />
    <glyph glyph-name="Odieresis" unicode="&#xd6;" horiz-adv-x="682" 
d="M592.5 634q68.5 -74 68.5 -209q0 -104 -35 -204.5t-115 -168.5t-206 -68q-123 0 -192 74t-69 208q0 103 35 204t115.5 169.5t206.5 68.5q123 0 191.5 -74zM274 542q-44 -56 -62 -134t-18 -151q0 -86 30.5 -124.5t89.5 -38.5q74 0 118 56t61.5 134.5t17.5 152.5
q0 84 -30 122.5t-90 38.5q-73 0 -117 -56zM365.5 899.5q18.5 -18.5 18.5 -46.5q0 -34 -23.5 -58.5t-57.5 -24.5q-29 0 -48.5 19t-19.5 48q0 33 24 57t58 24q30 0 48.5 -18.5zM588.5 899.5q18.5 -18.5 18.5 -46.5q0 -34 -23 -58.5t-58 -24.5q-29 0 -48 19t-19 48
q0 33 23.5 57t57.5 24q30 0 48.5 -18.5z" />
    <glyph glyph-name="uni022A" unicode="&#x22a;" horiz-adv-x="682" 
d="M284 931l13 100h294l-14 -100h-293zM362.5 874.5q18.5 -18.5 18.5 -46.5q0 -34 -23.5 -58.5t-57.5 -24.5q-32 0 -51.5 23t-15.5 55q5 30 28 50t53 20t48.5 -18.5zM585.5 874.5q18.5 -18.5 18.5 -46.5q0 -34 -23 -58.5t-58 -24.5q-29 0 -48 19t-19 48q0 33 23.5 57
t57.5 24q30 0 48.5 -18.5zM592.5 634q68.5 -74 68.5 -209q0 -104 -35 -204.5t-115 -168.5t-206 -68q-123 0 -192 74t-69 208q0 103 35 204t115.5 169.5t206.5 68.5q123 0 191.5 -74zM274 542q-44 -56 -62 -134t-18 -151q0 -86 30.5 -124.5t89.5 -38.5q74 0 118 56
t61.5 134.5t17.5 152.5q0 84 -30 122.5t-90 38.5q-73 0 -117 -56z" />
    <glyph glyph-name="uni022E" unicode="&#x22e;" horiz-adv-x="682" 
d="M592.5 634q68.5 -74 68.5 -209q0 -104 -35 -204.5t-115 -168.5t-206 -68q-123 0 -192 74t-69 208q0 103 35 204t115.5 169.5t206.5 68.5q123 0 191.5 -74zM274 542q-44 -56 -62 -134t-18 -151q0 -86 30.5 -124.5t89.5 -38.5q74 0 118 56t61.5 134.5t17.5 152.5
q0 84 -30 122.5t-90 38.5q-73 0 -117 -56zM492 908q21 -21 21 -54q0 -38 -27.5 -64.5t-67.5 -26.5q-35 0 -56 21t-21 54q0 38 27.5 64.5t67.5 26.5q35 0 56 -21z" />
    <glyph glyph-name="uni0230" unicode="&#x230;" horiz-adv-x="682" 
d="M284 932l14 100h293l-13 -100h-294zM482 882q21 -21 21 -54q0 -38 -27.5 -64.5t-67.5 -26.5q-35 0 -56 21t-21 54q0 38 27.5 64.5t67.5 26.5q35 0 56 -21zM592.5 634q68.5 -74 68.5 -209q0 -104 -35 -204.5t-115 -168.5t-206 -68q-123 0 -192 74t-69 208q0 103 35 204
t115.5 169.5t206.5 68.5q123 0 191.5 -74zM274 542q-44 -56 -62 -134t-18 -151q0 -86 30.5 -124.5t89.5 -38.5q74 0 118 56t61.5 134.5t17.5 152.5q0 84 -30 122.5t-90 38.5q-73 0 -117 -56z" />
    <glyph glyph-name="uni1ECC" unicode="&#x1ecc;" horiz-adv-x="682" 
d="M592.5 634q68.5 -74 68.5 -209q0 -104 -35 -204.5t-115 -168.5t-206 -68q-123 0 -192 74t-69 208q0 103 35 204t115.5 169.5t206.5 68.5q123 0 191.5 -74zM274 542q-44 -56 -62 -134t-18 -151q0 -86 30.5 -124.5t89.5 -38.5q74 0 118 56t61.5 134.5t17.5 152.5
q0 84 -30 122.5t-90 38.5q-73 0 -117 -56zM221 -209.5q-21 20.5 -21 53.5q0 39 27 65.5t67 26.5q35 0 56 -21t21 -53q0 -39 -27.5 -65.5t-66.5 -26.5q-35 0 -56 20.5z" />
    <glyph glyph-name="Ograve" unicode="&#xd2;" horiz-adv-x="682" 
d="M592.5 634q68.5 -74 68.5 -209q0 -104 -35 -204.5t-115 -168.5t-206 -68q-123 0 -192 74t-69 208q0 103 35 204t115.5 169.5t206.5 68.5q123 0 191.5 -74zM274 542q-44 -56 -62 -134t-18 -151q0 -86 30.5 -124.5t89.5 -38.5q74 0 118 56t61.5 134.5t17.5 152.5
q0 84 -30 122.5t-90 38.5q-73 0 -117 -56zM559 822l-41 -73l-226 89l61 108z" />
    <glyph glyph-name="uni1ECE" unicode="&#x1ece;" horiz-adv-x="682" 
d="M592.5 634q68.5 -74 68.5 -209q0 -104 -35 -204.5t-115 -168.5t-206 -68q-123 0 -192 74t-69 208q0 103 35 204t115.5 169.5t206.5 68.5q123 0 191.5 -74zM274 542q-44 -56 -62 -134t-18 -151q0 -86 30.5 -124.5t89.5 -38.5q74 0 118 56t61.5 134.5t17.5 152.5
q0 84 -30 122.5t-90 38.5q-73 0 -117 -56zM380 852q38 2 58 12.5t20 32.5q0 26 -35 26q-29 0 -60 -14l-19 64q45 25 106 25q52 0 80.5 -24t28.5 -65q0 -42 -25 -67.5t-70 -34.5l-7 -44h-86z" />
    <glyph glyph-name="Ohorn" unicode="&#x1a0;" horiz-adv-x="712" 
d="M721.5 616q-29.5 -37 -86.5 -48q26 -61 26 -143q0 -104 -35 -204.5t-115 -168.5t-206 -68q-123 0 -192 74t-69 208q0 103 35 204t115.5 169.5t206.5 68.5q121 0 190 -72q33 4 47.5 23t14.5 54q0 19 -6 47l95 11q9 -25 9 -57q0 -61 -29.5 -98zM432 150q44 56 61.5 134.5
t17.5 152.5q0 84 -30 122.5t-90 38.5q-73 0 -117 -56t-62 -134t-18 -151q0 -86 30.5 -124.5t89.5 -38.5q74 0 118 56z" />
    <glyph glyph-name="uni1EDA" unicode="&#x1eda;" horiz-adv-x="712" 
d="M324 749l-34 72l220 125l50 -109zM721.5 616q-29.5 -37 -86.5 -48q26 -61 26 -143q0 -104 -35 -204.5t-115 -168.5t-206 -68q-123 0 -192 74t-69 208q0 103 35 204t115.5 169.5t206.5 68.5q121 0 190 -72q33 4 47.5 23t14.5 54q0 19 -6 47l95 11q9 -25 9 -57
q0 -61 -29.5 -98zM432 150q44 56 61.5 134.5t17.5 152.5q0 84 -30 122.5t-90 38.5q-73 0 -117 -56t-62 -134t-18 -151q0 -86 30.5 -124.5t89.5 -38.5q74 0 118 56z" />
    <glyph glyph-name="uni1EE2" unicode="&#x1ee2;" horiz-adv-x="712" 
d="M721.5 616q-29.5 -37 -86.5 -48q26 -61 26 -143q0 -104 -35 -204.5t-115 -168.5t-206 -68q-123 0 -192 74t-69 208q0 103 35 204t115.5 169.5t206.5 68.5q121 0 190 -72q33 4 47.5 23t14.5 54q0 19 -6 47l95 11q9 -25 9 -57q0 -61 -29.5 -98zM432 150q44 56 61.5 134.5
t17.5 152.5q0 84 -30 122.5t-90 38.5q-73 0 -117 -56t-62 -134t-18 -151q0 -86 30.5 -124.5t89.5 -38.5q74 0 118 56zM350 -85q21 -21 21 -53q0 -39 -27.5 -65.5t-66.5 -26.5q-35 0 -56 20.5t-21 53.5q0 39 27 65.5t67 26.5q35 0 56 -21z" />
    <glyph glyph-name="uni1EDC" unicode="&#x1edc;" horiz-adv-x="712" 
d="M518 749l-226 89l61 108l206 -124zM721.5 616q-29.5 -37 -86.5 -48q26 -61 26 -143q0 -104 -35 -204.5t-115 -168.5t-206 -68q-123 0 -192 74t-69 208q0 103 35 204t115.5 169.5t206.5 68.5q121 0 190 -72q33 4 47.5 23t14.5 54q0 19 -6 47l95 11q9 -25 9 -57
q0 -61 -29.5 -98zM432 150q44 56 61.5 134.5t17.5 152.5q0 84 -30 122.5t-90 38.5q-73 0 -117 -56t-62 -134t-18 -151q0 -86 30.5 -124.5t89.5 -38.5q74 0 118 56z" />
    <glyph glyph-name="uni1EDE" unicode="&#x1ede;" horiz-adv-x="712" 
d="M363 909l-19 64q45 25 106 25q52 0 80.5 -24t28.5 -65q0 -42 -25 -67.5t-70 -34.5l-7 -44h-86l9 89q38 2 58 12.5t20 32.5q0 26 -35 26q-29 0 -60 -14zM721.5 616q-29.5 -37 -86.5 -48q26 -61 26 -143q0 -104 -35 -204.5t-115 -168.5t-206 -68q-123 0 -192 74t-69 208
q0 103 35 204t115.5 169.5t206.5 68.5q121 0 190 -72q33 4 47.5 23t14.5 54q0 19 -6 47l95 11q9 -25 9 -57q0 -61 -29.5 -98zM432 150q44 56 61.5 134.5t17.5 152.5q0 84 -30 122.5t-90 38.5q-73 0 -117 -56t-62 -134t-18 -151q0 -86 30.5 -124.5t89.5 -38.5q74 0 118 56z
" />
    <glyph glyph-name="uni1EE0" unicode="&#x1ee0;" horiz-adv-x="712" 
d="M336 800.5q-14 -11.5 -30 -35.5l-67 40q26 49 60.5 79t74.5 30q22 0 37.5 -7.5t32.5 -20.5q12 -9 20 -13.5t17 -4.5q16 0 30 11t30 34l69 -39q-27 -50 -61.5 -79t-71.5 -29q-20 0 -36 7.5t-34 20.5q-13 9 -21.5 13.5t-17.5 4.5q-18 0 -32 -11.5zM721.5 616
q-29.5 -37 -86.5 -48q26 -61 26 -143q0 -104 -35 -204.5t-115 -168.5t-206 -68q-123 0 -192 74t-69 208q0 103 35 204t115.5 169.5t206.5 68.5q121 0 190 -72q33 4 47.5 23t14.5 54q0 19 -6 47l95 11q9 -25 9 -57q0 -61 -29.5 -98zM432 150q44 56 61.5 134.5t17.5 152.5
q0 84 -30 122.5t-90 38.5q-73 0 -117 -56t-62 -134t-18 -151q0 -86 30.5 -124.5t89.5 -38.5q74 0 118 56z" />
    <glyph glyph-name="Ohungarumlaut" unicode="&#x150;" horiz-adv-x="682" 
d="M592.5 634q68.5 -74 68.5 -209q0 -104 -35 -204.5t-115 -168.5t-206 -68q-123 0 -192 74t-69 208q0 103 35 204t115.5 169.5t206.5 68.5q123 0 191.5 -74zM274 542q-44 -56 -62 -134t-18 -151q0 -86 30.5 -124.5t89.5 -38.5q74 0 118 56t61.5 134.5t17.5 152.5
q0 84 -30 122.5t-90 38.5q-73 0 -117 -56zM488 931l-131 -173l-72 32l111 189zM655 929l-140 -176l-71 35l119 191z" />
    <glyph glyph-name="uni01A2" unicode="&#x1a2;" horiz-adv-x="938" 
d="M861 670.5q44 -38.5 44 -109.5q0 -18 -3 -38l-102 -731h-145l104 737q2 16 2 22q0 26 -12 39.5t-40 13.5q-23 0 -42 -5t-40 -16q34 -66 34 -158q0 -104 -35 -204.5t-115 -168.5t-206 -68q-123 0 -192 74t-69 208q0 103 35 204t115.5 169.5t206.5 68.5q100 0 166 -52
q74 53 168 53q82 0 126 -38.5zM432 150q44 56 61.5 134.5t17.5 152.5q0 84 -30 122.5t-90 38.5q-73 0 -117 -56t-62 -134t-18 -151q0 -86 30.5 -124.5t89.5 -38.5q74 0 118 56z" />
    <glyph glyph-name="uni020E" unicode="&#x20e;" horiz-adv-x="682" 
d="M592.5 634q68.5 -74 68.5 -209q0 -104 -35 -204.5t-115 -168.5t-206 -68q-123 0 -192 74t-69 208q0 103 35 204t115.5 169.5t206.5 68.5q123 0 191.5 -74zM274 542q-44 -56 -62 -134t-18 -151q0 -86 30.5 -124.5t89.5 -38.5q74 0 118 56t61.5 134.5t17.5 152.5
q0 84 -30 122.5t-90 38.5q-73 0 -117 -56zM249 784q16 71 66 115.5t121 44.5q73 0 111.5 -46.5t35.5 -118.5l-82 -11q-9 76 -74 76q-67 0 -99 -79z" />
    <glyph glyph-name="Omacron" unicode="&#x14c;" horiz-adv-x="682" 
d="M592.5 634q68.5 -74 68.5 -209q0 -104 -35 -204.5t-115 -168.5t-206 -68q-123 0 -192 74t-69 208q0 103 35 204t115.5 169.5t206.5 68.5q123 0 191.5 -74zM274 542q-44 -56 -62 -134t-18 -151q0 -86 30.5 -124.5t89.5 -38.5q74 0 118 56t61.5 134.5t17.5 152.5
q0 84 -30 122.5t-90 38.5q-73 0 -117 -56zM269 784l14 100h293l-13 -100h-294z" />
    <glyph glyph-name="uni1E52" unicode="&#x1e52;" horiz-adv-x="682" 
d="M567 979l-236 -88l-34 72l220 125zM269 760l13 100h294l-14 -100h-293zM592.5 634q68.5 -74 68.5 -209q0 -104 -35 -204.5t-115 -168.5t-206 -68q-123 0 -192 74t-69 208q0 103 35 204t115.5 169.5t206.5 68.5q123 0 191.5 -74zM274 542q-44 -56 -62 -134t-18 -151
q0 -86 30.5 -124.5t89.5 -38.5q74 0 118 56t61.5 134.5t17.5 152.5q0 84 -30 122.5t-90 38.5q-73 0 -117 -56z" />
    <glyph glyph-name="uni1E50" unicode="&#x1e50;" horiz-adv-x="682" 
d="M574 964l-41 -73l-226 89l61 108zM267 760l13 100h294l-14 -100h-293zM592.5 634q68.5 -74 68.5 -209q0 -104 -35 -204.5t-115 -168.5t-206 -68q-123 0 -192 74t-69 208q0 103 35 204t115.5 169.5t206.5 68.5q123 0 191.5 -74zM274 542q-44 -56 -62 -134t-18 -151
q0 -86 30.5 -124.5t89.5 -38.5q74 0 118 56t61.5 134.5t17.5 152.5q0 84 -30 122.5t-90 38.5q-73 0 -117 -56z" />
    <glyph glyph-name="uni01EA" unicode="&#x1ea;" horiz-adv-x="682" 
d="M275 -117q0 -16 11.5 -25t33.5 -9q25 0 62 8l-20 -92q-37 -7 -66 -7q-58 0 -93 28t-35 74q0 77 80 129q-97 16 -150.5 88t-53.5 189q0 103 35 204t115.5 169.5t206.5 68.5q123 0 191.5 -74t68.5 -209q0 -89 -25.5 -177t-83.5 -157t-149 -94q-128 -49 -128 -114z
M224.5 132.5q30.5 -38.5 89.5 -38.5q74 0 118 56t61.5 134.5t17.5 152.5q0 84 -30 122.5t-90 38.5q-73 0 -117 -56t-62 -134t-18 -151q0 -86 30.5 -124.5z" />
    <glyph glyph-name="uni01EC" unicode="&#x1ec;" horiz-adv-x="682" 
d="M563 784h-294l14 100h293zM275 -117q0 -16 11.5 -25t33.5 -9q25 0 62 8l-20 -92q-37 -7 -66 -7q-58 0 -93 28t-35 74q0 77 80 129q-97 16 -150.5 88t-53.5 189q0 103 35 204t115.5 169.5t206.5 68.5q123 0 191.5 -74t68.5 -209q0 -89 -25.5 -177t-83.5 -157t-149 -94
q-128 -49 -128 -114zM224.5 132.5q30.5 -38.5 89.5 -38.5q74 0 118 56t61.5 134.5t17.5 152.5q0 84 -30 122.5t-90 38.5q-73 0 -117 -56t-62 -134t-18 -151q0 -86 30.5 -124.5z" />
    <glyph glyph-name="uni0186" unicode="&#x186;" horiz-adv-x="562" 
d="M472.5 633.5q67.5 -74.5 67.5 -210.5q0 -119 -42.5 -219.5t-123.5 -160t-191 -59.5q-119 0 -201 88l75 83q32 -27 61 -41t68 -14q69 0 114.5 48t67.5 122.5t22 155.5q0 171 -119 171q-37 0 -71.5 -12.5t-71.5 -38.5l-61 89q49 37 102 55t120 18q116 0 183.5 -74.5z" />
    <glyph glyph-name="Oslash" unicode="&#xd8;" horiz-adv-x="682" 
d="M634.5 569q26.5 -61 26.5 -144q0 -104 -35 -204.5t-115 -168.5t-206 -68q-21 0 -55 4l-53 -121l-108 30l59 131q-51 35 -77.5 95.5t-26.5 142.5q0 103 35 204t115.5 169.5t206.5 68.5q30 0 53 -4l54 122l108 -30l-59 -131q51 -35 77.5 -96zM273 541.5q-45 -56.5 -63 -136
t-18 -154.5q0 -83 26 -120l203 465q-18 2 -30 2q-73 0 -118 -56.5zM432.5 150.5q44.5 56.5 62.5 136.5t18 158q0 82 -26 117l-203 -466q20 -2 30 -2q74 0 118.5 56.5z" />
    <glyph glyph-name="Oslashacute" unicode="&#x1fe;" horiz-adv-x="682" 
d="M634.5 569q26.5 -61 26.5 -144q0 -104 -35 -204.5t-115 -168.5t-206 -68q-21 0 -55 4l-53 -121l-108 30l59 131q-51 35 -77.5 95.5t-26.5 142.5q0 103 35 204t115.5 169.5t206.5 68.5q30 0 53 -4l54 122l108 -30l-59 -131q51 -35 77.5 -96zM273 541.5q-45 -56.5 -63 -136
t-18 -154.5q0 -83 26 -120l203 465q-18 2 -30 2q-73 0 -118 -56.5zM432.5 150.5q44.5 56.5 62.5 136.5t18 158q0 82 -26 117l-203 -466q20 -2 30 -2q74 0 118.5 56.5zM560 866l-236 -88l-34 72l220 125z" />
    <glyph glyph-name="Otilde" unicode="&#xd5;" horiz-adv-x="682" 
d="M592.5 634q68.5 -74 68.5 -209q0 -104 -35 -204.5t-115 -168.5t-206 -68q-123 0 -192 74t-69 208q0 103 35 204t115.5 169.5t206.5 68.5q123 0 191.5 -74zM274 542q-44 -56 -62 -134t-18 -151q0 -86 30.5 -124.5t89.5 -38.5q74 0 118 56t61.5 134.5t17.5 152.5
q0 84 -30 122.5t-90 38.5q-73 0 -117 -56zM441 773.5q-16 7.5 -34 20.5q-13 9 -21.5 13.5t-17.5 4.5q-18 0 -32 -11.5t-30 -35.5l-67 40q26 49 60.5 79t74.5 30q22 0 37.5 -7.5t32.5 -20.5q12 -9 20 -13.5t17 -4.5q16 0 30 11t30 34l69 -39q-27 -50 -61.5 -79t-71.5 -29
q-20 0 -36 7.5z" />
    <glyph glyph-name="uni1E4C" unicode="&#x1e4c;" horiz-adv-x="682" 
d="M566 1009l-236 -88l-34 72l220 125zM437 763.5q-16 7.5 -34 20.5q-13 9 -21.5 13.5t-17.5 4.5q-18 0 -31.5 -11t-29.5 -36l-68 40q26 49 60.5 79t74.5 30q22 0 37 -7t34 -21q12 -9 20 -13.5t17 -4.5q16 0 29.5 11t30.5 34l68 -39q-26 -50 -61 -79t-72 -29q-20 0 -36 7.5z
M592.5 634q68.5 -74 68.5 -209q0 -104 -35 -204.5t-115 -168.5t-206 -68q-123 0 -192 74t-69 208q0 103 35 204t115.5 169.5t206.5 68.5q123 0 191.5 -74zM274 542q-44 -56 -62 -134t-18 -151q0 -86 30.5 -124.5t89.5 -38.5q74 0 118 56t61.5 134.5t17.5 152.5
q0 84 -30 122.5t-90 38.5q-73 0 -117 -56z" />
    <glyph glyph-name="uni022C" unicode="&#x22c;" horiz-adv-x="682" 
d="M281 935l14 100h293l-13 -100h-294zM434 763.5q-16 7.5 -34 20.5q-13 9 -21.5 13.5t-17.5 4.5q-18 0 -31.5 -11t-29.5 -36l-68 40q26 49 60.5 79t74.5 30q22 0 37 -7t34 -21q12 -9 20 -13.5t17 -4.5q16 0 29.5 11t30.5 34l68 -39q-26 -50 -61 -79t-72 -29q-20 0 -36 7.5z
M592.5 634q68.5 -74 68.5 -209q0 -104 -35 -204.5t-115 -168.5t-206 -68q-123 0 -192 74t-69 208q0 103 35 204t115.5 169.5t206.5 68.5q123 0 191.5 -74zM274 542q-44 -56 -62 -134t-18 -151q0 -86 30.5 -124.5t89.5 -38.5q74 0 118 56t61.5 134.5t17.5 152.5
q0 84 -30 122.5t-90 38.5q-73 0 -117 -56z" />
    <glyph glyph-name="OE" unicode="&#x152;" horiz-adv-x="896" 
d="M878 585h-283q43 -68 43 -174v-6h183l-14 -106h-180q-24 -117 -94 -191h296l-15 -108h-433q-42 -16 -92 -16q-114 0 -179.5 73.5t-65.5 207.5q0 101 35 203t111.5 171t194.5 69q51 0 89 -16h434zM303 94q69 0 111 54t59.5 134t17.5 165q0 151 -111 151q-68 0 -110 -54
t-59.5 -133.5t-17.5 -160.5q0 -156 110 -156z" />
    <glyph glyph-name="P" unicode="P" horiz-adv-x="587" 
d="M530 643.5q66 -48.5 66 -142.5q0 -68 -30.5 -128.5t-98.5 -98.5t-174 -38h-79l-33 -236h-145l97 692h210q121 0 187 -48.5zM410.5 388.5q34.5 44.5 34.5 107.5q0 47 -29.5 68.5t-86.5 21.5h-66l-34 -242h64q83 0 117.5 44.5z" />
    <glyph glyph-name="uni1E54" unicode="&#x1e54;" horiz-adv-x="587" 
d="M530 643.5q66 -48.5 66 -142.5q0 -68 -30.5 -128.5t-98.5 -98.5t-174 -38h-79l-33 -236h-145l97 692h210q121 0 187 -48.5zM410.5 388.5q34.5 44.5 34.5 107.5q0 47 -29.5 68.5t-86.5 21.5h-66l-34 -242h64q83 0 117.5 44.5zM511 837l-236 -88l-34 72l220 125z" />
    <glyph glyph-name="uni1E56" unicode="&#x1e56;" horiz-adv-x="587" 
d="M530 643.5q66 -48.5 66 -142.5q0 -68 -30.5 -128.5t-98.5 -98.5t-174 -38h-79l-33 -236h-145l97 692h210q121 0 187 -48.5zM410.5 388.5q34.5 44.5 34.5 107.5q0 47 -29.5 68.5t-86.5 21.5h-66l-34 -242h64q83 0 117.5 44.5zM443 908q21 -21 21 -54q0 -38 -27.5 -64.5
t-67.5 -26.5q-35 0 -56 21t-21 54q0 38 27.5 64.5t67.5 26.5q35 0 56 -21z" />
    <glyph glyph-name="uni01A4" unicode="&#x1a4;" horiz-adv-x="714" 
d="M657 643.5q66 -48.5 66 -142.5q0 -68 -30.5 -128.5t-98.5 -98.5t-174 -38h-79l-33 -236h-145l82 585h-27q-56 0 -56 -60q0 -21 8 -51l-99 -40q-12 25 -19 47.5t-7 48.5q0 74 52 118t138 44h25h210q121 0 187 -48.5zM538 388.5q34 44.5 34 107.5q0 47 -29 68.5t-87 21.5
h-66l-34 -242h64q84 0 118 44.5z" />
    <glyph glyph-name="Thorn" unicode="&#xde;" horiz-adv-x="587" 
d="M513.5 532.5q65.5 -48.5 65.5 -147.5q0 -66 -29 -126.5t-97 -101t-178 -40.5h-78l-16 -117h-145l97 692h145l-16 -111h64q122 0 187.5 -48.5zM393 271.5q35 46.5 35 111.5q0 48 -29 70t-86 22h-66l-35 -250h63q83 0 118 46.5z" />
    <glyph glyph-name="Q" unicode="Q" horiz-adv-x="681" 
d="M613.5 197q-47.5 -108 -149.5 -156q63 -2 106 -18t80 -46l-102 -114q-49 61 -102.5 91t-140.5 30q-123 0 -192 74t-69 208q0 103 35 204t115.5 169.5t206.5 68.5q123 0 191.5 -74t68.5 -209q0 -120 -47.5 -228zM224.5 131.5q30.5 -37.5 89.5 -37.5q74 0 118 56.5
t61.5 136.5t17.5 158q0 79 -30 116t-90 37q-73 0 -117.5 -56.5t-62 -135.5t-17.5 -155q0 -82 30.5 -119.5z" />
    <glyph glyph-name="uni024A" unicode="&#x24a;" horiz-adv-x="671" 
d="M703 -180q-60 -40 -137 -40t-121.5 38t-44.5 110q0 16 3 36l5 36l7 43q-62 -59 -151 -59q-102 0 -162 71.5t-60 199.5q0 114 39.5 218.5t113 169.5t168.5 65q88 0 145 -62l14 46h128l-97 -692l-6 -49q-1 -6 -1 -17q0 -45 44 -45q21 0 37 5.5t37 16.5zM221 128.5
q29 -36.5 83 -36.5q69 0 125 52l57 407q-22 23 -47 35t-59 12q-62 0 -104.5 -53t-63 -133t-20.5 -163q0 -84 29 -120.5z" />
    <glyph glyph-name="R" unicode="R" horiz-adv-x="605" 
d="M557.5 386.5q-36.5 -56.5 -125.5 -91.5l132 -295h-158l-111 271h-77l-37 -271h-145l97 692h211q125 0 187.5 -43.5t62.5 -133.5q0 -72 -36.5 -128.5zM233 375h78q71 0 101.5 39.5t30.5 92.5q0 42 -27.5 61t-85.5 19h-68z" />
    <glyph glyph-name="Racute" unicode="&#x154;" horiz-adv-x="605" 
d="M557.5 386.5q-36.5 -56.5 -125.5 -91.5l132 -295h-158l-111 271h-77l-37 -271h-145l97 692h211q125 0 187.5 -43.5t62.5 -133.5q0 -72 -36.5 -128.5zM233 375h78q71 0 101.5 39.5t30.5 92.5q0 42 -27.5 61t-85.5 19h-68zM518 837l-236 -88l-34 72l220 125z" />
    <glyph glyph-name="Rcaron" unicode="&#x158;" horiz-adv-x="605" 
d="M557.5 386.5q-36.5 -56.5 -125.5 -91.5l132 -295h-158l-111 271h-77l-37 -271h-145l97 692h211q125 0 187.5 -43.5t62.5 -133.5q0 -72 -36.5 -128.5zM233 375h78q71 0 101.5 39.5t30.5 92.5q0 42 -27.5 61t-85.5 19h-68zM563 875l-154 -124h-87l-121 124l58 60l117 -83
l141 83z" />
    <glyph glyph-name="Rcommaaccent" unicode="&#x156;" horiz-adv-x="605" 
d="M557.5 386.5q-36.5 -56.5 -125.5 -91.5l132 -295h-158l-111 271h-77l-37 -271h-145l97 692h211q125 0 187.5 -43.5t62.5 -133.5q0 -72 -36.5 -128.5zM233 375h78q71 0 101.5 39.5t30.5 92.5q0 42 -27.5 61t-85.5 19h-68zM305.5 -88.5q18.5 -18.5 18.5 -46.5
q0 -21 -8 -40.5t-29 -52.5l-57 -90h-72l46 117q-25 20 -25 51q0 35 22.5 57.5t55.5 22.5q30 0 48.5 -18.5z" />
    <glyph glyph-name="uni0210" unicode="&#x210;" horiz-adv-x="605" 
d="M557.5 386.5q-36.5 -56.5 -125.5 -91.5l132 -295h-158l-111 271h-77l-37 -271h-145l97 692h211q125 0 187.5 -43.5t62.5 -133.5q0 -72 -36.5 -128.5zM233 375h78q71 0 101.5 39.5t30.5 92.5q0 42 -27.5 61t-85.5 19h-68zM352 824l-79 -35l-92 176l105 50zM510 826
l-78 -32l-84 173l105 48z" />
    <glyph glyph-name="uni1E5A" unicode="&#x1e5a;" horiz-adv-x="605" 
d="M557.5 386.5q-36.5 -56.5 -125.5 -91.5l132 -295h-158l-111 271h-77l-37 -271h-145l97 692h211q125 0 187.5 -43.5t62.5 -133.5q0 -72 -36.5 -128.5zM233 375h78q71 0 101.5 39.5t30.5 92.5q0 42 -27.5 61t-85.5 19h-68zM188 -209.5q-21 20.5 -21 53.5q0 39 27 65.5
t67 26.5q35 0 56 -21t21 -53q0 -39 -27.5 -65.5t-66.5 -26.5q-35 0 -56 20.5z" />
    <glyph glyph-name="uni0212" unicode="&#x212;" horiz-adv-x="605" 
d="M557.5 386.5q-36.5 -56.5 -125.5 -91.5l132 -295h-158l-111 271h-77l-37 -271h-145l97 692h211q125 0 187.5 -43.5t62.5 -133.5q0 -72 -36.5 -128.5zM233 375h78q71 0 101.5 39.5t30.5 92.5q0 42 -27.5 61t-85.5 19h-68zM207 784q16 71 66 115.5t121 44.5
q73 0 111.5 -46.5t35.5 -118.5l-82 -11q-9 76 -74 76q-67 0 -99 -79z" />
    <glyph glyph-name="uni024C" unicode="&#x24c;" horiz-adv-x="620" 
d="M572 386q-36 -56 -126 -91l133 -295h-159l-110 271h-77l-38 -271h-145l38 271h-71l14 104h72l44 317h212q124 0 186.5 -44t62.5 -133q0 -73 -36 -129zM277 587l-30 -212h78q71 0 102 39.5t31 92.5q0 42 -28 61t-86 19h-67z" />
    <glyph glyph-name="uni2C64" unicode="&#x2c64;" horiz-adv-x="605" 
d="M557.5 386.5q-36.5 -56.5 -125.5 -91.5l132 -295h-158l-111 271h-77l-37 -271h-1l-6 -49q-1 -6 -1 -17q0 -45 44 -45q21 0 37 5.5t37 16.5l39 -91q-60 -40 -137 -40t-121.5 38t-44.5 110q0 16 3 36l5 36h1l97 692h211q125 0 187.5 -43.5t62.5 -133.5q0 -72 -36.5 -128.5z
M233 375h78q71 0 101.5 39.5t30.5 92.5q0 42 -27.5 61t-85.5 19h-68z" />
    <glyph glyph-name="S" unicode="S" horiz-adv-x="556" 
d="M559 619l-80 -79q-31 30 -65 44t-75 14q-50 0 -82 -23t-32 -63q0 -22 10.5 -36.5t35.5 -27.5t73 -30q87 -29 132.5 -73.5t45.5 -121.5q0 -57 -28.5 -111.5t-93.5 -91t-168 -36.5q-81 0 -142 27t-102 72l85 84q66 -69 160 -69q60 0 98 27.5t38 75.5q0 37 -24.5 60
t-88.5 45q-95 30 -139 76t-44 116q0 51 28.5 99.5t88 79.5t147.5 31q138 0 222 -89z" />
    <glyph glyph-name="Sacute" unicode="&#x15a;" horiz-adv-x="556" 
d="M559 619l-80 -79q-31 30 -65 44t-75 14q-50 0 -82 -23t-32 -63q0 -22 10.5 -36.5t35.5 -27.5t73 -30q87 -29 132.5 -73.5t45.5 -121.5q0 -57 -28.5 -111.5t-93.5 -91t-168 -36.5q-81 0 -142 27t-102 72l85 84q66 -69 160 -69q60 0 98 27.5t38 75.5q0 37 -24.5 60
t-88.5 45q-95 30 -139 76t-44 116q0 51 28.5 99.5t88 79.5t147.5 31q138 0 222 -89zM503 837l-236 -88l-34 72l220 125z" />
    <glyph glyph-name="uniA78B" unicode="&#xa78b;" horiz-adv-x="233" 
d="M108 692h138l-70 -355h-100z" />
    <glyph glyph-name="Scaron" unicode="&#x160;" horiz-adv-x="556" 
d="M559 619l-80 -79q-31 30 -65 44t-75 14q-50 0 -82 -23t-32 -63q0 -22 10.5 -36.5t35.5 -27.5t73 -30q87 -29 132.5 -73.5t45.5 -121.5q0 -57 -28.5 -111.5t-93.5 -91t-168 -36.5q-81 0 -142 27t-102 72l85 84q66 -69 160 -69q60 0 98 27.5t38 75.5q0 37 -24.5 60
t-88.5 45q-95 30 -139 76t-44 116q0 51 28.5 99.5t88 79.5t147.5 31q138 0 222 -89zM548 875l-154 -124h-87l-121 124l58 60l117 -83l141 83z" />
    <glyph glyph-name="Scedilla" unicode="&#x15e;" horiz-adv-x="556" 
d="M476.5 344.5q45.5 -44.5 45.5 -121.5q0 -52 -24 -103t-79 -88.5t-141 -45.5l-6 -36q44 -4 66.5 -27t22.5 -60q0 -29 -16 -56.5t-50.5 -45.5t-87.5 -18q-32 0 -58.5 8.5t-44.5 22.5l41 65q27 -16 59 -16q25 0 39.5 9.5t14.5 27.5q0 17 -19 24t-66 7l23 95q-131 11 -208 97
l85 84q66 -69 160 -69q60 0 98 27.5t38 75.5q0 37 -24.5 60t-88.5 45q-95 30 -139 76t-44 116q0 51 28.5 99.5t88 79.5t147.5 31q138 0 222 -89l-80 -79q-31 30 -65 44t-75 14q-50 0 -82 -23t-32 -63q0 -22 10.5 -36.5t35.5 -27.5t73 -30q87 -29 132.5 -73.5z" />
    <glyph glyph-name="Scircumflex" unicode="&#x15c;" horiz-adv-x="556" 
d="M559 619l-80 -79q-31 30 -65 44t-75 14q-50 0 -82 -23t-32 -63q0 -22 10.5 -36.5t35.5 -27.5t73 -30q87 -29 132.5 -73.5t45.5 -121.5q0 -57 -28.5 -111.5t-93.5 -91t-168 -36.5q-81 0 -142 27t-102 72l85 84q66 -69 160 -69q60 0 98 27.5t38 75.5q0 37 -24.5 60
t-88.5 45q-95 30 -139 76t-44 116q0 51 28.5 99.5t88 79.5t147.5 31q138 0 222 -89zM365 840l-141 -84l-47 60l155 124h86l121 -124l-56 -60z" />
    <glyph glyph-name="Scommaaccent" unicode="&#x218;" horiz-adv-x="556" 
d="M559 619l-80 -79q-31 30 -65 44t-75 14q-50 0 -82 -23t-32 -63q0 -22 10.5 -36.5t35.5 -27.5t73 -30q87 -29 132.5 -73.5t45.5 -121.5q0 -57 -28.5 -111.5t-93.5 -91t-168 -36.5q-81 0 -142 27t-102 72l85 84q66 -69 160 -69q60 0 98 27.5t38 75.5q0 37 -24.5 60
t-88.5 45q-95 30 -139 76t-44 116q0 51 28.5 99.5t88 79.5t147.5 31q138 0 222 -89zM273.5 -88.5q18.5 -18.5 18.5 -46.5q0 -21 -8 -40.5t-29 -52.5l-57 -90h-72l46 117q-25 20 -25 51q0 35 22.5 57.5t55.5 22.5q30 0 48.5 -18.5z" />
    <glyph glyph-name="uni1E60" unicode="&#x1e60;" horiz-adv-x="556" 
d="M559 619l-80 -79q-31 30 -65 44t-75 14q-50 0 -82 -23t-32 -63q0 -22 10.5 -36.5t35.5 -27.5t73 -30q87 -29 132.5 -73.5t45.5 -121.5q0 -57 -28.5 -111.5t-93.5 -91t-168 -36.5q-81 0 -142 27t-102 72l85 84q66 -69 160 -69q60 0 98 27.5t38 75.5q0 37 -24.5 60
t-88.5 45q-95 30 -139 76t-44 116q0 51 28.5 99.5t88 79.5t147.5 31q138 0 222 -89zM435 908q21 -21 21 -54q0 -38 -27.5 -64.5t-67.5 -26.5q-35 0 -56 21t-21 54q0 38 27.5 64.5t67.5 26.5q35 0 56 -21z" />
    <glyph glyph-name="uni1E62" unicode="&#x1e62;" horiz-adv-x="556" 
d="M559 619l-80 -79q-31 30 -65 44t-75 14q-50 0 -82 -23t-32 -63q0 -22 10.5 -36.5t35.5 -27.5t73 -30q87 -29 132.5 -73.5t45.5 -121.5q0 -57 -28.5 -111.5t-93.5 -91t-168 -36.5q-81 0 -142 27t-102 72l85 84q66 -69 160 -69q60 0 98 27.5t38 75.5q0 37 -24.5 60
t-88.5 45q-95 30 -139 76t-44 116q0 51 28.5 99.5t88 79.5t147.5 31q138 0 222 -89zM156 -209.5q-21 20.5 -21 53.5q0 39 27 65.5t67 26.5q35 0 56 -21t21 -53q0 -39 -27.5 -65.5t-66.5 -26.5q-35 0 -56 20.5z" />
    <glyph glyph-name="uni1E9E" unicode="&#x1e9e;" horiz-adv-x="656" 
d="M505 687q65 -21 129 -56l-8 -71l-174 -168q79 -13 123 -54t44 -114q0 -71 -34 -125.5t-94 -84.5t-135 -30t-124 27l53 96q23 -10 64 -10q55 0 86.5 34.5t31.5 87.5q0 47 -38 70t-119 28l10 83l173 174q-66 24 -128 24q-100 0 -116 -111l-68 -487h-145l68 488
q15 105 82 162.5t179 57.5q75 0 140 -21z" />
    <glyph glyph-name="uni018F" unicode="&#x18f;" horiz-adv-x="632" 
d="M549 640q65 -68 65 -201q0 -34 -7 -90q-26 -180 -113.5 -272.5t-220.5 -92.5q-118 0 -179.5 69.5t-61.5 195.5q0 37 5.5 79.5t14.5 73.5l414 -2q3 29 3 52q0 76 -31.5 111t-92.5 35q-48 0 -89 -16.5t-82 -45.5l-59 86q56 44 116.5 65t132.5 21q120 0 185 -68zM388 141
q43 48 63 155l-278 -2q-5 -38 -5 -62q0 -73 28.5 -106t82.5 -33q66 0 109 48z" />
    <glyph glyph-name="T" unicode="T" horiz-adv-x="526" 
d="M552 577h-173l-81 -577h-145l81 577h-181l16 115h515z" />
    <glyph glyph-name="Tbar" unicode="&#x166;" horiz-adv-x="527" 
d="M353 390h115l-11 -87h-116l-42 -303h-146l43 303h-115l11 87h115l27 187h-181l16 115h515l-32 -115h-173z" />
    <glyph glyph-name="Tcaron" unicode="&#x164;" horiz-adv-x="526" 
d="M552 577h-173l-81 -577h-145l81 577h-181l16 115h515zM525 875l-154 -124h-87l-121 124l58 60l117 -83l141 83z" />
    <glyph glyph-name="uni0162" unicode="&#x162;" horiz-adv-x="526" 
d="M291 -50q44 -4 66 -27t22 -59q0 -29 -16 -56.5t-51 -46t-88 -18.5q-32 0 -58.5 8.5t-44.5 22.5l42 65q26 -16 57 -16q24 0 39.5 9.5t15.5 27.5q0 17 -19 24t-66 7l27 109h-64l81 577h-181l16 115h515l-32 -115h-173l-81 -577z" />
    <glyph glyph-name="uni1E70" unicode="&#x1e70;" horiz-adv-x="526" 
d="M552 577h-173l-81 -577h-145l81 577h-181l16 115h515zM16 -195l155 131h87l120 -131l-59 -60l-116 89l-140 -89z" />
    <glyph glyph-name="uni021A" unicode="&#x21a;" horiz-adv-x="526" 
d="M552 577h-173l-81 -577h-145l81 577h-181l16 115h515zM261.5 -88.5q18.5 -18.5 18.5 -46.5q0 -21 -8 -40.5t-29 -52.5l-57 -90h-72l46 117q-25 20 -25 51q0 35 22.5 57.5t55.5 22.5q30 0 48.5 -18.5z" />
    <glyph glyph-name="uni023E" unicode="&#x23e;" horiz-adv-x="526" 
d="M462 582l-122 -227l-50 -355h-129l4 29l-56 -102l-43 20l118 218l58 417h-188l15 110h399l34 62l43 -20l-23 -42h62l-31 -110h-91zM409 582h-37l-13 -92z" />
    <glyph glyph-name="uni1E6A" unicode="&#x1e6a;" horiz-adv-x="526" 
d="M552 577h-173l-81 -577h-145l81 577h-181l16 115h515zM411 908q21 -21 21 -54q0 -38 -27.5 -64.5t-67.5 -26.5q-35 0 -56 21t-21 54q0 38 27.5 64.5t67.5 26.5q35 0 56 -21z" />
    <glyph glyph-name="uni1E6C" unicode="&#x1e6c;" horiz-adv-x="526" 
d="M552 577h-173l-81 -577h-145l81 577h-181l16 115h515zM144 -209.5q-21 20.5 -21 53.5q0 39 27 65.5t67 26.5q35 0 56 -21t21 -53q0 -39 -27.5 -65.5t-66.5 -26.5q-35 0 -56 20.5z" />
    <glyph glyph-name="uni01AC" unicode="&#x1ac;" horiz-adv-x="577" 
d="M604 577h-173l-81 -577h-145l81 577h-69q-27 0 -41.5 -15.5t-14.5 -43.5q0 -15 9 -44l-102 -40q-23 50 -23 96q0 76 53.5 119t142.5 43h394z" />
    <glyph glyph-name="uni1E6E" unicode="&#x1e6e;" horiz-adv-x="526" 
d="M552 577h-173l-81 -577h-145l81 577h-181l16 115h515zM368 -87l-14 -100h-293l13 100h294z" />
    <glyph glyph-name="uni01BC" unicode="&#x1bc;" horiz-adv-x="526" 
d="M491 589h-252l-24 -164q51 25 108 25q75 0 120.5 -48.5t45.5 -134.5q0 -67 -29 -131.5t-95 -108t-168 -43.5q-132 0 -208 99l87 71q22 -30 54.5 -45.5t71.5 -15.5q52 0 84 26t45.5 64.5t13.5 77.5q0 89 -84 89q-23 0 -43.5 -5.5t-49.5 -18.5l-100 1l51 365h403z" />
    <glyph glyph-name="uni0184" unicode="&#x184;" horiz-adv-x="590" 
d="M508.5 402.5q63.5 -49.5 63.5 -144.5q0 -67 -30.5 -125.5t-98.5 -95.5t-173 -37h-225l70 499l-67 49q65 59 117 144h122l-34 -240h76q116 0 179.5 -49.5zM386.5 150.5q32.5 41.5 32.5 99.5q0 97 -111 97h-69l-34 -238h70q79 0 111.5 41.5z" />
    <glyph glyph-name="uni01A7" unicode="&#x1a7;" horiz-adv-x="548" 
d="M496 663q57 -45 57 -122q0 -92 -59 -145t-178 -89q-85 -26 -118.5 -56t-33.5 -78q0 -36 26 -56t72 -20q91 0 181 68l65 -86q-51 -44 -117.5 -69.5t-146.5 -25.5q-71 0 -122.5 23.5t-79 65.5t-27.5 96q0 96 57.5 153.5t173.5 92.5q60 18 93 33.5t49 35.5t16 51
q0 63 -81 63q-45 0 -84.5 -14.5t-81.5 -44.5l-60 84q55 43 115 64t132 21q95 0 152 -45z" />
    <glyph glyph-name="uni01AE" unicode="&#x1ae;" horiz-adv-x="526" 
d="M292 -49q-1 -6 -1 -17q0 -45 44 -45q21 0 37 5.5t37 16.5l39 -91q-60 -40 -137 -40t-121.5 38t-44.5 110q0 16 3 36l5 36l81 577h-181l16 115h515l-32 -115h-173l-81 -577z" />
    <glyph glyph-name="U" unicode="U" horiz-adv-x="645" 
d="M577 226q-16 -108 -92 -175t-200 -67q-113 0 -171.5 54t-58.5 147q0 23 3 45l65 462h145l-65 -459q-3 -22 -3 -40q0 -50 23 -73.5t72 -23.5q60 0 93.5 35t43.5 106l65 455h145z" />
    <glyph glyph-name="Uacute" unicode="&#xda;" horiz-adv-x="645" 
d="M577 226q-16 -108 -92 -175t-200 -67q-113 0 -171.5 54t-58.5 147q0 23 3 45l65 462h145l-65 -459q-3 -22 -3 -40q0 -50 23 -73.5t72 -23.5q60 0 93.5 35t43.5 106l65 455h145zM539 837l-236 -88l-34 72l220 125z" />
    <glyph glyph-name="uni0244" unicode="&#x244;" horiz-adv-x="681" 
d="M692 502h-60l-38 -276q-16 -108 -92 -175t-200 -67q-114 0 -172.5 54.5t-58.5 147.5q0 22 3 44l38 272h-58l12 86h58l15 104h145l-14 -104h228l15 104h146l-14 -104h59zM486 502h-229l-37 -269q-3 -22 -3 -41q0 -49 23 -72.5t72 -23.5q60 0 93.5 35t43.5 106z" />
    <glyph glyph-name="Ubreve" unicode="&#x16c;" horiz-adv-x="645" 
d="M577 226q-16 -108 -92 -175t-200 -67q-113 0 -171.5 54t-58.5 147q0 23 3 45l65 462h145l-65 -459q-3 -22 -3 -40q0 -50 23 -73.5t72 -23.5q60 0 93.5 35t43.5 106l65 455h145zM311.5 773q-33.5 21 -49.5 56.5t-14 77.5l78 11q12 -65 73 -65q34 0 58.5 19t38.5 49l80 -18
q-14 -64 -64 -107.5t-119 -43.5q-48 0 -81.5 21z" />
    <glyph glyph-name="uni01D3" unicode="&#x1d3;" horiz-adv-x="645" 
d="M577 226q-16 -108 -92 -175t-200 -67q-113 0 -171.5 54t-58.5 147q0 23 3 45l65 462h145l-65 -459q-3 -22 -3 -40q0 -50 23 -73.5t72 -23.5q60 0 93.5 35t43.5 106l65 455h145zM584 875l-154 -124h-87l-121 124l58 60l117 -83l141 83z" />
    <glyph glyph-name="Ucircumflex" unicode="&#xdb;" horiz-adv-x="645" 
d="M577 226q-16 -108 -92 -175t-200 -67q-113 0 -171.5 54t-58.5 147q0 23 3 45l65 462h145l-65 -459q-3 -22 -3 -40q0 -50 23 -73.5t72 -23.5q60 0 93.5 35t43.5 106l65 455h145zM401 840l-141 -84l-47 60l155 124h86l121 -124l-56 -60z" />
    <glyph glyph-name="uni0214" unicode="&#x214;" horiz-adv-x="645" 
d="M577 226q-16 -108 -92 -175t-200 -67q-113 0 -171.5 54t-58.5 147q0 23 3 45l65 462h145l-65 -459q-3 -22 -3 -40q0 -50 23 -73.5t72 -23.5q60 0 93.5 35t43.5 106l65 455h145zM374 824l-79 -35l-92 176l105 50zM532 826l-78 -32l-84 173l105 48z" />
    <glyph glyph-name="Udieresis" unicode="&#xdc;" horiz-adv-x="645" 
d="M577 226q-16 -108 -92 -175t-200 -67q-113 0 -171.5 54t-58.5 147q0 23 3 45l65 462h145l-65 -459q-3 -22 -3 -40q0 -50 23 -73.5t72 -23.5q60 0 93.5 35t43.5 106l65 455h145zM345.5 899.5q18.5 -18.5 18.5 -46.5q0 -34 -23.5 -58.5t-57.5 -24.5q-29 0 -48.5 19
t-19.5 48q0 33 24 57t58 24q30 0 48.5 -18.5zM568.5 899.5q18.5 -18.5 18.5 -46.5q0 -34 -23 -58.5t-58 -24.5q-29 0 -48 19t-19 48q0 33 23.5 57t57.5 24q30 0 48.5 -18.5z" />
    <glyph glyph-name="uni01D7" unicode="&#x1d7;" horiz-adv-x="645" 
d="M575 1000l-168 -137l-50 49l148 164zM336 876q19 -19 19 -48q0 -33 -24 -57t-58 -24q-29 0 -48 19t-19 48q0 33 24 57t58 24q29 0 48 -19zM573.5 876.5q18.5 -18.5 18.5 -46.5q0 -34 -23.5 -58.5t-58.5 -24.5q-28 0 -47.5 19.5t-19.5 47.5q0 33 24 57t58 24
q30 0 48.5 -18.5zM577 226q-16 -108 -92 -175t-200 -67q-113 0 -171.5 54t-58.5 147q0 23 3 45l65 462h145l-65 -459q-3 -22 -3 -40q0 -50 23 -73.5t72 -23.5q60 0 93.5 35t43.5 106l65 455h145z" />
    <glyph glyph-name="uni01D9" unicode="&#x1d9;" horiz-adv-x="645" 
d="M601 1020l-154 -124h-87l-121 124l58 60l117 -83l141 83zM334 876q19 -19 19 -48q0 -33 -24 -57t-58 -24q-29 0 -48 19t-19 48q0 33 24 57t58 24q29 0 48 -19zM571.5 876.5q18.5 -18.5 18.5 -46.5q0 -34 -23 -58.5t-58 -24.5q-29 0 -48 19t-19 48q0 33 23.5 57t57.5 24
q30 0 48.5 -18.5zM577 226q-16 -108 -92 -175t-200 -67q-113 0 -171.5 54t-58.5 147q0 23 3 45l65 462h145l-65 -459q-3 -22 -3 -40q0 -50 23 -73.5t72 -23.5q60 0 93.5 35t43.5 106l65 455h145z" />
    <glyph glyph-name="uni01DB" unicode="&#x1db;" horiz-adv-x="645" 
d="M459 910l-57 -47l-133 137l85 74zM334.5 876.5q18.5 -18.5 18.5 -46.5q0 -34 -23.5 -58.5t-57.5 -24.5q-30 0 -49 19t-19 48q0 33 24 57t58 24q30 0 48.5 -18.5zM572.5 876q18.5 -19 18.5 -48q0 -33 -24 -57t-58 -24q-29 0 -48 19t-19 48q0 33 24 57t58 24q30 0 48.5 -19
zM577 226q-16 -108 -92 -175t-200 -67q-113 0 -171.5 54t-58.5 147q0 23 3 45l65 462h145l-65 -459q-3 -22 -3 -40q0 -50 23 -73.5t72 -23.5q60 0 93.5 35t43.5 106l65 455h145z" />
    <glyph glyph-name="uni01D5" unicode="&#x1d5;" horiz-adv-x="645" 
d="M263 931l13 100h294l-14 -100h-293zM341.5 874.5q18.5 -18.5 18.5 -46.5q0 -34 -23.5 -58.5t-57.5 -24.5q-32 0 -51.5 23t-15.5 55q5 30 28 50t53 20t48.5 -18.5zM564.5 874.5q18.5 -18.5 18.5 -46.5q0 -34 -23 -58.5t-58 -24.5q-29 0 -48 19t-19 48q0 33 23.5 57
t57.5 24q30 0 48.5 -18.5zM577 226q-16 -108 -92 -175t-200 -67q-113 0 -171.5 54t-58.5 147q0 23 3 45l65 462h145l-65 -459q-3 -22 -3 -40q0 -50 23 -73.5t72 -23.5q60 0 93.5 35t43.5 106l65 455h145z" />
    <glyph glyph-name="uni1EE4" unicode="&#x1ee4;" horiz-adv-x="645" 
d="M577 226q-16 -108 -92 -175t-200 -67q-113 0 -171.5 54t-58.5 147q0 23 3 45l65 462h145l-65 -459q-3 -22 -3 -40q0 -50 23 -73.5t72 -23.5q60 0 93.5 35t43.5 106l65 455h145zM204 -209.5q-21 20.5 -21 53.5q0 39 27 65.5t67 26.5q35 0 56 -21t21 -53q0 -39 -27.5 -65.5
t-66.5 -26.5q-35 0 -56 20.5z" />
    <glyph glyph-name="Ugrave" unicode="&#xd9;" horiz-adv-x="645" 
d="M577 226q-16 -108 -92 -175t-200 -67q-113 0 -171.5 54t-58.5 147q0 23 3 45l65 462h145l-65 -459q-3 -22 -3 -40q0 -50 23 -73.5t72 -23.5q60 0 93.5 35t43.5 106l65 455h145zM538 822l-41 -73l-226 89l61 108z" />
    <glyph glyph-name="uni1EE6" unicode="&#x1ee6;" horiz-adv-x="645" 
d="M577 226q-16 -108 -92 -175t-200 -67q-113 0 -171.5 54t-58.5 147q0 23 3 45l65 462h145l-65 -459q-3 -22 -3 -40q0 -50 23 -73.5t72 -23.5q60 0 93.5 35t43.5 106l65 455h145zM359 852q38 2 58 12.5t20 32.5q0 26 -35 26q-29 0 -60 -14l-19 64q45 25 106 25
q52 0 80.5 -24t28.5 -65q0 -42 -25 -67.5t-70 -34.5l-7 -44h-86z" />
    <glyph glyph-name="Uhorn" unicode="&#x1af;" horiz-adv-x="713" 
d="M577 226q-16 -108 -92 -175t-200 -67q-113 0 -171.5 54t-58.5 147q0 23 3 45l65 462h145l-65 -459q-3 -22 -3 -40q0 -50 23 -73.5t72 -23.5q60 0 93.5 35t43.5 106l65 455h145zM619 636q34 3 49 22t15 55q0 19 -6 47l95 11q9 -25 9 -57q0 -71 -41 -109.5t-117 -40.5z" />
    <glyph glyph-name="uni1EE8" unicode="&#x1ee8;" horiz-adv-x="713" 
d="M577 226q-16 -108 -92 -175t-200 -67q-113 0 -171.5 54t-58.5 147q0 23 3 45l65 462h145l-65 -459q-3 -22 -3 -40q0 -50 23 -73.5t72 -23.5q60 0 93.5 35t43.5 106l65 455h145zM619 636q34 3 49 22t15 55q0 19 -6 47l95 11q9 -25 9 -57q0 -71 -41 -109.5t-117 -40.5z
M539 837l-236 -88l-34 72l220 125z" />
    <glyph glyph-name="uni1EF0" unicode="&#x1ef0;" horiz-adv-x="713" 
d="M577 226q-16 -108 -92 -175t-200 -67q-113 0 -171.5 54t-58.5 147q0 23 3 45l65 462h145l-65 -459q-3 -22 -3 -40q0 -50 23 -73.5t72 -23.5q60 0 93.5 35t43.5 106l65 455h145zM619 636q34 3 49 22t15 55q0 19 -6 47l95 11q9 -25 9 -57q0 -71 -41 -109.5t-117 -40.5z
M204 -209.5q-21 20.5 -21 53.5q0 39 27 65.5t67 26.5q35 0 56 -21t21 -53q0 -39 -27.5 -65.5t-66.5 -26.5q-35 0 -56 20.5z" />
    <glyph glyph-name="uni1EEA" unicode="&#x1eea;" horiz-adv-x="713" 
d="M577 226q-16 -108 -92 -175t-200 -67q-113 0 -171.5 54t-58.5 147q0 23 3 45l65 462h145l-65 -459q-3 -22 -3 -40q0 -50 23 -73.5t72 -23.5q60 0 93.5 35t43.5 106l65 455h145zM619 636q34 3 49 22t15 55q0 19 -6 47l95 11q9 -25 9 -57q0 -71 -41 -109.5t-117 -40.5z
M538 822l-41 -73l-226 89l61 108z" />
    <glyph glyph-name="uni1EEC" unicode="&#x1eec;" horiz-adv-x="713" 
d="M577 226q-16 -108 -92 -175t-200 -67q-113 0 -171.5 54t-58.5 147q0 23 3 45l65 462h145l-65 -459q-3 -22 -3 -40q0 -50 23 -73.5t72 -23.5q60 0 93.5 35t43.5 106l65 455h145zM619 636q34 3 49 22t15 55q0 19 -6 47l95 11q9 -25 9 -57q0 -71 -41 -109.5t-117 -40.5z
M359 852q38 2 58 12.5t20 32.5q0 26 -35 26q-29 0 -60 -14l-19 64q45 25 106 25q52 0 80.5 -24t28.5 -65q0 -42 -25 -67.5t-70 -34.5l-7 -44h-86z" />
    <glyph glyph-name="uni1EEE" unicode="&#x1eee;" horiz-adv-x="713" 
d="M577 226q-16 -108 -92 -175t-200 -67q-113 0 -171.5 54t-58.5 147q0 23 3 45l65 462h145l-65 -459q-3 -22 -3 -40q0 -50 23 -73.5t72 -23.5q60 0 93.5 35t43.5 106l65 455h145zM619 636q34 3 49 22t15 55q0 19 -6 47l95 11q9 -25 9 -57q0 -71 -41 -109.5t-117 -40.5z
M420 773.5q-16 7.5 -34 20.5q-13 9 -21.5 13.5t-17.5 4.5q-18 0 -32 -11.5t-30 -35.5l-67 40q26 49 60.5 79t74.5 30q22 0 37.5 -7.5t32.5 -20.5q12 -9 20 -13.5t17 -4.5q16 0 30 11t30 34l69 -39q-27 -50 -61.5 -79t-71.5 -29q-20 0 -36 7.5z" />
    <glyph glyph-name="Uhungarumlaut" unicode="&#x170;" horiz-adv-x="645" 
d="M577 226q-16 -108 -92 -175t-200 -67q-113 0 -171.5 54t-58.5 147q0 23 3 45l65 462h145l-65 -459q-3 -22 -3 -40q0 -50 23 -73.5t72 -23.5q60 0 93.5 35t43.5 106l65 455h145zM467 931l-131 -173l-72 32l111 189zM634 929l-140 -176l-71 35l119 191z" />
    <glyph glyph-name="uni0216" unicode="&#x216;" horiz-adv-x="645" 
d="M577 226q-16 -108 -92 -175t-200 -67q-113 0 -171.5 54t-58.5 147q0 23 3 45l65 462h145l-65 -459q-3 -22 -3 -40q0 -50 23 -73.5t72 -23.5q60 0 93.5 35t43.5 106l65 455h145zM228 784q16 71 66 115.5t121 44.5q73 0 111.5 -46.5t35.5 -118.5l-82 -11q-9 76 -74 76
q-67 0 -99 -79z" />
    <glyph glyph-name="Umacron" unicode="&#x16a;" horiz-adv-x="645" 
d="M577 226q-16 -108 -92 -175t-200 -67q-113 0 -171.5 54t-58.5 147q0 23 3 45l65 462h145l-65 -459q-3 -22 -3 -40q0 -50 23 -73.5t72 -23.5q60 0 93.5 35t43.5 106l65 455h145zM248 784l14 100h293l-13 -100h-294z" />
    <glyph glyph-name="Uogonek" unicode="&#x172;" horiz-adv-x="645" 
d="M642 692l-65 -466q-12 -85 -62.5 -146t-134.5 -84q-66 -26 -91 -52.5t-25 -54.5q0 -20 12 -30t38 -10q30 0 62 7l-17 -91q-37 -7 -69 -7q-60 0 -97 29t-37 77q0 79 96 122q-97 8 -147 61t-50 138q0 23 3 45l65 462h145l-65 -459q-3 -22 -3 -40q0 -50 23 -73.5t72 -23.5
q60 0 93.5 35t43.5 106l65 455h145z" />
    <glyph glyph-name="uni01B1" unicode="&#x1b1;" horiz-adv-x="682" 
d="M162.5 17.5q-59.5 33.5 -91 93.5t-31.5 138q0 218 178 337l-113 -2l15 108h224l-14 -105q-70 -65 -104.5 -153t-34.5 -187q0 -76 31.5 -114.5t91.5 -38.5q65 0 108 42t63.5 110t20.5 146q0 70 -15 114.5t-46 83.5l14 102h224l-16 -108l-108 -1q95 -76 95 -212
q0 -109 -43.5 -197.5t-123 -139t-182.5 -50.5q-83 0 -142.5 33.5z" />
    <glyph glyph-name="Uring" unicode="&#x16e;" horiz-adv-x="645" 
d="M577 226q-16 -108 -92 -175t-200 -67q-113 0 -171.5 54t-58.5 147q0 23 3 45l65 462h145l-65 -459q-3 -22 -3 -40q0 -50 23 -73.5t72 -23.5q60 0 93.5 35t43.5 106l65 455h145zM506.5 954q31.5 -32 31.5 -81q0 -37 -18.5 -68.5t-52 -50.5t-75.5 -19q-54 0 -86 32t-32 81
q0 36 19 68t52.5 51t75.5 19q54 0 85.5 -32zM373.5 894q-15.5 -19 -15.5 -43q0 -20 10.5 -31t28.5 -11q27 0 42.5 18.5t15.5 42.5q0 21 -10.5 32t-29.5 11q-26 0 -41.5 -19z" />
    <glyph glyph-name="Utilde" unicode="&#x168;" horiz-adv-x="645" 
d="M577 226q-16 -108 -92 -175t-200 -67q-113 0 -171.5 54t-58.5 147q0 23 3 45l65 462h145l-65 -459q-3 -22 -3 -40q0 -50 23 -73.5t72 -23.5q60 0 93.5 35t43.5 106l65 455h145zM420 773.5q-16 7.5 -34 20.5q-13 9 -21.5 13.5t-17.5 4.5q-18 0 -32 -11.5t-30 -35.5l-67 40
q26 49 60.5 79t74.5 30q22 0 37.5 -7.5t32.5 -20.5q12 -9 20 -13.5t17 -4.5q16 0 30 11t30 34l69 -39q-27 -50 -61.5 -79t-71.5 -29q-20 0 -36 7.5z" />
    <glyph glyph-name="uni1E78" unicode="&#x1e78;" horiz-adv-x="645" 
d="M546 1009l-236 -88l-34 72l220 125zM417 763.5q-16 7.5 -34 20.5q-13 9 -21.5 13.5t-17.5 4.5q-18 0 -31.5 -11t-29.5 -36l-68 40q26 49 60.5 79t74.5 30q22 0 37 -7t34 -21q12 -9 20 -13.5t17 -4.5q16 0 29.5 11t30.5 34l68 -39q-26 -50 -61 -79t-72 -29q-20 0 -36 7.5z
M577 226q-16 -108 -92 -175t-200 -67q-113 0 -171.5 54t-58.5 147q0 23 3 45l65 462h145l-65 -459q-3 -22 -3 -40q0 -50 23 -73.5t72 -23.5q60 0 93.5 35t43.5 106l65 455h145z" />
    <glyph glyph-name="V" unicode="V" horiz-adv-x="558" 
d="M333 0h-176l-106 692h152l59 -570l215 570h150z" />
    <glyph glyph-name="uni01B2" unicode="&#x1b2;" horiz-adv-x="633" 
d="M591.5 677q32.5 -31 32.5 -93q0 -19 -3 -40l-34 -252q-21 -146 -106 -227t-215 -81q-99 0 -156 53.5t-57 139.5q0 19 3 38l67 477h145l-67 -479q-2 -11 -2 -31q0 -86 80 -86q64 0 106 49.5t56 150.5l37 265l1 11q0 27 -24 27q-13 0 -30 -5l-16 97q42 17 88 17
q62 0 94.5 -31z" />
    <glyph glyph-name="uni0245" unicode="&#x245;" horiz-adv-x="577" 
d="M549 0h-150l-65 583l-227 -583h-153l306 692h177z" />
    <glyph glyph-name="W" unicode="W" horiz-adv-x="833" 
d="M661 0h-188l-19 541l-175 -541h-183l-21 692h142l-3 -578l185 578h153l19 -578l169 578h139z" />
    <glyph glyph-name="Wacute" unicode="&#x1e82;" horiz-adv-x="833" 
d="M661 0h-188l-19 541l-175 -541h-183l-21 692h142l-3 -578l185 578h153l19 -578l169 578h139zM634 837l-236 -88l-34 72l220 125z" />
    <glyph glyph-name="Wcircumflex" unicode="&#x174;" horiz-adv-x="833" 
d="M661 0h-188l-19 541l-175 -541h-183l-21 692h142l-3 -578l185 578h153l19 -578l169 578h139zM496 840l-141 -84l-47 60l155 124h86l121 -124l-56 -60z" />
    <glyph glyph-name="Wdieresis" unicode="&#x1e84;" horiz-adv-x="833" 
d="M661 0h-188l-19 541l-175 -541h-183l-21 692h142l-3 -578l185 578h153l19 -578l169 578h139zM440.5 899.5q18.5 -18.5 18.5 -46.5q0 -34 -23.5 -58.5t-57.5 -24.5q-29 0 -48.5 19t-19.5 48q0 33 24 57t58 24q30 0 48.5 -18.5zM663.5 899.5q18.5 -18.5 18.5 -46.5
q0 -34 -23 -58.5t-58 -24.5q-29 0 -48 19t-19 48q0 33 23.5 57t57.5 24q30 0 48.5 -18.5z" />
    <glyph glyph-name="Wgrave" unicode="&#x1e80;" horiz-adv-x="833" 
d="M661 0h-188l-19 541l-175 -541h-183l-21 692h142l-3 -578l185 578h153l19 -578l169 578h139zM633 822l-41 -73l-226 89l61 108z" />
    <glyph glyph-name="uni2C72" unicode="&#x2c72;" horiz-adv-x="883" 
d="M659 0h-186l-19 541l-175 -541h-183l-21 692h142l-3 -577l185 577h153l19 -578l122 444q22 83 63 116.5t110 33.5q64 0 115 -40l-53 -82q-25 16 -51 16q-22 0 -36 -12.5t-23 -41.5z" />
    <glyph glyph-name="uni01F7" unicode="&#x1f7;" horiz-adv-x="587" 
d="M553.5 663q47.5 -45 47.5 -123q0 -81 -40 -139t-106.5 -97t-162.5 -73l-83 -30l-28 -201h-145l97 692h145l-7 -43q68 59 161 59q74 0 121.5 -45zM449 526q0 73 -71 73q-64 0 -120 -46l-34 -245l53 22q172 76 172 196z" />
    <glyph glyph-name="X" unicode="X" horiz-adv-x="562" 
d="M380 372l147 -372h-156l-88 279l-165 -279h-158l246 368l1 1l-133 323h155l74 -236l147 236h156l-225 -319z" />
    <glyph glyph-name="Y" unicode="Y" horiz-adv-x="574" 
d="M360 261l-37 -261h-146l37 260l-158 432h154l92 -314l181 314h156z" />
    <glyph glyph-name="Yacute" unicode="&#xdd;" horiz-adv-x="574" 
d="M360 261l-37 -261h-146l37 260l-158 432h154l92 -314l181 314h156zM505 837l-236 -88l-34 72l220 125z" />
    <glyph glyph-name="Ycircumflex" unicode="&#x176;" horiz-adv-x="574" 
d="M360 261l-37 -261h-146l37 260l-158 432h154l92 -314l181 314h156zM367 840l-141 -84l-47 60l155 124h86l121 -124l-56 -60z" />
    <glyph glyph-name="Ydieresis" unicode="&#x178;" horiz-adv-x="574" 
d="M360 261l-37 -261h-146l37 260l-158 432h154l92 -314l181 314h156zM311.5 899.5q18.5 -18.5 18.5 -46.5q0 -34 -23.5 -58.5t-57.5 -24.5q-29 0 -48.5 19t-19.5 48q0 33 24 57t58 24q30 0 48.5 -18.5zM534.5 899.5q18.5 -18.5 18.5 -46.5q0 -34 -23 -58.5t-58 -24.5
q-29 0 -48 19t-19 48q0 33 23.5 57t57.5 24q30 0 48.5 -18.5z" />
    <glyph glyph-name="uni1EF4" unicode="&#x1ef4;" horiz-adv-x="574" 
d="M360 261l-37 -261h-146l37 260l-158 432h154l92 -314l181 314h156zM168 -209.5q-21 20.5 -21 53.5q0 39 27 65.5t67 26.5q35 0 56 -21t21 -53q0 -39 -27.5 -65.5t-66.5 -26.5q-35 0 -56 20.5z" />
    <glyph glyph-name="Ygrave" unicode="&#x1ef2;" horiz-adv-x="574" 
d="M360 261l-37 -261h-146l37 260l-158 432h154l92 -314l181 314h156zM504 822l-41 -73l-226 89l61 108z" />
    <glyph glyph-name="uni01B3" unicode="&#x1b3;" horiz-adv-x="610" 
d="M488.5 679.5q38.5 28.5 102.5 28.5q67 0 116 -40l-53 -82q-25 16 -51 16q-21 0 -35.5 -11.5t-33.5 -42.5l-174 -287l-37 -261h-146l37 260l-158 432h155l92 -314l110 201q37 72 75.5 100.5z" />
    <glyph glyph-name="uni1EF6" unicode="&#x1ef6;" horiz-adv-x="574" 
d="M360 261l-37 -261h-146l37 260l-158 432h154l92 -314l181 314h156zM325 852q38 2 58 12.5t20 32.5q0 26 -35 26q-29 0 -60 -14l-19 64q45 25 106 25q52 0 80.5 -24t28.5 -65q0 -42 -25 -67.5t-70 -34.5l-7 -44h-86z" />
    <glyph glyph-name="uni0232" unicode="&#x232;" horiz-adv-x="574" 
d="M360 261l-37 -261h-146l37 260l-158 432h154l92 -314l181 314h156zM214 784l14 100h293l-13 -100h-294z" />
    <glyph glyph-name="uni021C" unicode="&#x21c;" horiz-adv-x="508" 
d="M440.5 661q54.5 -47 54.5 -123q0 -70 -44 -115.5t-127 -64.5q67 -4 107 -40t40 -100q0 -128 -127.5 -210.5t-325.5 -117.5v108q146 37 224 87.5t78 134.5q0 42 -27.5 61.5t-86.5 19.5h-72l31 108h55q57 0 91.5 31.5t33.5 85.5q2 73 -81 73q-71 0 -151 -57l-62 77
q105 89 238 89q97 0 151.5 -47z" />
    <glyph glyph-name="uni01A6" unicode="&#x1a6;" horiz-adv-x="605" 
d="M541.5 271q-36.5 -57 -125.5 -92l132 -295h-157l-112 271h-77l-21 -155h-145l97 692h145l-17 -116h67q250 0 250 -175q0 -73 -36.5 -130zM217 259h78q71 0 101.5 39t30.5 93q0 42 -27.5 60.5t-85.5 18.5h-68z" />
    <glyph glyph-name="uni024E" unicode="&#x24e;" horiz-adv-x="575" 
d="M588 612h41l-12 -86h-85l-171 -265l-37 -261h-146l37 260l-97 266h-83l12 86h39l-29 80h145l25 -80h219l47 80h147zM395 526h-141l48 -157z" />
    <glyph glyph-name="uni1EF8" unicode="&#x1ef8;" horiz-adv-x="574" 
d="M360 261l-37 -261h-146l37 260l-158 432h154l92 -314l181 314h156zM387 773.5q-16 7.5 -34 20.5q-13 9 -21.5 13.5t-17.5 4.5q-18 0 -32 -11.5t-30 -35.5l-67 40q26 49 60.5 79t74.5 30q22 0 37.5 -7.5t32.5 -20.5q12 -9 20 -13.5t17 -4.5q16 0 30 11t30 34l69 -39
q-27 -50 -61.5 -79t-71.5 -29q-20 0 -36 7.5z" />
    <glyph glyph-name="Z" unicode="Z" horiz-adv-x="530" 
d="M-3 111l377 465h-278l16 116h444l-16 -113l-370 -461l309 1l-31 -119h-465z" />
    <glyph glyph-name="Zacute" unicode="&#x179;" horiz-adv-x="530" 
d="M-3 111l377 465h-278l16 116h444l-16 -113l-370 -461l309 1l-31 -119h-465zM488 837l-236 -88l-34 72l220 125z" />
    <glyph glyph-name="Zcaron" unicode="&#x17d;" horiz-adv-x="530" 
d="M-3 111l377 465h-278l16 116h444l-16 -113l-370 -461l309 1l-31 -119h-465zM533 875l-154 -124h-87l-121 124l58 60l117 -83l141 83z" />
    <glyph glyph-name="Zdotaccent" unicode="&#x17b;" horiz-adv-x="530" 
d="M-3 111l377 465h-278l16 116h444l-16 -113l-370 -461l309 1l-31 -119h-465zM420 908q21 -21 21 -54q0 -38 -27.5 -64.5t-67.5 -26.5q-35 0 -56 21t-21 54q0 38 27.5 64.5t67.5 26.5q35 0 56 -21z" />
    <glyph glyph-name="uni1E92" unicode="&#x1e92;" horiz-adv-x="530" 
d="M-3 111l377 465h-278l16 116h444l-16 -113l-370 -461l309 1l-31 -119h-465zM133 -209.5q-21 20.5 -21 53.5q0 39 27 65.5t67 26.5q35 0 56 -21t21 -53q0 -39 -27.5 -65.5t-66.5 -26.5q-35 0 -56 20.5z" />
    <glyph glyph-name="uni0224" unicode="&#x224;" horiz-adv-x="525" 
d="M540 579l-370 -461l302 1l-18 -119l-6 -44q-14 -87 -66.5 -131.5t-135.5 -44.5q-76 0 -129 43l59 87q17 -11 31 -16t34 -5q27 0 45 16.5t23 49.5l6 45h-332l14 111l377 465h-278l16 116h444z" />
    <glyph glyph-name="uni01B5" unicode="&#x1b5;" horiz-adv-x="530" 
d="M540 579l-150 -182h77l-20 -99h-139l-148 -180l319 1l-31 -119h-465l14 111l155 187h-87l20 99h150l149 179h-288l16 116h444z" />
    <glyph glyph-name="uniA7AD" unicode="&#xa7ad;" horiz-adv-x="594" 
d="M558 118l-31 -118h-400l36 254q-71 3 -107.5 34t-36.5 83q0 56 39 90t100 34q21 0 38 -5l28 202h145l-49 -351q39 1 71.5 5t39.5 5l2 -80q-70 -12 -125 -14l-19 -139h269zM174 339l11 75q-9 3 -25 3q-19 0 -30 -11.5t-11 -30.5q0 -36 55 -36z" />
    <glyph glyph-name="Cacute.loclPLK" horiz-adv-x="563" 
d="M595 628l-81 -79q-26 24 -54 36t-62 12q-72 0 -117.5 -52t-65.5 -128t-20 -150q0 -85 34 -126t95 -41q39 0 71.5 15t73.5 44l57 -90q-43 -37 -99 -61t-120 -24q-123 0 -193 74t-70 211q0 104 36.5 204.5t115 167.5t198.5 67q126 0 201 -80zM556 894l-159 -154l-60 37
l122 178z" />
    <glyph glyph-name="Nacute.loclPLK" horiz-adv-x="659" 
d="M549 0h-184l-144 569v-41q0 -132 -18 -266l-37 -262h-130l97 692h183l147 -569q-2 60 -2 85q0 91 13 187l42 297h130zM545 894l-159 -154l-60 37l122 178z" />
    <glyph glyph-name="Oacute.loclPLK" horiz-adv-x="682" 
d="M592.5 634q68.5 -74 68.5 -209q0 -104 -35 -204.5t-115 -168.5t-206 -68q-123 0 -192 74t-69 208q0 103 35 204t115.5 169.5t206.5 68.5q123 0 191.5 -74zM274 542q-44 -56 -62 -134t-18 -151q0 -86 30.5 -124.5t89.5 -38.5q74 0 118 56t61.5 134.5t17.5 152.5
q0 84 -30 122.5t-90 38.5q-73 0 -117 -56zM552 894l-159 -154l-60 37l122 178z" />
    <glyph glyph-name="Sacute.loclPLK" horiz-adv-x="556" 
d="M559 619l-80 -79q-31 30 -65 44t-75 14q-50 0 -82 -23t-32 -63q0 -22 10.5 -36.5t35.5 -27.5t73 -30q87 -29 132.5 -73.5t45.5 -121.5q0 -57 -28.5 -111.5t-93.5 -91t-168 -36.5q-81 0 -142 27t-102 72l85 84q66 -69 160 -69q60 0 98 27.5t38 75.5q0 37 -24.5 60
t-88.5 45q-95 30 -139 76t-44 116q0 51 28.5 99.5t88 79.5t147.5 31q138 0 222 -89zM495 894l-159 -154l-60 37l122 178z" />
    <glyph glyph-name="Zacute.loclPLK" horiz-adv-x="530" 
d="M-3 111l377 465h-278l16 116h444l-16 -113l-370 -461l309 1l-31 -119h-465zM480 894l-159 -154l-60 37l122 178z" />
    <glyph glyph-name="Eng.ss01" horiz-adv-x="646" 
d="M581.5 666.5q39.5 -41.5 39.5 -110.5q0 -17 -3 -37l-72 -519l-5 -40q-14 -89 -68.5 -134.5t-139.5 -45.5q-75 0 -130 43l59 87q17 -11 31 -16t34 -5q58 0 68 66l6 45l70 498q2 11 2 31q0 35 -15.5 51.5t-49.5 16.5q-43 0 -76.5 -18.5t-76.5 -57.5l-1 5l-74 -526h-144
l97 692h126l1 -68q50 43 97 63.5t106 20.5q79 0 118.5 -41.5z" />
    <glyph glyph-name="uni019D.ss01" horiz-adv-x="647" 
d="M581 666.5q40 -41.5 40 -111.5q0 -19 -3 -39l-72 -516h-144l69 498q3 18 3 32q0 67 -66 67q-42 0 -75.5 -18.5t-78.5 -58.5l-73 -520l-6 -40q-14 -90 -68.5 -135t-139.5 -45q-76 0 -129 43l59 87q17 -11 31 -16t34 -5q57 0 68 66l6 45l97 692h126l2 -68q47 43 95 63.5
t105 20.5q80 0 120 -41.5z" />
    <glyph glyph-name="uni2C64.ss01" horiz-adv-x="424" 
d="M489 697l-40 -141q-27 9 -56 9q-58 0 -92.5 -34t-60.5 -105l-59 -426l-7 -49q-1 -6 -1 -17q0 -45 44 -45q21 0 37 5.5t37 16.5l39 -91q-60 -40 -136 -40q-79 0 -122.5 38t-43.5 111q0 23 2 35l6 36l97 692h126l-2 -96q28 55 68 83t99 28q35 0 65 -10z" />
    <glyph glyph-name="uni0181.ss02" horiz-adv-x="583" 
d="M498 394.5q63 -47.5 63 -139.5q0 -64 -29.5 -122t-96.5 -95.5t-174 -37.5h-225l97 692h413l-31 -113h-253l-20 -137h76q117 0 180 -47.5zM374 148q34 39 34 101q0 45 -27.5 67t-83.5 22h-69l-32 -229h69q75 0 109 39z" />
    <glyph glyph-name="uniA78D.ss02" horiz-adv-x="590" 
d="M336 0l35 251l-343 -1l62 442h145l-45 -326h198l45 326h145l-97 -692h-145z" />
    <glyph glyph-name="uni0299" unicode="&#x299;" horiz-adv-x="536" 
d="M383 290q58 -7 87 -34.5t29 -73.5q0 -92 -68.5 -137t-183.5 -45h-214l72 525q115 21 198 21q97 0 151.5 -33t54.5 -94q0 -103 -126 -129zM344.5 342q24.5 21 24.5 59q0 27 -18 39t-55 12q-32 0 -59 -4l-19 -127h60q42 0 66.5 21zM325.5 117.5q31.5 21.5 31.5 70.5
q0 29 -20 41t-59 12h-71l-22 -145h61q48 0 79.5 21.5z" />
    <glyph glyph-name="uni0262" unicode="&#x262;" horiz-adv-x="553" 
d="M445 527.5q44 -18.5 82 -53.5l-77 -74q-27 22 -53.5 32t-59.5 10q-79 0 -119 -71t-40 -171q0 -61 22 -86.5t67 -25.5q40 0 82 17l14 107h-73l-1 96h220l-36 -262q-98 -60 -219 -60q-109 0 -165 54.5t-56 160.5q0 97 38.5 176t107.5 124t158 45q64 0 108 -18.5z" />
    <glyph glyph-name="uni029B" unicode="&#x29b;" horiz-adv-x="559" 
d="M724 718l-53 -87q-31 20 -63 20q-57 0 -66 -67l-15 -110l-68 -64q-59 32 -122 32q-79 0 -119.5 -70.5t-40.5 -171.5q0 -61 22.5 -86.5t66.5 -25.5q41 0 83 17l13 107h-73v96h219l-35 -262q-99 -60 -219 -60q-109 0 -165.5 54.5t-56.5 160.5q0 97 39 176t105.5 124
t146.5 45q49 0 86 -14l8 60q11 81 57.5 123t124.5 42q72 0 125 -39z" />
    <glyph glyph-name="uni029C" unicode="&#x29c;" horiz-adv-x="579" 
d="M364 216h-162l-30 -216h-140l74 530h140l-29 -207h162l28 207h140l-74 -530h-140z" />
    <glyph glyph-name="uni026A" unicode="&#x26a;" horiz-adv-x="326" 
d="M256 430l-46 -329h78l-14 -101h-297l15 101h77l47 329h-78l14 100h296l-13 -100h-79z" />
    <glyph glyph-name="uni029F" unicode="&#x29f;" horiz-adv-x="443" 
d="M187 111h222l-31 -111h-346l74 530h140z" />
    <glyph glyph-name="uni0274" unicode="&#x274;" horiz-adv-x="581" 
d="M475 0h-169l-113 402v-39q0 -103 -14 -200l-22 -163h-125l74 530h167l115 -403q-1 22 -1 64q0 65 10 139l27 200h125z" />
    <glyph glyph-name="uni0276" unicode="&#x276;" horiz-adv-x="754" 
d="M502 431q29 -49 34 -113h159l-14 -98h-155q-19 -69 -68 -120h247l-15 -100h-351q-42 -16 -90 -16q-102 0 -158.5 59.5t-56.5 164.5q0 80 28.5 157.5t93.5 129t167 51.5q45 0 91 -16h351l-29 -99h-234zM198 116q20 -26 62 -26q52 0 82.5 39.5t42.5 95t12 107.5
q0 56 -20.5 82t-61.5 26q-75 0 -106 -76.5t-31 -165.5q0 -56 20 -82z" />
    <glyph glyph-name="uni0280" unicode="&#x280;" horiz-adv-x="529" 
d="M369 211l104 -211h-146l-81 188h-53l-26 -188h-135l74 530h175q101 0 153.5 -37.5t52.5 -113.5q0 -119 -118 -168zM207 284h43q47 0 72.5 24t25.5 64q0 33 -19.5 46t-60.5 13h-41z" />
    <glyph glyph-name="uni0281" unicode="&#x281;" horiz-adv-x="529" 
d="M461 196q0 -98 -67.5 -147t-183.5 -49h-178l74 530h135l-26 -188h53l133 188h147l-163 -211q76 -38 76 -123zM295 121q27 22 27 67q0 31 -19 44.5t-57 13.5h-45l-20 -147h37q50 0 77 22z" />
    <glyph glyph-name="uni028F" unicode="&#x28f;" horiz-adv-x="483" 
d="M302 194l-28 -194h-140l28 193l-132 337h147l67 -238l133 238h151z" />
    <glyph glyph-name="a" unicode="a" horiz-adv-x="571" 
d="M541 493l-52 -348q-2 -18 -2 -23q0 -18 7.5 -27.5t22.5 -15.5l-41 -93q-97 10 -115 88q-65 -90 -157 -90q-84 0 -128 56t-44 153q0 83 31 164t98 135t170 54q110 0 210 -53zM242 405q-34 -38 -49.5 -95.5t-15.5 -116.5q0 -103 69 -103q30 0 56 20t53 59l40 263
q-32 11 -67 11q-52 0 -86 -38z" />
    <glyph glyph-name="aacute" unicode="&#xe1;" horiz-adv-x="571" 
d="M541 493l-52 -348q-2 -18 -2 -23q0 -18 7.5 -27.5t22.5 -15.5l-41 -93q-97 10 -115 88q-65 -90 -157 -90q-84 0 -128 56t-44 153q0 83 31 164t98 135t170 54q110 0 210 -53zM242 405q-34 -38 -49.5 -95.5t-15.5 -116.5q0 -103 69 -103q30 0 56 20t53 59l40 263
q-32 11 -67 11q-52 0 -86 -38zM504 718l-239 -92l-29 73l227 128z" />
    <glyph glyph-name="abreve" unicode="&#x103;" horiz-adv-x="571" 
d="M541 493l-52 -348q-2 -18 -2 -23q0 -18 7.5 -27.5t22.5 -15.5l-41 -93q-97 10 -115 88q-65 -90 -157 -90q-84 0 -128 56t-44 153q0 83 31 164t98 135t170 54q110 0 210 -53zM242 405q-34 -38 -49.5 -95.5t-15.5 -116.5q0 -103 69 -103q30 0 56 20t53 59l40 263
q-32 11 -67 11q-52 0 -86 -38zM242 681.5q-38 46.5 -34 118.5l81 11q8 -76 71 -76q34 0 59.5 21t39.5 58l78 -18q-15 -72 -64.5 -116.5t-120.5 -44.5q-72 0 -110 46.5z" />
    <glyph glyph-name="uni1EAF" unicode="&#x1eaf;" horiz-adv-x="571" 
d="M532 890l-168 -137l-50 49l148 164zM274.5 621q-33.5 21 -49.5 56.5t-14 77.5l78 11q12 -65 73 -65q34 0 58.5 19t38.5 49l80 -18q-14 -64 -64 -107.5t-119 -43.5q-48 0 -81.5 21zM541 493l-52 -348q-2 -18 -2 -23q0 -18 7.5 -27.5t22.5 -15.5l-41 -93q-97 10 -115 88
q-65 -90 -157 -90q-84 0 -128 56t-44 153q0 83 31 164t98 135t170 54q110 0 210 -53zM242 405q-34 -38 -49.5 -95.5t-15.5 -116.5q0 -103 69 -103q30 0 56 20t53 59l40 263q-32 11 -67 11q-52 0 -86 -38z" />
    <glyph glyph-name="uni1EB7" unicode="&#x1eb7;" horiz-adv-x="571" 
d="M541 493l-52 -348q-2 -18 -2 -23q0 -18 7.5 -27.5t22.5 -15.5l-41 -93q-97 10 -115 88q-65 -90 -157 -90q-84 0 -128 56t-44 153q0 83 31 164t98 135t170 54q110 0 210 -53zM242 405q-34 -38 -49.5 -95.5t-15.5 -116.5q0 -103 69 -103q30 0 56 20t53 59l40 263
q-32 11 -67 11q-52 0 -86 -38zM242 681.5q-38 46.5 -34 118.5l81 11q8 -76 71 -76q34 0 59.5 21t39.5 58l78 -18q-15 -72 -64.5 -116.5t-120.5 -44.5q-72 0 -110 46.5zM195 -209.5q-21 20.5 -21 53.5q0 39 27 65.5t67 26.5q35 0 56 -21t21 -53q0 -39 -27.5 -65.5
t-66.5 -26.5q-35 0 -56 20.5z" />
    <glyph glyph-name="uni1EB1" unicode="&#x1eb1;" horiz-adv-x="571" 
d="M424 800l-57 -47l-133 137l85 74zM274.5 621q-33.5 21 -49.5 56.5t-14 77.5l78 11q12 -65 73 -65q34 0 58.5 19t38.5 49l80 -18q-14 -64 -64 -107.5t-119 -43.5q-48 0 -81.5 21zM541 493l-52 -348q-2 -18 -2 -23q0 -18 7.5 -27.5t22.5 -15.5l-41 -93q-97 10 -115 88
q-65 -90 -157 -90q-84 0 -128 56t-44 153q0 83 31 164t98 135t170 54q110 0 210 -53zM242 405q-34 -38 -49.5 -95.5t-15.5 -116.5q0 -103 69 -103q30 0 56 20t53 59l40 263q-32 11 -67 11q-52 0 -86 -38z" />
    <glyph glyph-name="uni1EB3" unicode="&#x1eb3;" horiz-adv-x="571" 
d="M339 849q38 2 58 12.5t20 32.5q0 26 -35 26q-28 0 -60 -15l-19 65q45 25 106 25q52 0 80 -24t28 -65q0 -42 -25 -68t-70 -34l-8 -54h-87zM275.5 621q-33.5 21 -49.5 56.5t-14 77.5l78 11q12 -65 73 -65q34 0 58.5 19t38.5 49l80 -18q-14 -64 -64 -107.5t-119 -43.5
q-48 0 -81.5 21zM541 493l-52 -348q-2 -18 -2 -23q0 -18 7.5 -27.5t22.5 -15.5l-41 -93q-97 10 -115 88q-65 -90 -157 -90q-84 0 -128 56t-44 153q0 83 31 164t98 135t170 54q110 0 210 -53zM242 405q-34 -38 -49.5 -95.5t-15.5 -116.5q0 -103 69 -103q30 0 56 20t53 59
l40 263q-32 11 -67 11q-52 0 -86 -38z" />
    <glyph glyph-name="uni1EB5" unicode="&#x1eb5;" horiz-adv-x="571" 
d="M410 798.5q-15 6.5 -35 19.5q-12 9 -20.5 13t-17.5 4q-18 0 -31.5 -10.5t-29.5 -33.5l-67 38q26 46 60.5 75t73.5 29q21 0 36.5 -7t33.5 -20q11 -9 19 -13t17 -4q17 0 30.5 10.5t29.5 32.5l68 -37q-26 -48 -60.5 -75.5t-71.5 -27.5q-20 0 -35 6.5zM279.5 621
q-33.5 21 -49.5 56.5t-14 77.5l78 11q12 -65 73 -65q34 0 58.5 19t38.5 49l80 -18q-14 -64 -64 -107.5t-119 -43.5q-48 0 -81.5 21zM541 493l-52 -348q-2 -18 -2 -23q0 -18 7.5 -27.5t22.5 -15.5l-41 -93q-97 10 -115 88q-65 -90 -157 -90q-84 0 -128 56t-44 153
q0 83 31 164t98 135t170 54q110 0 210 -53zM242 405q-34 -38 -49.5 -95.5t-15.5 -116.5q0 -103 69 -103q30 0 56 20t53 59l40 263q-32 11 -67 11q-52 0 -86 -38z" />
    <glyph glyph-name="uni01CE" unicode="&#x1ce;" horiz-adv-x="571" 
d="M541 493l-52 -348q-2 -18 -2 -23q0 -18 7.5 -27.5t22.5 -15.5l-41 -93q-97 10 -115 88q-65 -90 -157 -90q-84 0 -128 56t-44 153q0 83 31 164t98 135t170 54q110 0 210 -53zM242 405q-34 -38 -49.5 -95.5t-15.5 -116.5q0 -103 69 -103q30 0 56 20t53 59l40 263
q-32 11 -67 11q-52 0 -86 -38zM551 746l-155 -131h-87l-120 131l56 60l116 -89l144 89z" />
    <glyph glyph-name="acircumflex" unicode="&#xe2;" horiz-adv-x="571" 
d="M541 493l-52 -348q-2 -18 -2 -23q0 -18 7.5 -27.5t22.5 -15.5l-41 -93q-97 10 -115 88q-65 -90 -157 -90q-84 0 -128 56t-44 153q0 83 31 164t98 135t170 54q110 0 210 -53zM242 405q-34 -38 -49.5 -95.5t-15.5 -116.5q0 -103 69 -103q30 0 56 20t53 59l40 263
q-32 11 -67 11q-52 0 -86 -38zM180 684l156 131h86l120 -131l-59 -60l-116 89l-140 -89z" />
    <glyph glyph-name="uni1EA5" unicode="&#x1ea5;" horiz-adv-x="571" 
d="M688 865l-168 -137l-50 49l148 164zM363 670l-141 -84l-47 60l155 124h86l121 -124l-56 -60zM541 493l-52 -348q-2 -18 -2 -23q0 -18 7.5 -27.5t22.5 -15.5l-41 -93q-97 10 -115 88q-65 -90 -157 -90q-84 0 -128 56t-44 153q0 83 31 164t98 135t170 54q110 0 210 -53z
M242 405q-34 -38 -49.5 -95.5t-15.5 -116.5q0 -103 69 -103q30 0 56 20t53 59l40 263q-32 11 -67 11q-52 0 -86 -38z" />
    <glyph glyph-name="uni1EAD" unicode="&#x1ead;" horiz-adv-x="571" 
d="M541 493l-52 -348q-2 -18 -2 -23q0 -18 7.5 -27.5t22.5 -15.5l-41 -93q-97 10 -115 88q-65 -90 -157 -90q-84 0 -128 56t-44 153q0 83 31 164t98 135t170 54q110 0 210 -53zM242 405q-34 -38 -49.5 -95.5t-15.5 -116.5q0 -103 69 -103q30 0 56 20t53 59l40 263
q-32 11 -67 11q-52 0 -86 -38zM180 684l156 131h86l120 -131l-59 -60l-116 89l-140 -89zM195 -209.5q-21 20.5 -21 53.5q0 39 27 65.5t67 26.5q35 0 56 -21t21 -53q0 -39 -27.5 -65.5t-66.5 -26.5q-35 0 -56 20.5z" />
    <glyph glyph-name="uni1EA7" unicode="&#x1ea7;" horiz-adv-x="571" 
d="M276 775l-57 -47l-133 137l85 74zM362 670l-141 -84l-47 60l155 124h86l121 -124l-56 -60zM541 493l-52 -348q-2 -18 -2 -23q0 -18 7.5 -27.5t22.5 -15.5l-41 -93q-97 10 -115 88q-65 -90 -157 -90q-84 0 -128 56t-44 153q0 83 31 164t98 135t170 54q110 0 210 -53z
M242 405q-34 -38 -49.5 -95.5t-15.5 -116.5q0 -103 69 -103q30 0 56 20t53 59l40 263q-32 11 -67 11q-52 0 -86 -38z" />
    <glyph glyph-name="uni1EA9" unicode="&#x1ea9;" horiz-adv-x="571" 
d="M497 843q38 2 58 12.5t20 32.5q0 26 -35 26q-28 0 -60 -15l-19 65q45 25 106 25q52 0 80 -24t28 -65q0 -42 -25 -68t-70 -34l-8 -54h-87zM363 670l-141 -84l-47 60l155 124h86l121 -124l-56 -60zM541 493l-52 -348q-2 -18 -2 -23q0 -18 7.5 -27.5t22.5 -15.5l-41 -93
q-97 10 -115 88q-65 -90 -157 -90q-84 0 -128 56t-44 153q0 83 31 164t98 135t170 54q110 0 210 -53zM242 405q-34 -38 -49.5 -95.5t-15.5 -116.5q0 -103 69 -103q30 0 56 20t53 59l40 263q-32 11 -67 11q-52 0 -86 -38z" />
    <glyph glyph-name="uni1EAB" unicode="&#x1eab;" horiz-adv-x="571" 
d="M410 798.5q-15 6.5 -35 19.5q-12 9 -20.5 13t-17.5 4q-18 0 -31.5 -10.5t-29.5 -33.5l-67 38q26 46 60.5 75t73.5 29q21 0 36.5 -7t33.5 -20q11 -9 19 -13t17 -4q17 0 30.5 10.5t29.5 32.5l68 -37q-26 -48 -60.5 -75.5t-71.5 -27.5q-20 0 -35 6.5zM362 665l-141 -84
l-47 60l155 124h86l121 -124l-56 -60zM541 493l-52 -348q-2 -18 -2 -23q0 -18 7.5 -27.5t22.5 -15.5l-41 -93q-97 10 -115 88q-65 -90 -157 -90q-84 0 -128 56t-44 153q0 83 31 164t98 135t170 54q110 0 210 -53zM242 405q-34 -38 -49.5 -95.5t-15.5 -116.5q0 -103 69 -103
q30 0 56 20t53 59l40 263q-32 11 -67 11q-52 0 -86 -38z" />
    <glyph glyph-name="uni0201" unicode="&#x201;" horiz-adv-x="571" 
d="M541 493l-52 -348q-2 -18 -2 -23q0 -18 7.5 -27.5t22.5 -15.5l-41 -93q-97 10 -115 88q-65 -90 -157 -90q-84 0 -128 56t-44 153q0 83 31 164t98 135t170 54q110 0 210 -53zM242 405q-34 -38 -49.5 -95.5t-15.5 -116.5q0 -103 69 -103q30 0 56 20t53 59l40 263
q-32 11 -67 11q-52 0 -86 -38zM333 662l-79 -35l-92 176l105 50zM491 664l-78 -32l-84 173l105 48z" />
    <glyph glyph-name="adieresis" unicode="&#xe4;" horiz-adv-x="571" 
d="M541 493l-52 -348q-2 -18 -2 -23q0 -18 7.5 -27.5t22.5 -15.5l-41 -93q-97 10 -115 88q-65 -90 -157 -90q-84 0 -128 56t-44 153q0 83 31 164t98 135t170 54q110 0 210 -53zM242 405q-34 -38 -49.5 -95.5t-15.5 -116.5q0 -103 69 -103q30 0 56 20t53 59l40 263
q-32 11 -67 11q-52 0 -86 -38zM312.5 773.5q18.5 -18.5 18.5 -46.5q0 -34 -23.5 -58.5t-57.5 -24.5q-32 0 -51.5 23t-15.5 55q5 30 28 50t53 20t48.5 -18.5zM535.5 773.5q18.5 -18.5 18.5 -46.5q0 -34 -23 -58.5t-58 -24.5q-29 0 -48 19t-19 48q0 33 23.5 57t57.5 24
q30 0 48.5 -18.5z" />
    <glyph glyph-name="uni01DF" unicode="&#x1df;" horiz-adv-x="571" 
d="M228 799l13 100h294l-14 -100h-293zM305.5 736.5q18.5 -18.5 18.5 -46.5q0 -34 -23.5 -58.5t-57.5 -24.5q-32 0 -51.5 23t-15.5 55q5 30 28 50t53 20t48.5 -18.5zM528.5 736.5q18.5 -18.5 18.5 -46.5q0 -34 -23 -58.5t-58 -24.5q-29 0 -48 19t-19 48q0 33 23.5 57
t57.5 24q30 0 48.5 -18.5zM541 493l-52 -348q-2 -18 -2 -23q0 -18 7.5 -27.5t22.5 -15.5l-41 -93q-97 10 -115 88q-65 -90 -157 -90q-84 0 -128 56t-44 153q0 83 31 164t98 135t170 54q110 0 210 -53zM242 405q-34 -38 -49.5 -95.5t-15.5 -116.5q0 -103 69 -103q30 0 56 20
t53 59l40 263q-32 11 -67 11q-52 0 -86 -38z" />
    <glyph glyph-name="uni0227" unicode="&#x227;" horiz-adv-x="571" 
d="M541 493l-52 -348q-2 -18 -2 -23q0 -18 7.5 -27.5t22.5 -15.5l-41 -93q-97 10 -115 88q-65 -90 -157 -90q-84 0 -128 56t-44 153q0 83 31 164t98 135t170 54q110 0 210 -53zM242 405q-34 -38 -49.5 -95.5t-15.5 -116.5q0 -103 69 -103q30 0 56 20t53 59l40 263
q-32 11 -67 11q-52 0 -86 -38zM433.5 782.5q20.5 -20.5 20.5 -52.5q0 -39 -27 -66t-67 -27q-35 0 -56 21t-21 54q0 38 27.5 64.5t67.5 26.5q35 0 55.5 -20.5z" />
    <glyph glyph-name="uni1EA1" unicode="&#x1ea1;" horiz-adv-x="571" 
d="M541 493l-52 -348q-2 -18 -2 -23q0 -18 7.5 -27.5t22.5 -15.5l-41 -93q-97 10 -115 88q-65 -90 -157 -90q-84 0 -128 56t-44 153q0 83 31 164t98 135t170 54q110 0 210 -53zM242 405q-34 -38 -49.5 -95.5t-15.5 -116.5q0 -103 69 -103q30 0 56 20t53 59l40 263
q-32 11 -67 11q-52 0 -86 -38zM195 -209.5q-21 20.5 -21 53.5q0 39 27 65.5t67 26.5q35 0 56 -21t21 -53q0 -39 -27.5 -65.5t-66.5 -26.5q-35 0 -56 20.5z" />
    <glyph glyph-name="uni01E1" unicode="&#x1e1;" horiz-adv-x="571" 
d="M232 795l13 100h294l-14 -100h-293zM425.5 741.5q20.5 -20.5 20.5 -52.5q0 -39 -27 -66t-67 -27q-35 0 -56 21t-21 54q0 38 27.5 64.5t67.5 26.5q35 0 55.5 -20.5zM541 493l-52 -348q-2 -18 -2 -23q0 -18 7.5 -27.5t22.5 -15.5l-41 -93q-97 10 -115 88q-65 -90 -157 -90
q-84 0 -128 56t-44 153q0 83 31 164t98 135t170 54q110 0 210 -53zM242 405q-34 -38 -49.5 -95.5t-15.5 -116.5q0 -103 69 -103q30 0 56 20t53 59l40 263q-32 11 -67 11q-52 0 -86 -38z" />
    <glyph glyph-name="agrave" unicode="&#xe0;" horiz-adv-x="571" 
d="M541 493l-52 -348q-2 -18 -2 -23q0 -18 7.5 -27.5t22.5 -15.5l-41 -93q-97 10 -115 88q-65 -90 -157 -90q-84 0 -128 56t-44 153q0 83 31 164t98 135t170 54q110 0 210 -53zM242 405q-34 -38 -49.5 -95.5t-15.5 -116.5q0 -103 69 -103q30 0 56 20t53 59l40 263
q-32 11 -67 11q-52 0 -86 -38zM511 700l-45 -72l-217 90l67 112z" />
    <glyph glyph-name="uni1EA3" unicode="&#x1ea3;" horiz-adv-x="571" 
d="M541 493l-52 -348q-2 -18 -2 -23q0 -18 7.5 -27.5t22.5 -15.5l-41 -93q-97 10 -115 88q-65 -90 -157 -90q-84 0 -128 56t-44 153q0 83 31 164t98 135t170 54q110 0 210 -53zM242 405q-34 -38 -49.5 -95.5t-15.5 -116.5q0 -103 69 -103q30 0 56 20t53 59l40 263
q-32 11 -67 11q-52 0 -86 -38zM321 705q38 2 58 12.5t20 32.5q0 26 -35 26q-28 0 -60 -15l-19 65q45 25 106 25q52 0 80 -24t28 -65q0 -42 -25 -68t-70 -34l-8 -54h-87z" />
    <glyph glyph-name="uni0203" unicode="&#x203;" horiz-adv-x="571" 
d="M541 493l-52 -348q-2 -18 -2 -23q0 -18 7.5 -27.5t22.5 -15.5l-41 -93q-97 10 -115 88q-65 -90 -157 -90q-84 0 -128 56t-44 153q0 83 31 164t98 135t170 54q110 0 210 -53zM242 405q-34 -38 -49.5 -95.5t-15.5 -116.5q0 -103 69 -103q30 0 56 20t53 59l40 263
q-32 11 -67 11q-52 0 -86 -38zM188 622q16 71 66 115.5t121 44.5q73 0 111.5 -46.5t35.5 -118.5l-82 -11q-9 76 -74 76q-67 0 -99 -79z" />
    <glyph glyph-name="uni0251" unicode="&#x251;" horiz-adv-x="571" 
d="M494 93.5q7 -9.5 22 -14.5l-40 -93q-97 10 -116 88q-63 -90 -157 -90q-83 0 -127.5 56.5t-44.5 153.5q0 82 33.5 164t95 135t139.5 53q46 0 75 -18t44 -56l25 58h103l-57 -385q-2 -18 -2 -25q0 -17 7 -26.5zM383 359q-6 46 -24.5 65t-48.5 19q-42 0 -72 -36.5t-45.5 -94
t-15.5 -118.5q0 -56 18 -80t51 -24q30 0 56 20t53 59z" />
    <glyph glyph-name="uni0252" unicode="&#x252;" horiz-adv-x="571" 
d="M495.5 489.5q44.5 -56.5 44.5 -153.5q0 -82 -33.5 -164t-95 -135t-139.5 -53q-46 0 -75 18t-44 56l-25 -58h-103l57 385q2 18 2 25q0 17 -7 26.5t-22 14.5l40 93q97 -10 116 -88q63 90 157 90q83 0 127.5 -56.5zM333 123.5q30 36.5 45.5 94t15.5 118.5q0 56 -18 80
t-51 24q-30 0 -56 -20t-53 -59l-28 -189q6 -47 24.5 -66t48.5 -19q42 0 72 36.5z" />
    <glyph glyph-name="amacron" unicode="&#x101;" horiz-adv-x="571" 
d="M541 493l-52 -348q-2 -18 -2 -23q0 -18 7.5 -27.5t22.5 -15.5l-41 -93q-97 10 -115 88q-65 -90 -157 -90q-84 0 -128 56t-44 153q0 83 31 164t98 135t170 54q110 0 210 -53zM242 405q-34 -38 -49.5 -95.5t-15.5 -116.5q0 -103 69 -103q30 0 56 20t53 59l40 263
q-32 11 -67 11q-52 0 -86 -38zM214 658l13 100h294l-14 -100h-293z" />
    <glyph glyph-name="aogonek" unicode="&#x105;" horiz-adv-x="571" 
d="M494.5 94.5q7.5 -9.5 22.5 -15.5l-40 -92v-1q-136 -50 -136 -117q0 -16 11.5 -25t33.5 -9q25 0 62 8l-20 -92q-37 -7 -66 -7q-58 0 -93 28t-35 74q0 109 163 168q-27 23 -36 60q-65 -90 -157 -90q-84 0 -128 56t-44 153q0 83 31 164t98 135t170 54q110 0 210 -53
l-52 -348q-2 -18 -2 -23q0 -18 7.5 -27.5zM395 432q-32 11 -67 11q-52 0 -86 -38t-49.5 -95.5t-15.5 -116.5q0 -103 69 -103q30 0 56 20t53 59z" />
    <glyph glyph-name="aring" unicode="&#xe5;" horiz-adv-x="571" 
d="M541 493l-52 -348q-2 -18 -2 -23q0 -18 7.5 -27.5t22.5 -15.5l-41 -93q-97 10 -115 88q-65 -90 -157 -90q-84 0 -128 56t-44 153q0 83 31 164t98 135t170 54q110 0 210 -53zM242 405q-34 -38 -49.5 -95.5t-15.5 -116.5q0 -103 69 -103q30 0 56 20t53 59l40 263
q-32 11 -67 11q-52 0 -86 -38zM470.5 828q31.5 -32 31.5 -81q0 -36 -18.5 -68t-52 -51t-75.5 -19q-54 0 -86 32t-32 81q0 36 19 68t52.5 51t75.5 19q54 0 85.5 -32zM337.5 768q-15.5 -19 -15.5 -43q0 -20 10.5 -31t28.5 -11q27 0 42.5 18.5t15.5 42.5q0 21 -10.5 32
t-29.5 11q-26 0 -41.5 -19z" />
    <glyph glyph-name="aringacute" unicode="&#x1fb;" horiz-adv-x="571" 
d="M524 918l-236 -88l-34 72l220 125zM464.5 797q31.5 -32 31.5 -81q0 -36 -18.5 -68t-52 -51t-75.5 -19q-54 0 -86 32t-32 81q0 36 19 68t52.5 51t75.5 19q54 0 85.5 -32zM331.5 737q-15.5 -19 -15.5 -43q0 -20 10.5 -31t28.5 -11q27 0 42.5 18.5t15.5 42.5q0 21 -10.5 32
t-29.5 11q-26 0 -41.5 -19zM541 493l-52 -348q-2 -18 -2 -23q0 -18 7.5 -27.5t22.5 -15.5l-41 -93q-97 10 -115 88q-65 -90 -157 -90q-84 0 -128 56t-44 153q0 83 31 164t98 135t170 54q110 0 210 -53zM242 405q-34 -38 -49.5 -95.5t-15.5 -116.5q0 -103 69 -103q30 0 56 20
t53 59l40 263q-32 11 -67 11q-52 0 -86 -38z" />
    <glyph glyph-name="uni2C65" unicode="&#x2c65;" horiz-adv-x="571" 
d="M494.5 94.5q7.5 -9.5 22.5 -15.5l-41 -93q-97 10 -115 88q-65 -90 -157 -90q-8 0 -12 1l-24 -58l-50 13l22 55q-53 18 -80.5 70t-27.5 128q0 83 31 164t98 135t170 54q23 0 35 -1l22 54l50 -13l-20 -48q66 -15 123 -45l-52 -348q-2 -18 -2 -23q0 -18 7.5 -27.5zM189 113
l137 335q-53 -1 -87.5 -39.5t-50 -96.5t-15.5 -119q0 -55 16 -80zM400 436q-7 3 -21 7l-146 -357q4 -1 11 -1q61 0 115 80z" />
    <glyph glyph-name="atilde" unicode="&#xe3;" horiz-adv-x="571" 
d="M541 493l-52 -348q-2 -18 -2 -23q0 -18 7.5 -27.5t22.5 -15.5l-41 -93q-97 10 -115 88q-65 -90 -157 -90q-84 0 -128 56t-44 153q0 83 31 164t98 135t170 54q110 0 210 -53zM242 405q-34 -38 -49.5 -95.5t-15.5 -116.5q0 -103 69 -103q30 0 56 20t53 59l40 263
q-32 11 -67 11q-52 0 -86 -38zM385 647.5q-16 7.5 -34 20.5q-13 9 -21.5 13.5t-17.5 4.5q-18 0 -31.5 -11t-29.5 -36l-68 40q26 49 60.5 79t74.5 30q22 0 37 -7t34 -21q12 -9 20 -13.5t17 -4.5q16 0 29.5 11t30.5 34l68 -39q-26 -50 -61 -79t-72 -29q-20 0 -36 7.5z" />
    <glyph glyph-name="uni0250" unicode="&#x250;" horiz-adv-x="539" 
d="M190 175q-1 -9 -1 -24q0 -34 17.5 -47.5t62.5 -13.5q58 0 142 28l22 -96q-50 -18 -101.5 -28t-94.5 -10q-92 0 -140 37t-48 111q0 19 3 40l30 214q2 16 2 22q0 17 -6.5 27t-22.5 16l40 93q45 -4 72 -22t37 -55q61 79 166 79q71 0 111.5 -38.5t40.5 -102.5
q0 -98 -73.5 -149.5t-192.5 -51.5h-62zM220 382l-14 -98h43q63 0 97 26.5t34 78.5q0 27 -14.5 41t-41.5 14q-63 0 -104 -62z" />
    <glyph glyph-name="ae" unicode="&#xe6;" horiz-adv-x="837" 
d="M391.5 527q37.5 -19 59.5 -55q31 33 78 53.5t102 20.5q60 0 103 -19t65 -51.5t22 -72.5q0 -101 -94.5 -147t-249.5 -60q2 -57 28.5 -81t72.5 -24q35 0 67 12t70 37l52 -86q-97 -70 -206 -70q-66 0 -113.5 23t-73.5 66q-43 -48 -91 -68.5t-106 -20.5q-74 0 -117 39.5
t-43 103.5q0 82 63 136.5t209 54.5h64q5 24 18 59q-3 29 -31 45.5t-73 16.5q-59 0 -137 -25l-23 96q95 36 187 36q60 0 97.5 -19zM529.5 402q-33.5 -47 -45.5 -117q99 9 146.5 38t47.5 73q0 22 -13.5 37.5t-44.5 15.5q-57 0 -90.5 -47zM293 234q-126 0 -126 -92
q0 -56 58 -56q32 0 60 17.5t58 52.5q-2 11 -2.5 35t0.5 43h-48z" />
    <glyph glyph-name="aeacute" unicode="&#x1fd;" horiz-adv-x="837" 
d="M391.5 527q37.5 -19 59.5 -55q31 33 78 53.5t102 20.5q60 0 103 -19t65 -51.5t22 -72.5q0 -101 -94.5 -147t-249.5 -60q2 -57 28.5 -81t72.5 -24q35 0 67 12t70 37l52 -86q-97 -70 -206 -70q-66 0 -113.5 23t-73.5 66q-43 -48 -91 -68.5t-106 -20.5q-74 0 -117 39.5
t-43 103.5q0 82 63 136.5t209 54.5h64q5 24 18 59q-3 29 -31 45.5t-73 16.5q-59 0 -137 -25l-23 96q95 36 187 36q60 0 97.5 -19zM529.5 402q-33.5 -47 -45.5 -117q99 9 146.5 38t47.5 73q0 22 -13.5 37.5t-44.5 15.5q-57 0 -90.5 -47zM293 234q-126 0 -126 -92
q0 -56 58 -56q32 0 60 17.5t58 52.5q-2 11 -2.5 35t0.5 43h-48zM622 718l-239 -92l-29 73l227 128z" />
    <glyph glyph-name="uni01E3" unicode="&#x1e3;" horiz-adv-x="837" 
d="M391.5 527q37.5 -19 59.5 -55q31 33 78 53.5t102 20.5q60 0 103 -19t65 -51.5t22 -72.5q0 -101 -94.5 -147t-249.5 -60q2 -57 28.5 -81t72.5 -24q35 0 67 12t70 37l52 -86q-97 -70 -206 -70q-66 0 -113.5 23t-73.5 66q-43 -48 -91 -68.5t-106 -20.5q-74 0 -117 39.5
t-43 103.5q0 82 63 136.5t209 54.5h64q5 24 18 59q-3 29 -31 45.5t-73 16.5q-59 0 -137 -25l-23 96q95 36 187 36q60 0 97.5 -19zM529.5 402q-33.5 -47 -45.5 -117q99 9 146.5 38t47.5 73q0 22 -13.5 37.5t-44.5 15.5q-57 0 -90.5 -47zM293 234q-126 0 -126 -92
q0 -56 58 -56q32 0 60 17.5t58 52.5q-2 11 -2.5 35t0.5 43h-48zM333 658l13 100h294l-14 -100h-293z" />
    <glyph glyph-name="b" unicode="b" horiz-adv-x="581" 
d="M239 483q31 30 69 46.5t78 16.5q79 0 120.5 -53.5t41.5 -153.5q0 -86 -28.5 -166.5t-96 -134.5t-178.5 -54q-54 0 -104 10.5t-106 31.5l101 715l141 16zM224 376l-38 -274q39 -13 73 -13q50 0 82.5 38.5t47.5 96t15 115.5q0 102 -71 102q-54 0 -109 -65z" />
    <glyph glyph-name="uni1E03" unicode="&#x1e03;" horiz-adv-x="581" 
d="M239 483q31 30 69 46.5t78 16.5q79 0 120.5 -53.5t41.5 -153.5q0 -86 -28.5 -166.5t-96 -134.5t-178.5 -54q-54 0 -104 10.5t-106 31.5l101 715l141 16zM224 376l-38 -274q39 -13 73 -13q50 0 82.5 38.5t47.5 96t15 115.5q0 102 -71 102q-54 0 -109 -65zM472 957
q21 -21 21 -54q0 -38 -27.5 -64.5t-67.5 -26.5q-35 0 -56 21t-21 54q0 38 27.5 64.5t67.5 26.5q35 0 56 -21z" />
    <glyph glyph-name="uni1E05" unicode="&#x1e05;" horiz-adv-x="581" 
d="M239 483q31 30 69 46.5t78 16.5q79 0 120.5 -53.5t41.5 -153.5q0 -86 -28.5 -166.5t-96 -134.5t-178.5 -54q-54 0 -104 10.5t-106 31.5l101 715l141 16zM224 376l-38 -274q39 -13 73 -13q50 0 82.5 38.5t47.5 96t15 115.5q0 102 -71 102q-54 0 -109 -65zM171 -209.5
q-21 20.5 -21 53.5q0 39 27 65.5t67 26.5q35 0 56 -21t21 -53q0 -39 -27.5 -65.5t-66.5 -26.5q-35 0 -56 20.5z" />
    <glyph glyph-name="uni0253" unicode="&#x253;" horiz-adv-x="581" 
d="M506.5 492.5q41.5 -53.5 41.5 -153.5q0 -86 -28.5 -166.5t-96 -134.5t-178.5 -54q-54 0 -104 10.5t-106 31.5l71 503l8 56q11 77 66 124.5t145 47.5q73 0 137 -33l-50 -92q-37 19 -80 19q-37 0 -55.5 -18t-23.5 -56l-7 -48l-6 -46q30 30 68 46.5t77 16.5
q80 0 121.5 -53.5zM341.5 127.5q32.5 38.5 47.5 96t15 115.5q0 102 -71 102q-54 0 -109 -65l-38 -274q39 -13 73 -13q50 0 82.5 38.5z" />
    <glyph glyph-name="uni02AD" unicode="&#x2ad;" horiz-adv-x="359" 
d="M260 399l12 85h-123l-13 -85h-86l23 161h295l-23 -161h-85zM204 -1l12 85h-123l-13 -85h-86l23 161h295l-23 -161h-85z" />
    <glyph glyph-name="uni0298" unicode="&#x298;" horiz-adv-x="786" 
d="M617.5 672q70.5 -36 108.5 -103t38 -160q0 -120 -51 -217t-143.5 -152.5t-211.5 -55.5q-95 0 -165.5 36t-109 104t-38.5 160q0 120 52 216.5t144.5 152t210.5 55.5q95 0 165.5 -36zM300 563q-59 -44 -88.5 -118.5t-29.5 -165.5q0 -99 48 -146t135 -47q86 0 145 43.5
t88.5 117t29.5 164.5q0 99 -48.5 147.5t-134.5 48.5t-145 -44zM464 403q19 -19 19 -48q0 -35 -24.5 -59.5t-61.5 -24.5q-32 0 -50.5 19t-18.5 48q0 35 24.5 59.5t60.5 24.5q32 0 51 -19z" />
    <glyph glyph-name="uni02AC" unicode="&#x2ac;" horiz-adv-x="470" 
d="M394 400h-99l-10 194l-68 -194h-98l-29 267h78l10 -205l72 205h91l12 -206l66 206h74zM337 0h-99l-10 194l-68 -194h-98l-29 267h78l10 -205l72 205h91l12 -206l66 206h74z" />
    <glyph glyph-name="uni0180" unicode="&#x180;" horiz-adv-x="590" 
d="M516 492q42 -54 42 -153q0 -86 -28.5 -166.5t-96 -134.5t-178.5 -54q-54 0 -104 10t-107 32l81 572h-65l12 87h65l8 56l141 16l-10 -72h142l-25 -87h-129l-16 -115q31 30 69.5 46.5t78.5 16.5q78 0 120 -54zM351.5 127.5q32.5 38.5 47.5 96t15 115.5q0 102 -72 102
q-54 0 -109 -65l-38 -274q39 -13 74 -13q50 0 82.5 38.5z" />
    <glyph glyph-name="uni0183" unicode="&#x183;" horiz-adv-x="582" 
d="M507 483q42 -54 42 -154q0 -81 -28.5 -159.5t-96.5 -132t-178 -53.5q-54 0 -104 10t-107 32l101 715h358l-30 -102h-203l-23 -165q31 30 69.5 46.5t79.5 16.5q78 0 120 -54zM342 127q33 38 48 93t15 108q0 56 -19 79.5t-53 23.5q-57 0 -110 -65l-37 -264q39 -13 74 -13
q49 0 82 38z" />
    <glyph glyph-name="c" unicode="c" horiz-adv-x="471" 
d="M489 481l-70 -83q-22 20 -45 29t-50 9q-77 0 -110.5 -71.5t-33.5 -160.5q0 -57 22.5 -81.5t66.5 -24.5q28 0 52.5 9t56.5 29l53 -93q-85 -59 -179 -59q-103 0 -161 60.5t-58 165.5q0 76 30.5 153.5t95.5 130t164 52.5t166 -65z" />
    <glyph glyph-name="cacute" unicode="&#x107;" horiz-adv-x="471" 
d="M489 481l-70 -83q-22 20 -45 29t-50 9q-77 0 -110.5 -71.5t-33.5 -160.5q0 -57 22.5 -81.5t66.5 -24.5q28 0 52.5 9t56.5 29l53 -93q-85 -59 -179 -59q-103 0 -161 60.5t-58 165.5q0 76 30.5 153.5t95.5 130t164 52.5t166 -65zM484 718l-239 -92l-29 73l227 128z" />
    <glyph glyph-name="ccaron" unicode="&#x10d;" horiz-adv-x="471" 
d="M489 481l-70 -83q-22 20 -45 29t-50 9q-77 0 -110.5 -71.5t-33.5 -160.5q0 -57 22.5 -81.5t66.5 -24.5q28 0 52.5 9t56.5 29l53 -93q-85 -59 -179 -59q-103 0 -161 60.5t-58 165.5q0 76 30.5 153.5t95.5 130t164 52.5t166 -65zM531 746l-155 -131h-87l-120 131l56 60
l116 -89l144 89z" />
    <glyph glyph-name="ccedilla" unicode="&#xe7;" horiz-adv-x="471" 
d="M275 -15l-6 -35q44 -4 66.5 -27t22.5 -60q0 -29 -16.5 -56.5t-51 -45.5t-87.5 -18q-61 0 -103 31l42 65q26 -16 58 -16q25 0 39.5 9.5t14.5 27.5q0 17 -19 24t-66 7l25 99q-77 16 -119 73.5t-42 146.5q0 76 30.5 153.5t95.5 130t164 52.5t166 -65l-70 -83q-22 20 -45 29
t-50 9q-77 0 -110.5 -71.5t-33.5 -160.5q0 -57 22.5 -81.5t66.5 -24.5q28 0 52.5 9t56.5 29l53 -93q-75 -52 -156 -58z" />
    <glyph glyph-name="ccircumflex" unicode="&#x109;" horiz-adv-x="471" 
d="M489 481l-70 -83q-22 20 -45 29t-50 9q-77 0 -110.5 -71.5t-33.5 -160.5q0 -57 22.5 -81.5t66.5 -24.5q28 0 52.5 9t56.5 29l53 -93q-85 -59 -179 -59q-103 0 -161 60.5t-58 165.5q0 76 30.5 153.5t95.5 130t164 52.5t166 -65zM161 684l156 131h86l120 -131l-59 -60
l-116 89l-140 -89z" />
    <glyph glyph-name="uni0255" unicode="&#x255;" horiz-adv-x="494" 
d="M431 222q31 -28 31 -79q0 -75 -57.5 -117t-145.5 -42q-34 0 -70 8l-44 -74l-67 30l43 74q-42 27 -64.5 75t-22.5 114q0 76 30.5 153.5t95.5 129.5t163 52q99 0 166 -65l-70 -83q-22 20 -45 29t-50 9q-77 0 -110.5 -70.5t-33.5 -161.5q0 -43 11 -67q32 60 69.5 86.5
t88.5 26.5t82 -28zM333 169q-22 0 -41.5 -16.5t-44.5 -58.5q15 -5 38 -5q35 0 55.5 14t20.5 40t-28 26z" />
    <glyph glyph-name="cdotaccent" unicode="&#x10b;" horiz-adv-x="471" 
d="M489 481l-70 -83q-22 20 -45 29t-50 9q-77 0 -110.5 -71.5t-33.5 -160.5q0 -57 22.5 -81.5t66.5 -24.5q28 0 52.5 9t56.5 29l53 -93q-85 -59 -179 -59q-103 0 -161 60.5t-58 165.5q0 76 30.5 153.5t95.5 130t164 52.5t166 -65zM414.5 782.5q20.5 -20.5 20.5 -52.5
q0 -39 -27 -66t-67 -27q-35 0 -56 21t-21 54q0 38 27.5 64.5t67.5 26.5q35 0 55.5 -20.5z" />
    <glyph glyph-name="uni0188" unicode="&#x188;" horiz-adv-x="471" 
d="M685 718l-53 -87q-16 10 -30.5 15t-33.5 5q-56 0 -65 -67l-14 -103l-60 -72q-54 27 -105 27q-77 0 -110.5 -71.5t-33.5 -160.5q0 -57 22.5 -81.5t66.5 -24.5q28 0 52.5 9t56.5 29l53 -93q-85 -59 -179 -59q-103 0 -161 60.5t-58 165.5q0 75 30.5 153t92 130.5t150.5 52.5
q32 0 64 -10l8 56q11 81 57.5 123t124.5 42q72 0 125 -39z" />
    <glyph glyph-name="uni0297" unicode="&#x297;" horiz-adv-x="483" 
d="M502 481l-67 -80q-22 18 -43 26.5t-47 8.5q-58 0 -97 -60.5t-57.5 -149t-18.5 -174.5q0 -84 21.5 -120.5t63.5 -36.5q27 0 51 9t54 29l52 -91q-81 -61 -172 -61q-103 0 -159 71.5t-56 201.5q0 126 36.5 239t109 183t173.5 70q94 0 156 -65z" />
    <glyph glyph-name="uni023C" unicode="&#x23c;" horiz-adv-x="471" 
d="M321.5 107q24.5 9 56.5 29l53 -93q-85 -59 -179 -59q-19 0 -49 4l-26 -61l-50 13l26 63q-58 24 -89 77.5t-31 129.5t30.5 153.5t95.5 130t164 52.5q24 0 51 -5l24 58l50 -13l-25 -60q36 -16 66 -45l-70 -83q-22 19 -38 26l-133 -325q7 -1 21 -1q28 0 52.5 9zM202 123
l128 313h-6q-77 0 -110.5 -71.5t-33.5 -160.5q0 -54 22 -81z" />
    <glyph glyph-name="d" unicode="d" horiz-adv-x="591" 
d="M589 741l-104 -741h-124l1 79q-28 -43 -68 -69t-90 -26q-82 0 -124.5 56.5t-42.5 156.5q0 80 26.5 160t84 134.5t145.5 54.5q37 0 68 -15t53 -40l37 265zM239.5 401.5q-30.5 -39.5 -43.5 -96.5t-13 -111q0 -56 17 -80t49 -24q34 0 63 27t60 76l29 203q-16 23 -35.5 34
t-46.5 11q-49 0 -79.5 -39.5z" />
    <glyph glyph-name="eth" unicode="&#xf0;" horiz-adv-x="569" 
d="M503.5 539q31.5 -71 31.5 -164q0 -56 -8 -105q-12 -82 -49.5 -147t-97.5 -102t-137 -37q-61 0 -109.5 25t-76 72t-27.5 112q0 68 26 133.5t79.5 108.5t132.5 43q43 0 74.5 -12.5t56.5 -37.5q-7 51 -26 89.5t-55 72.5l-68 -59l-84 42l69 63q-41 15 -90 25l38 95
q78 -15 138 -42l83 79l66 -65l-67 -62q69 -56 100.5 -127zM338 134q34 45 46 129q4 20 8 64q-33 50 -97 50q-68 0 -95 -57t-27 -131q0 -50 20.5 -75t58.5 -25q52 0 86 45z" />
    <glyph glyph-name="uni0238" unicode="&#x238;" horiz-adv-x="856" 
d="M785 492.5q39 -53.5 39 -151.5q0 -91 -29 -173t-83 -133t-127 -51q-77 0 -118 82l-18 -66h-108l1 72q-30 -43 -67.5 -65.5t-80.5 -22.5q-74 0 -115.5 56.5t-41.5 153.5q0 89 29.5 170t84.5 131.5t127 50.5q36 0 65.5 -17.5t48.5 -50.5l37 263l142 16l-40 -284
q60 73 143 73q72 0 111 -53.5zM297 109q25 19 52 60l30 218q-29 54 -74 54q-41 0 -68.5 -38.5t-40.5 -95t-13 -110.5q0 -58 16.5 -82.5t45.5 -24.5q27 0 52 19zM626 128.5q27 39.5 40 97.5t13 111q0 57 -16 80.5t-45 23.5t-53 -17.5t-47 -47.5l-31 -221q14 -35 30.5 -50.5
t41.5 -15.5q40 0 67 39.5z" />
    <glyph glyph-name="dcaron" unicode="&#x10f;" horiz-adv-x="645" 
d="M587 741l-104 -741h-124l1 79q-28 -43 -68 -69t-90 -26q-82 0 -124.5 56.5t-42.5 156.5q0 80 26.5 160t84 134.5t145.5 54.5q37 0 68 -15t53 -40l37 265zM237.5 401.5q-30.5 -39.5 -43.5 -96.5t-13 -111q0 -56 17 -80t49 -24q34 0 63 27t60 76l29 203q-16 23 -35.5 34
t-46.5 11q-49 0 -79.5 -39.5zM746 741l-76 -208l-73 8l41 213z" />
    <glyph glyph-name="uni1E13" unicode="&#x1e13;" horiz-adv-x="591" 
d="M589 741l-104 -741h-124l1 79q-28 -43 -68 -69t-90 -26q-82 0 -124.5 56.5t-42.5 156.5q0 80 26.5 160t84 134.5t145.5 54.5q37 0 68 -15t53 -40l37 265zM239.5 401.5q-30.5 -39.5 -43.5 -96.5t-13 -111q0 -56 17 -80t49 -24q34 0 63 27t60 76l29 203q-16 23 -35.5 34
t-46.5 11q-49 0 -79.5 -39.5zM47 -195l155 131h87l120 -131l-59 -60l-116 89l-140 -89z" />
    <glyph glyph-name="dcroat" unicode="&#x111;" horiz-adv-x="601" 
d="M634 598h-65l-84 -598h-124l1 79q-28 -43 -68 -69t-90 -26q-82 0 -124.5 56.5t-42.5 156.5q0 80 26.5 160t84 134.5t145.5 54.5q37 0 68 -15t53 -40l15 107h-133v87h145l10 71l138 -15l-8 -56h65zM401 396q-16 23 -35.5 34t-46.5 11q-49 0 -79.5 -39.5t-43.5 -96.5
t-13 -111q0 -56 17 -80t49 -24q34 0 63 27t60 76z" />
    <glyph glyph-name="uni0221" unicode="&#x221;" horiz-adv-x="772" 
d="M732.5 213q30.5 -27 30.5 -72q0 -74 -57 -115.5t-145 -41.5q-28 0 -58 5l-41 -71l-68 30l42 67q-45 27 -61 76q-36 -52 -78 -79.5t-93 -27.5q-82 0 -124.5 56.5t-42.5 156.5q0 80 26.5 160t84 134.5t145.5 54.5q37 0 68 -15t53 -40l37 265l138 -15l-81 -577
q-3 -20 -2 -32l1 2q29 53 64 79.5t84 26.5q47 0 77.5 -27zM401 396q-16 23 -35.5 34t-46.5 11q-49 0 -79.5 -39.5t-43.5 -96.5t-13 -111q0 -56 17 -80t49 -24q34 0 63.5 27.5t59.5 76.5zM642 102q21 13 21 35q0 23 -24 23q-19 0 -35.5 -15t-41.5 -55q7 -1 25 -1q34 0 55 13z
" />
    <glyph glyph-name="uni1E0B" unicode="&#x1e0b;" horiz-adv-x="591" 
d="M589 741l-104 -741h-124l1 79q-28 -43 -68 -69t-90 -26q-82 0 -124.5 56.5t-42.5 156.5q0 80 26.5 160t84 134.5t145.5 54.5q37 0 68 -15t53 -40l37 265zM239.5 401.5q-30.5 -39.5 -43.5 -96.5t-13 -111q0 -56 17 -80t49 -24q34 0 63 27t60 76l29 203q-16 23 -35.5 34
t-46.5 11q-49 0 -79.5 -39.5zM433 957q21 -21 21 -54q0 -38 -27.5 -64.5t-67.5 -26.5q-35 0 -56 21t-21 54q0 38 27.5 64.5t67.5 26.5q35 0 56 -21z" />
    <glyph glyph-name="uni1E0D" unicode="&#x1e0d;" horiz-adv-x="591" 
d="M589 741l-104 -741h-124l1 79q-28 -43 -68 -69t-90 -26q-82 0 -124.5 56.5t-42.5 156.5q0 80 26.5 160t84 134.5t145.5 54.5q37 0 68 -15t53 -40l37 265zM239.5 401.5q-30.5 -39.5 -43.5 -96.5t-13 -111q0 -56 17 -80t49 -24q34 0 63 27t60 76l29 203q-16 23 -35.5 34
t-46.5 11q-49 0 -79.5 -39.5zM176 -209.5q-21 20.5 -21 53.5q0 39 27 65.5t67 26.5q35 0 56 -21t21 -53q0 -39 -27.5 -65.5t-66.5 -26.5q-35 0 -56 20.5z" />
    <glyph glyph-name="uni018D" unicode="&#x18d;" horiz-adv-x="571" 
d="M109.5 -203q-44.5 18 -78.5 52l72 71q26 -22 52 -32t60 -10q40 0 60 17t20 45q0 22 -18 37.5t-71 39.5q-87 38 -128.5 88.5t-41.5 128.5q0 66 29 138t93 123t163 51q66 0 115.5 -28t76 -76.5t26.5 -109.5q0 -92 -43 -160.5t-144 -109.5q43 -29 61 -59t18 -65
q0 -40 -24 -76.5t-72.5 -59.5t-117.5 -23q-63 0 -107.5 18zM369.5 203.5q24.5 57.5 24.5 132.5q0 49 -21 76.5t-61 27.5q-49 0 -78.5 -35.5t-41.5 -84t-12 -91.5q0 -44 22 -72.5t76 -55.5q67 45 91.5 102.5z" />
    <glyph glyph-name="uni02A4" unicode="&#x2a4;" horiz-adv-x="989" 
d="M963 431l-218 -220q92 -4 141 -48.5t49 -122.5q0 -77 -37.5 -136t-103 -91.5t-148.5 -32.5q-141 0 -214 101l82 71q32 -34 62.5 -48t71.5 -14q66 0 104.5 41t38.5 108q0 47 -28 66t-89 19h-90l1 1l11 85l205 212h-257l-59 -422h-124l1 79q-28 -43 -68 -69t-90 -26
q-82 0 -124.5 56.5t-42.5 156.5q0 80 26.5 160t84 134.5t145.5 54.5q37 0 68 -15t53 -40l37 265l138 -15l-30 -211h417zM401 396q-16 23 -35.5 34t-46.5 11q-49 0 -79.5 -39.5t-43.5 -96.5t-13 -111q0 -56 17 -80t49 -24q34 0 63 27t60 76z" />
    <glyph glyph-name="uni0257" unicode="&#x257;" horiz-adv-x="591" 
d="M750 718l-53 -87q-17 10 -31.5 15t-32.5 5q-57 0 -66 -67l-8 -54l-74 -530h-124l1 79q-28 -43 -68 -69t-90 -26q-82 0 -124.5 56.5t-42.5 156.5q0 80 26.5 160t84 134.5t145.5 54.5q37 0 68 -15t53 -40l5 39l8 52q11 81 62.5 128t134.5 47q71 0 126 -39zM401 396
q-16 23 -35.5 34t-46.5 11q-49 0 -79.5 -39.5t-43.5 -96.5t-13 -111q0 -56 17 -80t49 -24q34 0 63 27t60 76z" />
    <glyph glyph-name="uni1E0F" unicode="&#x1e0f;" horiz-adv-x="591" 
d="M589 741l-104 -741h-124l1 79q-28 -43 -68 -69t-90 -26q-82 0 -124.5 56.5t-42.5 156.5q0 80 26.5 160t84 134.5t145.5 54.5q37 0 68 -15t53 -40l37 265zM239.5 401.5q-30.5 -39.5 -43.5 -96.5t-13 -111q0 -56 17 -80t49 -24q34 0 63 27t60 76l29 203q-16 23 -35.5 34
t-46.5 11q-49 0 -79.5 -39.5zM400 -87l-14 -100h-293l13 100h294z" />
    <glyph glyph-name="uni0256" unicode="&#x256;" horiz-adv-x="597" 
d="M639 -180q-62 -40 -138 -40t-119.5 38.5t-43.5 111.5q0 22 2 34l5 36l11 71q-23 -37 -62.5 -62t-89.5 -25q-82 0 -124.5 56.5t-42.5 156.5q0 80 26.5 160t84 134.5t145.5 54.5q37 0 68 -15t53 -40l37 265l138 -15l-104 -741l-7 -52q-1 -6 -1 -16q0 -24 12 -35t36 -11
q21 0 36.5 4.5t37.5 15.5zM312 117q29 27 60 76l29 203q-16 23 -35.5 34t-46.5 11q-49 0 -79.5 -39.5t-43.5 -96.5t-13 -111q0 -56 17 -80t49 -24q34 0 63 27z" />
    <glyph glyph-name="uni018C" unicode="&#x18c;" horiz-adv-x="599" 
d="M486 0h-124l1 79q-29 -43 -68.5 -69t-89.5 -26q-82 0 -124.5 56.5t-42.5 156.5q0 79 26 157t82.5 130.5t142.5 52.5q76 0 124 -56l22 158h-211l15 102h351zM400 386q-16 23 -35.5 34.5t-46.5 11.5q-48 0 -78 -38t-43.5 -92.5t-13.5 -107.5q0 -104 66 -104q35 0 64 27
t59 76z" />
    <glyph glyph-name="uni01F3" unicode="&#x1f3;" horiz-adv-x="1036" 
d="M589 741l-104 -741h-124l1 79q-28 -43 -68 -69t-90 -26q-82 0 -124.5 56.5t-42.5 156.5q0 80 26.5 160t84 134.5t145.5 54.5q37 0 68 -15t53 -40l37 265zM239.5 401.5q-30.5 -39.5 -43.5 -96.5t-13 -111q0 -56 17 -80t49 -24q34 0 63 27t60 76l29 203q-16 23 -35.5 34
t-46.5 11q-49 0 -79.5 -39.5zM1035 429l-278 -319h238l-29 -110h-398l13 102l280 319h-213l16 109h385z" />
    <glyph glyph-name="uni02A3" unicode="&#x2a3;" horiz-adv-x="951" 
d="M951 429l-288 -319h247l-28 -110h-521l1 79q-28 -43 -68 -69t-90 -26q-82 0 -124.5 56.5t-42.5 156.5q0 80 26.5 160t84 134.5t145.5 54.5q37 0 68 -15t53 -40l37 265l138 -15l-29 -211h404zM401 396q-16 23 -35.5 34t-46.5 11q-49 0 -79.5 -39.5t-43.5 -96.5t-13 -111
q0 -56 17 -80t49 -24q34 0 63 27t60 76zM780 421h-236l-45 -319z" />
    <glyph glyph-name="uni01C6" unicode="&#x1c6;" horiz-adv-x="1036" 
d="M589 741l-104 -741h-124l1 79q-28 -43 -68 -69t-90 -26q-82 0 -124.5 56.5t-42.5 156.5q0 80 26.5 160t84 134.5t145.5 54.5q37 0 68 -15t53 -40l37 265zM239.5 401.5q-30.5 -39.5 -43.5 -96.5t-13 -111q0 -56 17 -80t49 -24q34 0 63 27t60 76l29 203q-16 23 -35.5 34
t-46.5 11q-49 0 -79.5 -39.5zM1035 429l-278 -319h238l-29 -110h-398l13 102l280 319h-213l16 109h385zM1065 746l-155 -131h-87l-120 131l56 60l116 -89l144 89z" />
    <glyph glyph-name="uni02A5" unicode="&#x2a5;" horiz-adv-x="1016" 
d="M965 37.5q-60 -37.5 -161 -37.5q-7 -25 -13 -59.5t-11 -69.5l-84 4q14 85 23 125h-358l1 79q-28 -43 -68 -69t-90 -26q-82 0 -124.5 56.5t-42.5 156.5q0 80 26.5 160t84 134.5t145.5 54.5q37 0 68 -15t53 -40l37 265l138 -15l-29 -211h404l-13 -97l-295 -323h94
q28 76 70 109.5t98 33.5q48 0 77.5 -26t29.5 -72q0 -80 -60 -117.5zM401 396q-16 23 -35.5 34t-46.5 11q-49 0 -79.5 -39.5t-43.5 -96.5t-13 -111q0 -56 17 -80t49 -24q34 0 63 27t60 76zM500 103l287 318h-243zM903.5 120q22.5 10 22.5 34q0 22 -24 22q-20 0 -36.5 -15.5
t-29.5 -50.5q45 0 67.5 10z" />
    <glyph glyph-name="e" unicode="e" horiz-adv-x="532" 
d="M422.5 255.5q-93.5 -46.5 -247.5 -61.5q4 -103 99 -103q34 0 67 12t70 37l52 -86q-97 -70 -206 -70t-166.5 59.5t-57.5 162.5q0 80 30 158t96 130t168 52q90 0 139.5 -40.5t49.5 -102.5q0 -101 -93.5 -147.5zM327 322q47 30 47 74q0 22 -14 37.5t-45 15.5
q-57 0 -89.5 -48t-43.5 -118q98 9 145 39z" />
    <glyph glyph-name="eacute" unicode="&#xe9;" horiz-adv-x="532" 
d="M422.5 255.5q-93.5 -46.5 -247.5 -61.5q4 -103 99 -103q34 0 67 12t70 37l52 -86q-97 -70 -206 -70t-166.5 59.5t-57.5 162.5q0 80 30 158t96 130t168 52q90 0 139.5 -40.5t49.5 -102.5q0 -101 -93.5 -147.5zM327 322q47 30 47 74q0 22 -14 37.5t-45 15.5
q-57 0 -89.5 -48t-43.5 -118q98 9 145 39zM476 718l-239 -92l-29 73l227 128z" />
    <glyph glyph-name="ebreve" unicode="&#x115;" horiz-adv-x="532" 
d="M422.5 255.5q-93.5 -46.5 -247.5 -61.5q4 -103 99 -103q34 0 67 12t70 37l52 -86q-97 -70 -206 -70t-166.5 59.5t-57.5 162.5q0 80 30 158t96 130t168 52q90 0 139.5 -40.5t49.5 -102.5q0 -101 -93.5 -147.5zM327 322q47 30 47 74q0 22 -14 37.5t-45 15.5
q-57 0 -89.5 -48t-43.5 -118q98 9 145 39zM215 681.5q-38 46.5 -34 118.5l81 11q8 -76 71 -76q34 0 59.5 21t39.5 58l78 -18q-15 -72 -64.5 -116.5t-120.5 -44.5q-72 0 -110 46.5z" />
    <glyph glyph-name="ecaron" unicode="&#x11b;" horiz-adv-x="532" 
d="M422.5 255.5q-93.5 -46.5 -247.5 -61.5q4 -103 99 -103q34 0 67 12t70 37l52 -86q-97 -70 -206 -70t-166.5 59.5t-57.5 162.5q0 80 30 158t96 130t168 52q90 0 139.5 -40.5t49.5 -102.5q0 -101 -93.5 -147.5zM327 322q47 30 47 74q0 22 -14 37.5t-45 15.5
q-57 0 -89.5 -48t-43.5 -118q98 9 145 39zM523 746l-155 -131h-87l-120 131l56 60l116 -89l144 89z" />
    <glyph glyph-name="uni0229" unicode="&#x229;" horiz-adv-x="532" 
d="M422.5 255.5q-93.5 -46.5 -247.5 -61.5q4 -103 99 -103q34 0 67 12t70 37l52 -86q-83 -60 -175 -68l-6 -36q44 -4 66.5 -27t22.5 -60q0 -29 -16.5 -56.5t-51 -45.5t-87.5 -18q-61 0 -103 31l42 65q26 -16 58 -16q25 0 39.5 9.5t14.5 27.5q0 17 -19 24t-66 7l24 97
q-85 13 -129 70.5t-44 147.5q0 80 30 158t96 130t168 52q90 0 139.5 -40.5t49.5 -102.5q0 -101 -93.5 -147.5zM327 322q47 30 47 74q0 22 -14 37.5t-45 15.5q-57 0 -89.5 -48t-43.5 -118q98 9 145 39z" />
    <glyph glyph-name="ecircumflex" unicode="&#xea;" horiz-adv-x="532" 
d="M422.5 255.5q-93.5 -46.5 -247.5 -61.5q4 -103 99 -103q34 0 67 12t70 37l52 -86q-97 -70 -206 -70t-166.5 59.5t-57.5 162.5q0 80 30 158t96 130t168 52q90 0 139.5 -40.5t49.5 -102.5q0 -101 -93.5 -147.5zM327 322q47 30 47 74q0 22 -14 37.5t-45 15.5
q-57 0 -89.5 -48t-43.5 -118q98 9 145 39zM153 684l156 131h86l120 -131l-59 -60l-116 89l-140 -89z" />
    <glyph glyph-name="uni1EBF" unicode="&#x1ebf;" horiz-adv-x="532" 
d="M492 728l-50 49l148 164l70 -76zM194 586l-47 60l155 124h86l121 -124l-56 -60l-118 84zM466.5 505.5q49.5 -40.5 49.5 -102.5q0 -101 -93.5 -147.5t-247.5 -61.5q4 -103 99 -103q34 0 67 12t70 37l52 -86q-97 -70 -206 -70t-166.5 59.5t-57.5 162.5q0 80 30 158t96 130
t168 52q90 0 139.5 -40.5zM327 322q47 30 47 74q0 22 -14 37.5t-45 15.5q-57 0 -89.5 -48t-43.5 -118q98 9 145 39z" />
    <glyph glyph-name="uni1EC7" unicode="&#x1ec7;" horiz-adv-x="532" 
d="M422.5 255.5q-93.5 -46.5 -247.5 -61.5q4 -103 99 -103q34 0 67 12t70 37l52 -86q-97 -70 -206 -70t-166.5 59.5t-57.5 162.5q0 80 30 158t96 130t168 52q90 0 139.5 -40.5t49.5 -102.5q0 -101 -93.5 -147.5zM327 322q47 30 47 74q0 22 -14 37.5t-45 15.5
q-57 0 -89.5 -48t-43.5 -118q98 9 145 39zM153 684l156 131h86l120 -131l-59 -60l-116 89l-140 -89zM171 -209.5q-21 20.5 -21 53.5q0 39 27 65.5t67 26.5q35 0 56 -21t21 -53q0 -39 -27.5 -65.5t-66.5 -26.5q-35 0 -56 20.5z" />
    <glyph glyph-name="uni1EC1" unicode="&#x1ec1;" horiz-adv-x="532" 
d="M192 728l-133 137l85 74l105 -164zM147 646l155 124h86l121 -124l-56 -60l-118 84l-141 -84zM422.5 255.5q-93.5 -46.5 -247.5 -61.5q4 -103 99 -103q34 0 67 12t70 37l52 -86q-97 -70 -206 -70t-166.5 59.5t-57.5 162.5q0 80 30 158t96 130t168 52q90 0 139.5 -40.5
t49.5 -102.5q0 -101 -93.5 -147.5zM327 322q47 30 47 74q0 22 -14 37.5t-45 15.5q-57 0 -89.5 -48t-43.5 -118q98 9 145 39z" />
    <glyph glyph-name="uni1EC3" unicode="&#x1ec3;" horiz-adv-x="532" 
d="M619 965q28 -24 28 -65q0 -42 -25 -68t-70 -34l-8 -54h-87l12 99q38 2 58 12.5t20 32.5q0 26 -35 26q-28 0 -60 -15l-19 65q45 25 106 25q52 0 80 -24zM194 586l-47 60l155 124h86l121 -124l-56 -60l-118 84zM466.5 505.5q49.5 -40.5 49.5 -102.5q0 -101 -93.5 -147.5
t-247.5 -61.5q4 -103 99 -103q34 0 67 12t70 37l52 -86q-97 -70 -206 -70t-166.5 59.5t-57.5 162.5q0 80 30 158t96 130t168 52q90 0 139.5 -40.5zM327 322q47 30 47 74q0 22 -14 37.5t-45 15.5q-57 0 -89.5 -48t-43.5 -118q98 9 145 39z" />
    <glyph glyph-name="uni1EC5" unicode="&#x1ec5;" horiz-adv-x="532" 
d="M277.5 824.5q-13.5 -10.5 -29.5 -33.5l-67 38q26 46 60.5 75t73.5 29q21 0 36.5 -7t33.5 -20q11 -9 19 -13t17 -4q17 0 30.5 10.5t29.5 32.5l68 -37q-26 -48 -60.5 -75.5t-71.5 -27.5q-20 0 -35 6.5t-35 19.5q-12 9 -20.5 13t-17.5 4q-18 0 -31.5 -10.5zM193 581l-47 60
l155 124h86l121 -124l-56 -60l-118 84zM466.5 505.5q49.5 -40.5 49.5 -102.5q0 -101 -93.5 -147.5t-247.5 -61.5q4 -103 99 -103q34 0 67 12t70 37l52 -86q-97 -70 -206 -70t-166.5 59.5t-57.5 162.5q0 80 30 158t96 130t168 52q90 0 139.5 -40.5zM327 322q47 30 47 74
q0 22 -14 37.5t-45 15.5q-57 0 -89.5 -48t-43.5 -118q98 9 145 39z" />
    <glyph glyph-name="uni0205" unicode="&#x205;" horiz-adv-x="532" 
d="M422.5 255.5q-93.5 -46.5 -247.5 -61.5q4 -103 99 -103q34 0 67 12t70 37l52 -86q-97 -70 -206 -70t-166.5 59.5t-57.5 162.5q0 80 30 158t96 130t168 52q90 0 139.5 -40.5t49.5 -102.5q0 -101 -93.5 -147.5zM327 322q47 30 47 74q0 22 -14 37.5t-45 15.5
q-57 0 -89.5 -48t-43.5 -118q98 9 145 39zM306 662l-79 -35l-92 176l105 50zM464 664l-78 -32l-84 173l105 48z" />
    <glyph glyph-name="edieresis" unicode="&#xeb;" horiz-adv-x="532" 
d="M422.5 255.5q-93.5 -46.5 -247.5 -61.5q4 -103 99 -103q34 0 67 12t70 37l52 -86q-97 -70 -206 -70t-166.5 59.5t-57.5 162.5q0 80 30 158t96 130t168 52q90 0 139.5 -40.5t49.5 -102.5q0 -101 -93.5 -147.5zM327 322q47 30 47 74q0 22 -14 37.5t-45 15.5
q-57 0 -89.5 -48t-43.5 -118q98 9 145 39zM284.5 773.5q18.5 -18.5 18.5 -46.5q0 -34 -23.5 -58.5t-57.5 -24.5q-32 0 -51.5 23t-15.5 55q5 30 28 50t53 20t48.5 -18.5zM507.5 773.5q18.5 -18.5 18.5 -46.5q0 -34 -23 -58.5t-58 -24.5q-29 0 -48 19t-19 48q0 33 23.5 57
t57.5 24q30 0 48.5 -18.5z" />
    <glyph glyph-name="edotaccent" unicode="&#x117;" horiz-adv-x="532" 
d="M422.5 255.5q-93.5 -46.5 -247.5 -61.5q4 -103 99 -103q34 0 67 12t70 37l52 -86q-97 -70 -206 -70t-166.5 59.5t-57.5 162.5q0 80 30 158t96 130t168 52q90 0 139.5 -40.5t49.5 -102.5q0 -101 -93.5 -147.5zM327 322q47 30 47 74q0 22 -14 37.5t-45 15.5
q-57 0 -89.5 -48t-43.5 -118q98 9 145 39zM406.5 782.5q20.5 -20.5 20.5 -52.5q0 -39 -27 -66t-67 -27q-35 0 -56 21t-21 54q0 38 27.5 64.5t67.5 26.5q35 0 55.5 -20.5z" />
    <glyph glyph-name="uni1EB9" unicode="&#x1eb9;" horiz-adv-x="532" 
d="M422.5 255.5q-93.5 -46.5 -247.5 -61.5q4 -103 99 -103q34 0 67 12t70 37l52 -86q-97 -70 -206 -70t-166.5 59.5t-57.5 162.5q0 80 30 158t96 130t168 52q90 0 139.5 -40.5t49.5 -102.5q0 -101 -93.5 -147.5zM327 322q47 30 47 74q0 22 -14 37.5t-45 15.5
q-57 0 -89.5 -48t-43.5 -118q98 9 145 39zM171 -209.5q-21 20.5 -21 53.5q0 39 27 65.5t67 26.5q35 0 56 -21t21 -53q0 -39 -27.5 -65.5t-66.5 -26.5q-35 0 -56 20.5z" />
    <glyph glyph-name="egrave" unicode="&#xe8;" horiz-adv-x="532" 
d="M422.5 255.5q-93.5 -46.5 -247.5 -61.5q4 -103 99 -103q34 0 67 12t70 37l52 -86q-97 -70 -206 -70t-166.5 59.5t-57.5 162.5q0 80 30 158t96 130t168 52q90 0 139.5 -40.5t49.5 -102.5q0 -101 -93.5 -147.5zM327 322q47 30 47 74q0 22 -14 37.5t-45 15.5
q-57 0 -89.5 -48t-43.5 -118q98 9 145 39zM484 700l-45 -72l-217 90l67 112z" />
    <glyph glyph-name="uni1EBB" unicode="&#x1ebb;" horiz-adv-x="532" 
d="M422.5 255.5q-93.5 -46.5 -247.5 -61.5q4 -103 99 -103q34 0 67 12t70 37l52 -86q-97 -70 -206 -70t-166.5 59.5t-57.5 162.5q0 80 30 158t96 130t168 52q90 0 139.5 -40.5t49.5 -102.5q0 -101 -93.5 -147.5zM327 322q47 30 47 74q0 22 -14 37.5t-45 15.5
q-57 0 -89.5 -48t-43.5 -118q98 9 145 39zM294 705q38 2 58 12.5t20 32.5q0 26 -35 26q-28 0 -60 -15l-19 65q45 25 106 25q52 0 80 -24t28 -65q0 -42 -25 -68t-70 -34l-8 -54h-87z" />
    <glyph glyph-name="uni0207" unicode="&#x207;" horiz-adv-x="532" 
d="M422.5 255.5q-93.5 -46.5 -247.5 -61.5q4 -103 99 -103q34 0 67 12t70 37l52 -86q-97 -70 -206 -70t-166.5 59.5t-57.5 162.5q0 80 30 158t96 130t168 52q90 0 139.5 -40.5t49.5 -102.5q0 -101 -93.5 -147.5zM327 322q47 30 47 74q0 22 -14 37.5t-45 15.5
q-57 0 -89.5 -48t-43.5 -118q98 9 145 39zM161 622q16 71 66 115.5t121 44.5q73 0 111.5 -46.5t35.5 -118.5l-82 -11q-9 76 -74 76q-67 0 -99 -79z" />
    <glyph glyph-name="emacron" unicode="&#x113;" horiz-adv-x="532" 
d="M422.5 255.5q-93.5 -46.5 -247.5 -61.5q4 -103 99 -103q34 0 67 12t70 37l52 -86q-97 -70 -206 -70t-166.5 59.5t-57.5 162.5q0 80 30 158t96 130t168 52q90 0 139.5 -40.5t49.5 -102.5q0 -101 -93.5 -147.5zM327 322q47 30 47 74q0 22 -14 37.5t-45 15.5
q-57 0 -89.5 -48t-43.5 -118q98 9 145 39zM187 658l13 100h294l-14 -100h-293z" />
    <glyph glyph-name="eogonek" unicode="&#x119;" horiz-adv-x="532" 
d="M422.5 255.5q-93.5 -46.5 -247.5 -61.5q4 -103 99 -103q34 0 67 12t70 37l52 -86q-57 -40 -116 -57q-56 -25 -77 -49.5t-21 -50.5q0 -20 12 -30t38 -10q30 0 62 7l-17 -91q-37 -7 -69 -7q-60 0 -97 29t-37 77q0 73 80 114q-92 10 -140 68t-48 152q0 80 30 158t96 130
t168 52q90 0 139.5 -40.5t49.5 -102.5q0 -101 -93.5 -147.5zM327 322q47 30 47 74q0 22 -14 37.5t-45 15.5q-57 0 -89.5 -48t-43.5 -118q98 9 145 39z" />
    <glyph glyph-name="uni025B" unicode="&#x25b;" horiz-adv-x="486" 
d="M78 25.5q-57 41.5 -57 113.5q0 59 40 97.5t119 46.5q-102 26 -102 109q0 43 25 78t73 55.5t116 20.5q114 0 186 -64l-66 -71q-26 18 -51 26.5t-58 8.5q-41 0 -64 -18.5t-23 -48.5q0 -27 18.5 -42.5t53.5 -15.5h66l-28 -95h-55q-105 0 -105 -78q0 -29 22 -45t66 -16
q33 0 63.5 11t72.5 35l49 -83q-41 -31 -95.5 -48.5t-114.5 -17.5q-94 0 -151 41.5z" />
    <glyph glyph-name="uni029A" unicode="&#x29a;" horiz-adv-x="565" 
d="M78.5 26q-57.5 42 -57.5 115q0 57 40.5 95.5t120.5 46.5q-100 26 -100 106q0 42 26 78t76.5 57.5t119.5 21.5q109 0 167.5 -61t58.5 -167q0 -98 -35 -173.5t-102.5 -118t-160.5 -42.5q-96 0 -153.5 42zM356.5 154q34.5 67 34.5 163q0 68 -23 98.5t-69 30.5
q-38 0 -59.5 -18.5t-21.5 -47.5q0 -28 17.5 -43.5t52.5 -15.5h33l-27 -95h-23q-105 0 -105 -78q0 -29 20.5 -45t60.5 -16q75 0 109.5 67z" />
    <glyph glyph-name="uni025C" unicode="&#x25c;" horiz-adv-x="488" 
d="M394 510q52 -36 52 -99q0 -48 -33.5 -82t-96.5 -47q59 -7 90.5 -38.5t31.5 -81.5q0 -47 -26 -87.5t-81.5 -65.5t-139.5 -25q-125 0 -205 66l68 80q33 -22 65 -32.5t69 -10.5q53 0 79 22t26 57q0 60 -92 60h-80l22 95h57q51 0 77 20t26 52q0 53 -68 53q-36 0 -65 -9.5
t-63 -29.5l-55 79q91 60 210 60q80 0 132 -36z" />
    <glyph glyph-name="uni025E" unicode="&#x25e;" horiz-adv-x="562" 
d="M90.5 41.5q-57.5 57.5 -57.5 163.5q0 97 36.5 174.5t104.5 122t159 44.5q82 0 134.5 -36.5t52.5 -99.5q0 -48 -33.5 -81.5t-96.5 -46.5q59 -7 90.5 -38.5t31.5 -81.5q0 -47 -26.5 -87.5t-83.5 -65.5t-142 -25q-112 0 -169.5 57.5zM343.5 109.5q25.5 22.5 25.5 58.5
q0 31 -23.5 44.5t-70.5 13.5h-28l21 95h6q52 0 78 20t26 53q0 52 -62 52q-49 0 -81.5 -37.5t-47.5 -93.5t-15 -114q0 -61 22 -87.5t71 -26.5q53 0 78.5 22.5z" />
    <glyph glyph-name="uni025D" unicode="&#x25d;" horiz-adv-x="749" 
d="M774 344q-57 -36 -125 -36q-69 0 -103.5 33t-34.5 89l1 8l-66 -35q-3 -45 -36.5 -77t-93.5 -44q59 -7 90.5 -38.5t31.5 -81.5q0 -47 -26 -87.5t-81.5 -65.5t-139.5 -25q-125 0 -205 66l68 80q33 -22 65 -32.5t69 -10.5q53 0 79 22t26 57q0 60 -92 60h-80l22 95h57
q51 0 77 20t26 52q0 53 -68 53q-36 0 -65 -9.5t-63 -29.5l-55 79q91 60 210 60q53 0 95 -16.5t65 -46.5l97 47h119l-8 -64q-1 -6 -1 -16q0 -40 43 -40q20 0 34 4t35 14z" />
    <glyph glyph-name="uni0258" unicode="&#x258;" horiz-adv-x="535" 
d="M445.5 481q54.5 -65 53.5 -168q1 -94 -34 -169t-100.5 -117.5t-155.5 -42.5q-116 0 -195 72l67 79q30 -23 59.5 -33.5t68.5 -10.5q49 0 82 27t49 75q-139 9 -214.5 49t-75.5 125q0 51 28 91.5t79 64t116 23.5q118 0 172.5 -65zM232.5 309q39.5 -22 125.5 -26q1 14 1 43
q0 123 -89 123q-35 0 -56 -21t-21 -56q0 -41 39.5 -63z" />
    <glyph glyph-name="uni0283" unicode="&#x283;" horiz-adv-x="316" 
d="M455 718l-52 -87q-17 10 -31.5 15t-33.5 5q-56 0 -66 -67l-7 -54l-74 -530l-6 -40q-14 -89 -68.5 -134.5t-136.5 -45.5q-77 0 -130 43l58 83q18 -11 32 -15.5t33 -4.5q30 0 48.5 16.5t22.5 49.5l7 48l74 530l7 52q11 82 62.5 128.5t135.5 46.5q70 0 125 -39z" />
    <glyph glyph-name="uni0286" unicode="&#x286;" horiz-adv-x="346" 
d="M486 718l-53 -87q-17 10 -31.5 15t-32.5 5q-57 0 -66 -67l-8 -54l-73 -524q0 -5 -2 -13q49 -14 96 -39l-33 -60q-41 18 -80 29q-25 -71 -75.5 -106.5t-129.5 -35.5q-61 0 -95.5 30t-34.5 81q0 59 44.5 94.5t112.5 35.5q41 0 60 -3l70 511l8 52q11 81 62.5 128t134.5 47
q71 0 126 -39zM47 -120q18 21 27 67q-18 3 -48 3q-34 0 -52 -14.5t-18 -39.5q0 -18 10.5 -27.5t30.5 -9.5q32 0 50 21z" />
    <glyph glyph-name="uni01AA" unicode="&#x1aa;" horiz-adv-x="396" 
d="M421 -180q-60 -40 -138 -40q-76 0 -119 38.5t-43 110.5q0 23 2 35l5 36l62 446q-30 -14 -63 -14q-53 0 -89.5 38t-36.5 99q0 55 25.5 98t69 66.5t97.5 23.5q74 0 115.5 -39.5t41.5 -113.5q0 -18 -3 -39l-80 -565l-7 -52q-1 -5 -1 -14q0 -26 12 -37t36 -11q21 0 37 4.5
t38 15.5zM203 539l8 58q2 18 2 23q0 36 -31 36q-28 0 -42.5 -24t-13.5 -58q-1 -42 39 -42q15 0 38 7z" />
    <glyph glyph-name="uni0285" unicode="&#x285;" horiz-adv-x="484" 
d="M457 24q-62 -40 -139 -40q-76 0 -119 38.5t-43 110.5q0 23 2 35l5 36l18 122l7 53q1 6 1 16q0 46 -48 46q-21 0 -37 -4.5t-38 -15.5l-39 85q59 40 138 40q76 0 119.5 -38.5t43.5 -111.5q0 -22 -2 -34l-6 -36l-17 -122l-7 -53q-1 -6 -1 -16q0 -46 47 -46q22 0 37.5 4.5
t37.5 15.5z" />
    <glyph glyph-name="uni0247" unicode="&#x247;" horiz-adv-x="532" 
d="M447.5 272q-68.5 -46 -184.5 -66l-43 -105q21 -10 54 -10q34 0 67 12t70 37l52 -86q-97 -70 -206 -70q-41 0 -81 10l-27 -67l-51 13l31 74q-48 28 -72 76.5t-24 115.5q0 80 30 158t96 130t168 52h20l22 53l50 -13l-20 -48q56 -15 86.5 -51.5t30.5 -83.5q0 -85 -68.5 -131
zM218 397q-32 -49 -42 -119q28 2 64 8l68 166q-58 -6 -90 -55zM360 444l-58 -142q81 28 81 97q0 31 -23 45zM204 197l-34 -3q1 -30 11 -52z" />
    <glyph glyph-name="uni1EBD" unicode="&#x1ebd;" horiz-adv-x="532" 
d="M422.5 255.5q-93.5 -46.5 -247.5 -61.5q4 -103 99 -103q34 0 67 12t70 37l52 -86q-97 -70 -206 -70t-166.5 59.5t-57.5 162.5q0 80 30 158t96 130t168 52q90 0 139.5 -40.5t49.5 -102.5q0 -101 -93.5 -147.5zM327 322q47 30 47 74q0 22 -14 37.5t-45 15.5
q-57 0 -89.5 -48t-43.5 -118q98 9 145 39zM357 647.5q-16 7.5 -34 20.5q-13 9 -21.5 13.5t-17.5 4.5q-18 0 -31.5 -11t-29.5 -36l-68 40q26 49 60.5 79t74.5 30q22 0 37 -7t34 -21q12 -9 20 -13.5t17 -4.5q16 0 29.5 11t30.5 34l68 -39q-26 -50 -61 -79t-72 -29
q-20 0 -36 7.5z" />
    <glyph glyph-name="uni01DD" unicode="&#x1dd;" horiz-adv-x="532" 
d="M441.5 486.5q57.5 -59.5 57.5 -162.5q0 -80 -30 -158t-96 -130t-168 -52q-90 0 -139.5 40.5t-49.5 102.5q0 101 93.5 147.5t247.5 61.5q-3 55 -28.5 79t-70.5 24q-34 0 -67 -12t-70 -37l-52 86q97 70 206 70t166.5 -59.5zM306.5 129q32.5 48 43.5 118q-98 -9 -145 -39
t-47 -74q0 -22 14 -37.5t45 -15.5q57 0 89.5 48z" />
    <glyph glyph-name="uni0292" unicode="&#x292;" horiz-adv-x="494" 
d="M468 431l-218 -220q93 -5 141.5 -49t48.5 -122q0 -77 -37.5 -136t-103 -91.5t-148.5 -32.5q-141 0 -214 101l82 71q32 -34 62.5 -48t71.5 -14q66 0 104.5 41t38.5 108q0 47 -28 66t-89 19h-90l1 1l11 85l205 212h-258l16 108h417z" />
    <glyph glyph-name="uni01EF" unicode="&#x1ef;" horiz-adv-x="494" 
d="M468 431l-218 -220q93 -5 141.5 -49t48.5 -122q0 -77 -37.5 -136t-103 -91.5t-148.5 -32.5q-141 0 -214 101l82 71q32 -34 62.5 -48t71.5 -14q66 0 104.5 41t38.5 108q0 47 -28 66t-89 19h-90l1 1l11 85l205 212h-258l16 108h417zM481 746l-155 -131h-87l-120 131l56 60
l116 -89l144 89z" />
    <glyph glyph-name="uni0293" unicode="&#x293;" horiz-adv-x="498" 
d="M473 431l-219 -215q93 -5 142 -50t49 -124q0 -92 -52.5 -156t-147.5 -90l17 -54l-77 -29l-21 69q-30 -2 -45 -2q-91 0 -141 35.5t-50 99.5q0 60 39.5 97.5t96.5 37.5t89.5 -33t55.5 -114q92 34 92 138q0 49 -28 68.5t-89 19.5h-90l12 86l206 207h-259l15 108h418z
M50 -99.5q20 -10.5 69 -10.5h14q-14 46 -28 62.5t-37 16.5q-17 0 -27.5 -10.5t-10.5 -25.5q0 -22 20 -32.5z" />
    <glyph glyph-name="uni01B9" unicode="&#x1b9;" horiz-adv-x="497" 
d="M490 422h-265l152 -214l-11 -84l-2 1l1 -1h-86q-73 0 -112 -35.5t-39 -100.5q0 -49 26.5 -73.5t74.5 -24.5q44 0 80 15t78 48l65 -75q-48 -48 -107 -73t-133 -25q-108 0 -169 55t-61 146q0 67 31.5 118t89.5 80.5t133 31.5h4l-165 220l13 99h417z" />
    <glyph glyph-name="uni01BA" unicode="&#x1ba;" horiz-adv-x="494" 
d="M15 -161q-35 35 -35 78q0 60 49 93t139 50q77 15 109 32.5t32 54.5q0 24 -17 34.5t-55 10.5h-137l11 81l184 154h-249l14 103h415l-12 -94l-198 -158h30q75 0 116.5 -33.5t41.5 -94.5q0 -80 -57 -123t-162 -63q-73 -14 -98.5 -26t-25.5 -29q0 -14 11.5 -25.5t35.5 -24.5
l-45 -79q-62 24 -97 59z" />
    <glyph glyph-name="f" unicode="f" horiz-adv-x="342" 
d="M293.5 633q-19.5 -18 -24.5 -56l-7 -47h125l-30 -100h-109l-53 -379q-11 -80 -42 -131.5t-77 -82.5t-116 -57l-36 103q61 24 91 58t40 105l53 384h-82l14 100h83l7 55q11 77 65.5 124.5t143.5 47.5q76 0 142 -43l-50 -86q-36 23 -82 23q-36 0 -55.5 -18z" />
    <glyph glyph-name="uni1E1F" unicode="&#x1e1f;" horiz-adv-x="342" 
d="M293.5 633q-19.5 -18 -24.5 -56l-7 -47h125l-30 -100h-109l-53 -379q-11 -80 -42 -131.5t-77 -82.5t-116 -57l-36 103q61 24 91 58t40 105l53 384h-82l14 100h83l7 55q11 77 65.5 124.5t143.5 47.5q76 0 142 -43l-50 -86q-36 23 -82 23q-36 0 -55.5 -18zM410 957
q21 -21 21 -54q0 -38 -27.5 -64.5t-67.5 -26.5q-35 0 -56 21t-21 54q0 38 27.5 64.5t67.5 26.5q35 0 56 -21z" />
    <glyph glyph-name="uni02A9" unicode="&#x2a9;" horiz-adv-x="863" 
d="M785.5 512q32.5 -34 32.5 -95q0 -16 -3 -36l-53 -381l-6 -40q-14 -89 -68.5 -134.5t-136.5 -45.5q-75 0 -130 43l58 83q18 -11 32 -15.5t33 -4.5q30 0 48.5 16.5t22.5 49.5l7 48l50 355q2 20 2 25q0 27 -10 38t-29 11q-62 0 -130 -131l-41 -298h-140l60 430h-144
l-60 -430h-139l60 430h-83l14 100h83l7 55q11 77 65.5 124.5t143.5 47.5q76 0 142 -43l-50 -86q-36 23 -81 23q-37 0 -56.5 -18t-24.5 -56l-7 -47h167h98l-4 -96q36 52 82.5 82t98.5 30q57 0 89.5 -34z" />
    <glyph glyph-name="g" unicode="g" horiz-adv-x="578" 
d="M546 493l-68 -459q-19 -135 -84.5 -195t-185.5 -60q-48 0 -100.5 15t-94.5 41l48 96q76 -42 144 -42q55 0 90 26.5t45 101.5l8 55q-29 -33 -65 -52.5t-77 -19.5q-83 0 -128 55t-45 149q0 82 31 160.5t99 130t172 51.5q111 0 211 -53zM245 407q-35 -36 -51 -90t-16 -110
q0 -53 19 -77t50 -24q57 0 114 80l38 246q-32 11 -66 11q-53 0 -88 -36z" />
    <glyph glyph-name="uni01F5" unicode="&#x1f5;" horiz-adv-x="578" 
d="M546 493l-68 -459q-19 -135 -84.5 -195t-185.5 -60q-48 0 -100.5 15t-94.5 41l48 96q76 -42 144 -42q55 0 90 26.5t45 101.5l8 55q-29 -33 -65 -52.5t-77 -19.5q-83 0 -128 55t-45 149q0 82 31 160.5t99 130t172 51.5q111 0 211 -53zM245 407q-35 -36 -51 -90t-16 -110
q0 -53 19 -77t50 -24q57 0 114 80l38 246q-32 11 -66 11q-53 0 -88 -36zM494 718l-239 -92l-29 73l227 128z" />
    <glyph glyph-name="uni0263" unicode="&#x263;" horiz-adv-x="499" 
d="M294 76q23 -49 33.5 -84t10.5 -71q0 -68 -39.5 -104.5t-111.5 -36.5q-59 0 -91.5 28t-32.5 75q0 43 23.5 89t70.5 107l-122 451h150l53 -360l153 360h148l-245 -453v-1zM228.5 -47.5q-3.5 16.5 -12.5 45.5l-1 -1q-45 -67 -45 -102q0 -11 6.5 -17.5t18.5 -6.5q19 0 28 13
t9 34q0 18 -3.5 34.5z" />
    <glyph glyph-name="gbreve" unicode="&#x11f;" horiz-adv-x="578" 
d="M546 493l-68 -459q-19 -135 -84.5 -195t-185.5 -60q-48 0 -100.5 15t-94.5 41l48 96q76 -42 144 -42q55 0 90 26.5t45 101.5l8 55q-29 -33 -65 -52.5t-77 -19.5q-83 0 -128 55t-45 149q0 82 31 160.5t99 130t172 51.5q111 0 211 -53zM245 407q-35 -36 -51 -90t-16 -110
q0 -53 19 -77t50 -24q57 0 114 80l38 246q-32 11 -66 11q-53 0 -88 -36zM233 681.5q-38 46.5 -34 118.5l81 11q8 -76 71 -76q34 0 59.5 21t39.5 58l78 -18q-15 -72 -64.5 -116.5t-120.5 -44.5q-72 0 -110 46.5z" />
    <glyph glyph-name="gcaron" unicode="&#x1e7;" horiz-adv-x="578" 
d="M546 493l-68 -459q-19 -135 -84.5 -195t-185.5 -60q-48 0 -100.5 15t-94.5 41l48 96q76 -42 144 -42q55 0 90 26.5t45 101.5l8 55q-29 -33 -65 -52.5t-77 -19.5q-83 0 -128 55t-45 149q0 82 31 160.5t99 130t172 51.5q111 0 211 -53zM245 407q-35 -36 -51 -90t-16 -110
q0 -53 19 -77t50 -24q57 0 114 80l38 246q-32 11 -66 11q-53 0 -88 -36zM541 746l-155 -131h-87l-120 131l56 60l116 -89l144 89z" />
    <glyph glyph-name="gcircumflex" unicode="&#x11d;" horiz-adv-x="578" 
d="M546 493l-68 -459q-19 -135 -84.5 -195t-185.5 -60q-48 0 -100.5 15t-94.5 41l48 96q76 -42 144 -42q55 0 90 26.5t45 101.5l8 55q-29 -33 -65 -52.5t-77 -19.5q-83 0 -128 55t-45 149q0 82 31 160.5t99 130t172 51.5q111 0 211 -53zM245 407q-35 -36 -51 -90t-16 -110
q0 -53 19 -77t50 -24q57 0 114 80l38 246q-32 11 -66 11q-53 0 -88 -36zM171 684l156 131h86l120 -131l-59 -60l-116 89l-140 -89z" />
    <glyph glyph-name="gcommaaccent" unicode="&#x123;" horiz-adv-x="578" 
d="M546 493l-68 -459q-19 -135 -84.5 -195t-185.5 -60q-48 0 -100.5 15t-94.5 41l48 96q76 -42 144 -42q55 0 90 26.5t45 101.5l8 55q-29 -33 -65 -52.5t-77 -19.5q-83 0 -128 55t-45 149q0 82 31 160.5t99 130t172 51.5q111 0 211 -53zM245 407q-35 -36 -51 -90t-16 -110
q0 -53 19 -77t50 -24q57 0 114 80l38 246q-32 11 -66 11q-53 0 -88 -36zM300 604q-19 19 -19 47q0 21 8 40t29 53l58 89h72l-47 -117q26 -21 26 -51q0 -35 -23 -57.5t-55 -22.5q-30 0 -49 19z" />
    <glyph glyph-name="gdotaccent" unicode="&#x121;" horiz-adv-x="578" 
d="M546 493l-68 -459q-19 -135 -84.5 -195t-185.5 -60q-48 0 -100.5 15t-94.5 41l48 96q76 -42 144 -42q55 0 90 26.5t45 101.5l8 55q-29 -33 -65 -52.5t-77 -19.5q-83 0 -128 55t-45 149q0 82 31 160.5t99 130t172 51.5q111 0 211 -53zM245 407q-35 -36 -51 -90t-16 -110
q0 -53 19 -77t50 -24q57 0 114 80l38 246q-32 11 -66 11q-53 0 -88 -36zM424.5 782.5q20.5 -20.5 20.5 -52.5q0 -39 -27 -66t-67 -27q-35 0 -56 21t-21 54q0 38 27.5 64.5t67.5 26.5q35 0 55.5 -20.5z" />
    <glyph glyph-name="uni0260" unicode="&#x260;" horiz-adv-x="581" 
d="M740 718l-52 -87q-17 10 -31.5 15t-33.5 5q-56 0 -66 -67l-8 -54l-73 -496q-20 -135 -85 -195t-185 -60q-48 0 -100.5 15t-94.5 41l48 96q76 -42 144 -42q55 0 90 26.5t45 101.5l8 55q-29 -33 -65 -52.5t-77 -19.5q-83 0 -128 55t-45 149q0 82 31 160.5t98 130t168 51.5
q41 0 83 -11l6 47q11 82 62.5 128.5t135.5 46.5q70 0 125 -39zM359 186l36 246q-30 11 -64 11q-53 0 -88 -36t-51 -90t-16 -110q0 -53 19 -77t50 -24q57 0 114 80z" />
    <glyph glyph-name="uni01BE" unicode="&#x1be;" horiz-adv-x="504" 
d="M425 371.5q36 -42.5 36 -117.5q0 -77 -35 -138.5t-97 -96t-140 -34.5q-65 0 -115.5 23t-90.5 68l78 71q29 -30 57 -43t64 -13q64 0 99.5 44.5t35.5 117.5q0 52 -24 81t-75 43l-59 12l21 144h-72l12 87h72l17 121l139 15l-19 -136h105l-12 -87h-105l-13 -94l27 -8
q58 -17 94 -59.5z" />
    <glyph glyph-name="uni0294" unicode="&#x294;" horiz-adv-x="469" 
d="M144 352l47 15q76 24 111.5 70t35.5 116q0 48 -24 73t-70 25q-36 0 -68.5 -14.5t-69.5 -43.5l-62 75q54 46 106.5 67.5t119.5 21.5q101 0 158.5 -54t57.5 -147q0 -96 -47.5 -156t-141.5 -91l-20 -7l-42 -302h-140z" />
    <glyph glyph-name="uni0296" unicode="&#x296;" horiz-adv-x="504" 
d="M348 756l-44 -317l27 -8q58 -17 94 -59.5t36 -117.5q0 -77 -35 -138.5t-97 -96t-140 -34.5q-65 0 -115.5 23t-90.5 68l78 71q29 -30 57 -43t64 -13q64 0 99.5 44.5t35.5 117.5q0 52 -24 81t-75 43l-59 12l50 352z" />
    <glyph glyph-name="uni0295" unicode="&#x295;" horiz-adv-x="464" 
d="M157 0l43 302l-17 8q-61 27 -95 66.5t-34 109.5q0 77 35 139t98 97t143 35q65 0 113.5 -23t89.5 -69l-78 -70q-28 29 -56 42.5t-64 13.5q-62 0 -99.5 -45.5t-37.5 -119.5q0 -48 25.5 -76t76.5 -44l46 -14l-50 -352h-139z" />
    <glyph glyph-name="uni0242" unicode="&#x242;" horiz-adv-x="456" 
d="M106 201l57 16q63 19 95 52.5t32 87.5q0 38 -20 59.5t-58 21.5q-35 0 -62.5 -12.5t-60.5 -37.5l-61 78q47 40 96 60t110 20q60 0 105.5 -23t70 -64t24.5 -94q0 -80 -42.5 -132t-121.5 -74l-32 -8l-21 -151h-139z" />
    <glyph glyph-name="uni02A1" unicode="&#x2a1;" horiz-adv-x="469" 
d="M277 302l-12 -82h103l-12 -87h-103l-18 -133h-140l18 133h-66l12 87h66l19 132l47 15q76 24 111.5 70t35.5 116q0 48 -24 73t-70 25q-36 0 -68.5 -14.5t-69.5 -43.5l-62 75q54 46 106.5 67.5t119.5 21.5q101 0 158.5 -54t57.5 -147q0 -96 -47.5 -156t-141.5 -91z" />
    <glyph glyph-name="uni02A2" unicode="&#x2a2;" horiz-adv-x="464" 
d="M443.5 734q48.5 -23 89.5 -69l-78 -70q-28 29 -56 42.5t-64 13.5q-62 0 -99.5 -45.5t-37.5 -119.5q0 -48 25.5 -76t76.5 -44l46 -14l-19 -132h67l-12 -87h-67l-19 -133h-139l19 133h-102l12 87h102l12 82l-17 8q-61 27 -95 66.5t-34 109.5q0 77 35 139t98 97t143 35
q65 0 113.5 -23z" />
    <glyph glyph-name="uni0261" unicode="&#x261;" horiz-adv-x="578" 
d="M546 493l-68 -459q-19 -135 -84.5 -195t-185.5 -60q-48 0 -100.5 15t-94.5 41l48 96q76 -42 144 -42q55 0 90 26.5t45 101.5l8 55q-29 -33 -65 -52.5t-77 -19.5q-83 0 -128 55t-45 149q0 82 31 160.5t99 130t172 51.5q111 0 211 -53zM245 407q-35 -36 -51 -90t-16 -110
q0 -53 19 -77t50 -24q57 0 114 80l38 246q-32 11 -66 11q-53 0 -88 -36z" />
    <glyph glyph-name="uni01E5" unicode="&#x1e5;" horiz-adv-x="544" 
d="M469 -8h62l-8 -63h-73q-31 -78 -90.5 -114t-153.5 -36q-48 0 -100.5 15t-94.5 41l46 90q76 -42 148 -42q37 0 62.5 10t42.5 36h-114l8 63h130l3 20l12 79q-28 -33 -66 -52.5t-79 -19.5q-82 0 -127.5 55.5t-45.5 146.5q0 75 31.5 150t99.5 125t171 50q111 0 211 -53
l-68 -459q-4 -28 -7 -42zM362 206l35 226q-32 11 -66 11q-53 0 -87.5 -33t-51 -83.5t-16.5 -101.5t18.5 -75t50.5 -24q60 0 117 80z" />
    <glyph glyph-name="h" unicode="h" horiz-adv-x="571" 
d="M492.5 512q32.5 -34 32.5 -96q0 -22 -2 -34l-54 -382h-139l50 355q2 20 2 25q0 49 -38 49q-65 0 -131 -131l-42 -298h-139l104 741l141 15l-45 -317q30 49 75 78t95 29q58 0 90.5 -34z" />
    <glyph glyph-name="hbar" unicode="&#x127;" horiz-adv-x="580" 
d="M501.5 512q32.5 -34 32.5 -96q0 -22 -2 -34l-54 -382h-140l51 355q2 20 2 25q0 49 -38 49q-65 0 -131 -131l-42 -298h-140l84 598h-64l12 87h64l8 56l142 15l-10 -71h142l-25 -87h-129l-23 -159q30 49 74.5 78t95.5 29q58 0 90.5 -34z" />
    <glyph glyph-name="uni021F" unicode="&#x21f;" horiz-adv-x="571" 
d="M492.5 512q32.5 -34 32.5 -96q0 -22 -2 -34l-54 -382h-139l50 355q2 20 2 25q0 49 -38 49q-65 0 -131 -131l-42 -298h-139l104 741l141 15l-45 -317q30 49 75 78t95 29q58 0 90.5 -34zM553 924l-154 -124h-87l-121 124l58 60l117 -83l141 83z" />
    <glyph glyph-name="hcircumflex" unicode="&#x125;" horiz-adv-x="571" 
d="M492.5 512q32.5 -34 32.5 -96q0 -22 -2 -34l-54 -382h-139l50 355q2 20 2 25q0 49 -38 49q-65 0 -131 -131l-42 -298h-139l104 741l141 15l-45 -317q30 49 75 78t95 29q58 0 90.5 -34zM370 889l-141 -84l-47 60l155 124h86l121 -124l-56 -60z" />
    <glyph glyph-name="uni1E25" unicode="&#x1e25;" horiz-adv-x="571" 
d="M492.5 512q32.5 -34 32.5 -96q0 -22 -2 -34l-54 -382h-139l50 355q2 20 2 25q0 49 -38 49q-65 0 -131 -131l-42 -298h-139l104 741l141 15l-45 -317q30 49 75 78t95 29q58 0 90.5 -34zM169 -209.5q-21 20.5 -21 53.5q0 39 27 65.5t67 26.5q35 0 56 -21t21 -53
q0 -39 -27.5 -65.5t-66.5 -26.5q-35 0 -56 20.5z" />
    <glyph glyph-name="uni0267" unicode="&#x267;" horiz-adv-x="571" 
d="M492 512q33 -34 33 -96q0 -22 -2 -34l-54 -382l-6 -40q-13 -89 -67.5 -134.5t-137.5 -45.5q-76 0 -129 43l58 83q18 -11 31.5 -15.5t33.5 -4.5q29 0 47.5 16.5t22.5 49.5l8 48h-1l52 355q2 10 2 27q0 26 -10 36.5t-28 10.5q-65 0 -133 -131l-41 -298h-140l75 529h-1l8 56
q11 77 66 124.5t146 47.5q73 0 136 -33l-50 -92q-35 19 -80 19q-36 0 -54.5 -18t-24.5 -56l-6 -48l-13 -92q29 50 73 79.5t94 29.5q59 0 92 -34z" />
    <glyph glyph-name="uni0266" unicode="&#x266;" horiz-adv-x="571" 
d="M492 512q33 -34 33 -96q0 -22 -2 -34l-54 -382h-139l52 355q2 20 2 25q0 27 -10 38t-29 11q-34 0 -68 -35.5t-64 -95.5l-42 -298h-139l74 529l8 56q11 77 66 124.5t145 47.5q73 0 137 -33l-50 -92q-37 19 -80 19q-37 0 -55.5 -18t-23.5 -56l-7 -48l-13 -92q29 50 73 79.5
t94 29.5q59 0 92 -34z" />
    <glyph glyph-name="uni0265" unicode="&#x265;" horiz-adv-x="566" 
d="M78.5 18q-32.5 34 -32.5 96q0 22 2 34l54 382h139l-52 -355q-2 -20 -2 -26q0 -27 10 -37.5t28 -10.5q65 0 133 131l42 298h139l-103 -736l-139 -15l43 314q-32 -50 -76.5 -79.5t-93.5 -29.5q-59 0 -91.5 34z" />
    <glyph glyph-name="uni0195" unicode="&#x195;" horiz-adv-x="859" 
d="M822 411q0 -197 -64 -312t-224 -115q-91 0 -136.5 46t-45.5 116q0 9 2 29l26 180q2 20 2 25q0 49 -38 49q-65 0 -131 -131l-42 -298h-139l104 741l141 15l-45 -317q30 49 75 78t95 29q58 0 90.5 -34t32.5 -96q0 -22 -2 -34l-28 -204q-2 -18 -2 -25q0 -63 54 -63
q80 0 109.5 104.5t29.5 238.5q0 56 -5 97h133q8 -59 8 -119z" />
    <glyph glyph-name="i" unicode="i" horiz-adv-x="278" 
d="M172 0h-140l74 530h140zM267.5 782.5q20.5 -20.5 20.5 -52.5q0 -39 -27 -66t-67 -27q-35 0 -56 21t-21 54q0 38 27.5 64.5t67.5 26.5q35 0 55.5 -20.5z" />
    <glyph glyph-name="dotlessi" unicode="&#x131;" horiz-adv-x="278" 
d="M172 0h-140l74 530h140z" />
    <glyph glyph-name="iacute" unicode="&#xed;" horiz-adv-x="278" 
d="M172 0h-140l74 530h140zM337 718l-239 -92l-29 73l227 128z" />
    <glyph glyph-name="ibreve" unicode="&#x12d;" horiz-adv-x="278" 
d="M172 0h-140l74 530h140zM75 681.5q-38 46.5 -34 118.5l81 11q8 -76 71 -76q34 0 59.5 21t39.5 58l78 -18q-15 -72 -64.5 -116.5t-120.5 -44.5q-72 0 -110 46.5z" />
    <glyph glyph-name="uni01D0" unicode="&#x1d0;" horiz-adv-x="278" 
d="M172 0h-140l74 530h140zM384 746l-155 -131h-87l-120 131l56 60l116 -89l144 89z" />
    <glyph glyph-name="icircumflex" unicode="&#xee;" horiz-adv-x="278" 
d="M172 0h-140l74 530h140zM14 684l156 131h86l120 -131l-59 -60l-116 89l-140 -89z" />
    <glyph glyph-name="uni0209" unicode="&#x209;" horiz-adv-x="282" 
d="M170 662l-79 -35l-92 176l105 50zM328 664l-78 -32l-84 173l105 48zM172 0h-140l74 530h140z" />
    <glyph glyph-name="idieresis" unicode="&#xef;" horiz-adv-x="278" 
d="M172 0h-140l74 530h140zM145.5 773.5q18.5 -18.5 18.5 -46.5q0 -34 -23.5 -58.5t-57.5 -24.5q-32 0 -51.5 23t-15.5 55q5 30 28 50t53 20t48.5 -18.5zM368.5 773.5q18.5 -18.5 18.5 -46.5q0 -34 -23 -58.5t-58 -24.5q-29 0 -48 19t-19 48q0 33 23.5 57t57.5 24
q30 0 48.5 -18.5z" />
    <glyph glyph-name="uni1E2F" unicode="&#x1e2f;" horiz-adv-x="278" 
d="M366 860l-168 -137l-50 49l148 164zM128.5 735.5q18.5 -18.5 18.5 -46.5q0 -34 -23.5 -58t-57.5 -24q-29 0 -48 19t-19 48q0 33 23.5 56.5t57.5 23.5q30 0 48.5 -18.5zM366.5 735q18.5 -19 18.5 -48q0 -33 -24 -56.5t-58 -23.5q-29 0 -48 19t-19 48q0 33 24 56.5t58 23.5
q30 0 48.5 -19zM172 0h-140l74 530h140z" />
    <glyph glyph-name="i.loclTRK" horiz-adv-x="278" 
d="M172 0h-140l74 530h140zM267.5 782.5q20.5 -20.5 20.5 -52.5q0 -39 -27 -66t-67 -27q-35 0 -56 21t-21 54q0 38 27.5 64.5t67.5 26.5q35 0 55.5 -20.5z" />
    <glyph glyph-name="uni1ECB" unicode="&#x1ecb;" horiz-adv-x="278" 
d="M172 0h-140l74 530h140zM267.5 782.5q20.5 -20.5 20.5 -52.5q0 -39 -27 -66t-67 -27q-35 0 -56 21t-21 54q0 38 27.5 64.5t67.5 26.5q35 0 55.5 -20.5zM20 -209.5q-21 20.5 -21 53.5q0 39 27 65.5t67 26.5q35 0 56 -21t21 -53q0 -39 -27.5 -65.5t-66.5 -26.5
q-35 0 -56 20.5z" />
    <glyph glyph-name="igrave" unicode="&#xec;" horiz-adv-x="278" 
d="M172 0h-140l74 530h140zM344 700l-45 -72l-217 90l67 112z" />
    <glyph glyph-name="uni1EC9" unicode="&#x1ec9;" horiz-adv-x="278" 
d="M172 0h-140l74 530h140zM155 705q38 2 58 12.5t20 32.5q0 26 -35 26q-28 0 -60 -15l-19 65q45 25 106 25q52 0 80 -24t28 -65q0 -42 -25 -68t-70 -34l-8 -54h-87z" />
    <glyph glyph-name="uni020B" unicode="&#x20b;" horiz-adv-x="278" 
d="M172 0h-140l74 530h140zM21 622q16 71 66 115.5t121 44.5q73 0 111.5 -46.5t35.5 -118.5l-82 -11q-9 76 -74 76q-67 0 -99 -79z" />
    <glyph glyph-name="ij" unicode="&#x133;" horiz-adv-x="551" 
d="M172 0h-140l74 530h140zM267.5 782.5q20.5 -20.5 20.5 -52.5q0 -39 -27 -66t-67 -27q-35 0 -56 21t-21 54q0 38 27.5 64.5t67.5 26.5q35 0 55.5 -20.5zM452 51q-11 -80 -41.5 -131.5t-77 -82.5t-116.5 -57l-36 103q61 24 91 58t40 105l68 484h140zM541.5 782.5
q20.5 -20.5 20.5 -52.5q0 -39 -27 -66t-67 -27q-35 0 -56 21t-21 54q0 38 27.5 64.5t67.5 26.5q35 0 55.5 -20.5z" />
    <glyph glyph-name="imacron" unicode="&#x12b;" horiz-adv-x="278" 
d="M172 0h-140l74 530h140zM47 658l13 100h294l-14 -100h-293z" />
    <glyph glyph-name="iogonek" unicode="&#x12f;" horiz-adv-x="278" 
d="M267.5 782.5q20.5 -20.5 20.5 -52.5q0 -39 -27 -66t-67 -27q-35 0 -56 21t-21 54q0 38 27.5 64.5t67.5 26.5q35 0 55.5 -20.5zM106 530h140l-74 -530h-33q-136 -50 -136 -117q0 -16 11.5 -25t33.5 -9q25 0 62 8l-20 -92q-37 -7 -66 -7q-58 0 -93 28t-35 74q0 101 139 159
z" />
    <glyph glyph-name="uni0269" unicode="&#x269;" horiz-adv-x="289" 
d="M74.5 14.5q-30.5 30.5 -30.5 87.5q0 21 2 32l55 396h141l-56 -395q-1 -5 -1 -13q0 -25 22 -25q12 0 29 7l18 -101q-44 -19 -93 -19q-56 0 -86.5 30.5z" />
    <glyph glyph-name="uni0268" unicode="&#x268;" horiz-adv-x="326" 
d="M161 658q-21 21 -21 54q0 38 27.5 64.5t67.5 26.5q35 0 55.5 -20.5t20.5 -52.5q0 -39 -27 -66t-67 -27q-35 0 -56 21zM311 231h-84l-32 -231h-140l32 231h-82l15 101h81l28 198h140l-28 -198h85z" />
    <glyph glyph-name="itilde" unicode="&#x129;" horiz-adv-x="278" 
d="M172 0h-140l74 530h140zM218 647.5q-16 7.5 -34 20.5q-13 9 -21.5 13.5t-17.5 4.5q-18 0 -31.5 -11t-29.5 -36l-68 40q26 49 60.5 79t74.5 30q22 0 37 -7t34 -21q12 -9 20 -13.5t17 -4.5q16 0 29.5 11t30.5 34l68 -39q-26 -50 -61 -79t-72 -29q-20 0 -36 7.5z" />
    <glyph glyph-name="j" unicode="j" horiz-adv-x="273" 
d="M174 51q-11 -80 -41.5 -131.5t-77 -82.5t-116.5 -57l-36 103q61 24 91 58t40 105l68 484h140zM263.5 782.5q20.5 -20.5 20.5 -52.5q0 -39 -27 -66t-67 -27q-35 0 -56 21t-21 54q0 38 27.5 64.5t67.5 26.5q35 0 55.5 -20.5z" />
    <glyph glyph-name="uni0237" unicode="&#x237;" horiz-adv-x="273" 
d="M174 51q-11 -80 -41.5 -131.5t-77 -82.5t-116.5 -57l-36 103q61 24 91 58t40 105l68 484h140z" />
    <glyph glyph-name="uni01F0" unicode="&#x1f0;" horiz-adv-x="273" 
d="M174 51q-11 -80 -41.5 -131.5t-77 -82.5t-116.5 -57l-36 103q61 24 91 58t40 105l68 484h140zM380 746l-155 -131h-87l-120 131l56 60l116 -89l144 89z" />
    <glyph glyph-name="jcircumflex" unicode="&#x135;" horiz-adv-x="273" 
d="M174 51q-11 -80 -41.5 -131.5t-77 -82.5t-116.5 -57l-36 103q61 24 91 58t40 105l68 484h140zM10 684l156 131h86l120 -131l-59 -60l-116 89l-140 -89z" />
    <glyph glyph-name="uni029D" unicode="&#x29d;" horiz-adv-x="328" 
d="M318.5 782.5q20.5 -20.5 20.5 -52.5q0 -39 -27 -66t-67 -27q-35 0 -56 21t-21 54q0 38 27.5 64.5t67.5 26.5q35 0 55.5 -20.5zM220 -7q49 -14 96 -39l-33 -60q-41 18 -80 29q-25 -71 -75.5 -106.5t-129.5 -35.5q-61 0 -95.5 30t-34.5 81q0 59 44.5 94.5t112.5 35.5
q41 0 60 -3l71 511h140l-74 -524q0 -5 -2 -13zM47 -120q18 21 27 67q-18 3 -48 3q-34 0 -52 -14.5t-18 -39.5q0 -18 10.5 -27.5t30.5 -9.5q32 0 50 21z" />
    <glyph glyph-name="uni025F" unicode="&#x25f;" horiz-adv-x="328" 
d="M309 201h-82l-21 -150q-11 -80 -42 -131.5t-77 -82.5t-116 -57l-36 103q61 24 91 58t40 105l22 155h-85l15 101h83l32 228h140l-32 -228h83z" />
    <glyph glyph-name="uni0284" unicode="&#x284;" horiz-adv-x="330" 
d="M466 718l-52 -87q-17 10 -31.5 15t-33.5 5q-56 0 -66 -67l-8 -54l-60 -429h80l-14 -101h-83q-15 -62 -46 -103t-73.5 -67.5t-105.5 -49.5l-34 99q55 24 82.5 48.5t39.5 72.5h-86l14 101h87l60 429l7 52q11 82 62.5 128.5t135.5 46.5q70 0 125 -39z" />
    <glyph glyph-name="uni0249" unicode="&#x249;" horiz-adv-x="328" 
d="M309 201h-82l-21 -150q-11 -80 -42 -131.5t-77 -82.5t-116 -57l-36 103q61 24 91 58t40 105l22 155h-85l15 101h83l32 228h140l-32 -228h83zM295.5 782.5q20.5 -20.5 20.5 -52.5q0 -39 -27 -66t-67 -27q-35 0 -56 21t-21 54q0 38 27.5 64.5t67.5 26.5q35 0 55.5 -20.5z
" />
    <glyph glyph-name="k" unicode="k" horiz-adv-x="561" 
d="M235 455q74 91 177 91q63 0 101 -34.5t38 -90.5q0 -128 -149 -186l104 -235h-154l-104 257q86 26 122.5 60t36.5 81t-48 47q-36 0 -73 -29.5t-69 -89.5l-45 -326h-140l104 741l141 16z" />
    <glyph glyph-name="uni01E9" unicode="&#x1e9;" horiz-adv-x="561" 
d="M235 455q74 91 177 91q63 0 101 -34.5t38 -90.5q0 -128 -149 -186l104 -235h-154l-104 257q86 26 122.5 60t36.5 81t-48 47q-36 0 -73 -29.5t-69 -89.5l-45 -326h-140l104 741l141 16zM570 924l-154 -124h-87l-121 124l58 60l117 -83l141 83z" />
    <glyph glyph-name="kcommaaccent" unicode="&#x137;" horiz-adv-x="561" 
d="M235 455q74 91 177 91q63 0 101 -34.5t38 -90.5q0 -128 -149 -186l104 -235h-154l-104 257q86 26 122.5 60t36.5 81t-48 47q-36 0 -73 -29.5t-69 -89.5l-45 -326h-140l104 741l141 16zM292.5 -88.5q18.5 -18.5 18.5 -46.5q0 -21 -8 -40.5t-29 -52.5l-57 -90h-72l46 117
q-25 20 -25 51q0 35 22.5 57.5t55.5 22.5q30 0 48.5 -18.5z" />
    <glyph glyph-name="kgreenlandic" unicode="&#x138;" horiz-adv-x="533" 
d="M172 0h-140l74 530h140zM362 281l140 -281h-154l-134 280l194 250h154z" />
    <glyph glyph-name="uni0199" unicode="&#x199;" horiz-adv-x="561" 
d="M402 235l104 -235h-154l-104 257q86 26 122.5 60t36.5 81t-48 47q-36 0 -73 -29.5t-69 -89.5l-45 -326h-140l74 529l8 56q11 77 66 124.5t145 47.5q73 0 137 -33l-50 -92q-37 19 -80 19q-37 0 -55.5 -18t-23.5 -56l-7 -48l-11 -74q74 91 177 91q63 0 101 -34.5t38 -90.5
q0 -128 -149 -186z" />
    <glyph glyph-name="uni029E" unicode="&#x29e;" horiz-adv-x="527" 
d="M174 244l-143 286h152l132 -290l-193 -240h-154zM361 530h139l-103 -736l-140 -15z" />
    <glyph glyph-name="l" unicode="l" horiz-adv-x="288" 
d="M185 135q-1 -5 -1 -13q0 -25 23 -25q11 0 28 7l19 -101q-46 -19 -94 -19q-56 0 -86.5 30.5t-30.5 87.5q0 21 2 32l86 607l141 16z" />
    <glyph glyph-name="lacute" unicode="&#x13a;" horiz-adv-x="288" 
d="M185 135q-1 -5 -1 -13q0 -25 23 -25q11 0 28 7l19 -101q-46 -19 -94 -19q-56 0 -86.5 30.5t-30.5 87.5q0 21 2 32l86 607l141 16zM357 886l-236 -88l-34 72l220 125z" />
    <glyph glyph-name="uni019B" unicode="&#x19b;" horiz-adv-x="513" 
d="M429.5 185q21.5 -84 64.5 -156l-138 -44q-28 54 -44.5 103t-26 119t-12.5 176l-163 -399l-135 34l234 478l60 -11q-3 59 -14 90l-66 -51l-73 47l86 71q-32 17 -82 24l27 92q93 -16 142 -51l80 65l53 -68l-77 -62q37 -72 49 -211q14 -162 35.5 -246z" />
    <glyph glyph-name="uni019A" unicode="&#x19a;" horiz-adv-x="328" 
d="M212 135q-1 -5 -1 -13q0 -25 23 -25q11 0 28 7l19 -101q-46 -19 -94 -19q-56 0 -86.5 30.5t-30.5 87.5q0 21 2 32l26 187h-81l15 101h81l45 319l141 16l-47 -335h86l-15 -101h-85z" />
    <glyph glyph-name="uni026C" unicode="&#x26c;" horiz-adv-x="413" 
d="M325 104l18 -101q-44 -19 -93 -19q-56 0 -87 30t-31 86q0 16 3 34l16 110q-69 3 -105 32.5t-36 79.5q0 54 38.5 87.5t97.5 33.5q24 0 37 -4l38 268l141 16l-60 -431h1q30 1 76 10l1 -75q-52 -12 -88 -14h-1l-16 -112q-1 -5 -1 -13q0 -25 22 -25q12 0 29 7zM162 324l11 76
q-16 2 -24 2q-18 0 -30 -11t-12 -30q0 -37 55 -37z" />
    <glyph glyph-name="lcaron" unicode="&#x13e;" horiz-adv-x="338" 
d="M185 135q-1 -5 -1 -13q0 -25 23 -25q11 0 28 7l19 -101q-46 -19 -94 -19q-56 0 -86.5 30.5t-30.5 87.5q0 21 2 32l86 607l141 16zM432 741l-76 -208l-73 8l41 213z" />
    <glyph glyph-name="uni1E3D" unicode="&#x1e3d;" horiz-adv-x="288" 
d="M185 135q-1 -5 -1 -13q0 -25 23 -25q11 0 28 7l19 -101q-46 -19 -94 -19q-56 0 -86.5 30.5t-30.5 87.5q0 21 2 32l86 607l141 16zM-58 -195l155 131h87l120 -131l-59 -60l-116 89l-140 -89z" />
    <glyph glyph-name="lcommaaccent" unicode="&#x13c;" horiz-adv-x="288" 
d="M185 135q-1 -5 -1 -13q0 -25 23 -25q11 0 28 7l19 -101q-46 -19 -94 -19q-56 0 -86.5 30.5t-30.5 87.5q0 21 2 32l86 607l141 16zM186.5 -88.5q18.5 -18.5 18.5 -46.5q0 -21 -8 -40.5t-29 -52.5l-57 -90h-72l46 117q-25 20 -25 51q0 35 22.5 57.5t55.5 22.5
q30 0 48.5 -18.5z" />
    <glyph glyph-name="uni0234" unicode="&#x234;" horiz-adv-x="453" 
d="M414.5 213q30.5 -27 30.5 -72q0 -74 -57.5 -115.5t-144.5 -41.5q-30 0 -58 5l-42 -71l-67 30l40 65q-33 20 -50 52t-17 73q0 22 2 33l81 570l141 16l-85 -602q-2 -19 -1 -25q31 57 66 83.5t84 26.5q47 0 77.5 -27zM323.5 102q21.5 13 21.5 35q0 23 -25 23q-19 0 -35 -15
t-41 -55q7 -1 24 -1q34 0 55.5 13z" />
    <glyph glyph-name="ldot" unicode="&#x140;" horiz-adv-x="407" 
d="M185 135q-1 -5 -1 -13q0 -25 23 -25q11 0 28 7l19 -101q-46 -19 -94 -19q-56 0 -86.5 30.5t-30.5 87.5q0 21 2 32l86 607l141 16zM413.5 437.5q20.5 -20.5 20.5 -52.5q0 -39 -27 -66t-67 -27q-35 0 -56 21t-21 54q0 38 27.5 64.5t67.5 26.5q35 0 55.5 -20.5z" />
    <glyph glyph-name="uni1E37" unicode="&#x1e37;" horiz-adv-x="288" 
d="M185 135q-1 -5 -1 -13q0 -25 23 -25q11 0 28 7l19 -101q-46 -19 -94 -19q-56 0 -86.5 30.5t-30.5 87.5q0 21 2 32l86 607l141 16zM70 -209.5q-21 20.5 -21 53.5q0 39 27 65.5t67 26.5q35 0 56 -21t21 -53q0 -39 -27.5 -65.5t-66.5 -26.5q-35 0 -56 20.5z" />
    <glyph glyph-name="uni026E" unicode="&#x26e;" horiz-adv-x="688" 
d="M662 431l-218 -220q92 -5 141 -49.5t49 -121.5t-37.5 -136t-103 -91.5t-148.5 -32.5q-126 0 -197 81l77 80q28 -28 56 -39.5t66 -11.5q66 0 104.5 41t38.5 108q0 47 -28 66t-89 19h-90l1 1l11 85l205 212h-275l-40 -287q-1 -5 -1 -13q0 -25 23 -25q11 0 28 7l19 -101
q-46 -19 -94 -19q-56 0 -86.5 30.5t-30.5 87.5q0 21 2 32l86 607l141 16l-32 -227h435z" />
    <glyph glyph-name="uni026D" unicode="&#x26d;" horiz-adv-x="277" 
d="M325 -180q-62 -40 -138 -40t-119.5 38.5t-43.5 111.5q0 22 2 34l6 36l104 741l141 16l-106 -757l-7 -52q-1 -6 -1 -16q0 -24 12 -35t36 -11q21 0 36.5 4.5t37.5 15.5z" />
    <glyph glyph-name="uni01C9" unicode="&#x1c9;" horiz-adv-x="571" 
d="M185 135q-1 -5 -1 -13q0 -25 23 -25q11 0 28 7l19 -101q-46 -19 -94 -19q-56 0 -86.5 30.5t-30.5 87.5q0 21 2 32l86 607l141 16zM472 51q-11 -80 -41.5 -131.5t-77 -82.5t-116.5 -57l-36 103q61 24 91 58t40 105l68 484h140zM561.5 782.5q20.5 -20.5 20.5 -52.5
q0 -39 -27 -66t-67 -27q-35 0 -56 21t-21 54q0 38 27.5 64.5t67.5 26.5q35 0 55.5 -20.5z" />
    <glyph glyph-name="uni026B" unicode="&#x26b;" horiz-adv-x="441" 
d="M263 135l-1 -11q0 -15 5.5 -21t17.5 -6t28 7l19 -101q-46 -19 -94 -19q-56 0 -86.5 29.5t-30.5 86.5q0 16 3 34l29 207q-4 1 -12 1q-25 0 -42.5 -14.5t-35.5 -41.5l-73 44q32 52 72.5 85.5t94.5 33.5h11l41 292l141 16l-51 -368q3 -1 10 -1q25 0 43.5 14t34.5 39l73 -45
q-33 -51 -72.5 -83t-93.5 -32h-11z" />
    <glyph glyph-name="uni02AA" unicode="&#x2aa;" horiz-adv-x="672" 
d="M119.5 28.5q-67.5 44.5 -67.5 137.5q0 20 3 42l76 533l142 16l-79 -555q-2 -18 -2 -25q0 -49 34 -68.5t107 -19.5q167 0 167 74q0 20 -17 34t-69 32q-66 23 -96 57t-30 89q0 50 28.5 89t77 60.5t106.5 21.5q97 0 169 -64l-61 -77q-54 38 -110 38q-35 0 -55.5 -15
t-20.5 -39q0 -21 17 -35t69 -32q67 -21 98.5 -55.5t31.5 -88.5q0 -98 -85 -146t-235 -48q-131 0 -198.5 44.5z" />
    <glyph glyph-name="lslash" unicode="&#x142;" horiz-adv-x="326" 
d="M252 104l18 -101q-44 -19 -93 -19q-56 0 -86.5 30.5t-30.5 87.5q0 21 2 32l21 145l-47 -27l-25 90l88 51l49 348l141 16l-39 -277l71 41l23 -91l-110 -63l-32 -232q-1 -5 -1 -13q0 -25 23 -25q11 0 28 7z" />
    <glyph glyph-name="uni02AB" unicode="&#x2ab;" horiz-adv-x="688" 
d="M688 429l-286 -319h246l-29 -110h-372q-42 -16 -84 -16q-57 0 -89 30t-32 87q0 15 3 33l86 607l141 16l-88 -624q-1 -4 -1 -12q0 -12 5.5 -18t17.5 -6q15 0 28 5l283 319h-216l15 109h385z" />
    <glyph glyph-name="m" unicode="m" horiz-adv-x="835" 
d="M758.5 511.5q31.5 -34.5 31.5 -94.5q0 -22 -2 -34l-54 -383h-139l50 355q2 11 2 28q0 27 -9.5 36.5t-28.5 9.5q-53 0 -114 -126l-43 -303h-139l50 355q2 20 2 27q0 27 -10 37t-29 10q-28 0 -57.5 -35.5t-55.5 -94.5l-41 -299h-140l74 530h121l-4 -90q34 50 76.5 78
t90.5 28q47 0 78.5 -26t38.5 -75q33 48 76 74.5t90 26.5q54 0 85.5 -34.5z" />
    <glyph glyph-name="uni1E3F" unicode="&#x1e3f;" horiz-adv-x="835" 
d="M758.5 511.5q31.5 -34.5 31.5 -94.5q0 -22 -2 -34l-54 -383h-139l50 355q2 11 2 28q0 27 -9.5 36.5t-28.5 9.5q-53 0 -114 -126l-43 -303h-139l50 355q2 20 2 27q0 27 -10 37t-29 10q-28 0 -57.5 -35.5t-55.5 -94.5l-41 -299h-140l74 530h121l-4 -90q34 50 76.5 78
t90.5 28q47 0 78.5 -26t38.5 -75q33 48 76 74.5t90 26.5q54 0 85.5 -34.5zM625 718l-239 -92l-29 73l227 128z" />
    <glyph glyph-name="uni1E41" unicode="&#x1e41;" horiz-adv-x="835" 
d="M758.5 511.5q31.5 -34.5 31.5 -94.5q0 -22 -2 -34l-54 -383h-139l50 355q2 11 2 28q0 27 -9.5 36.5t-28.5 9.5q-53 0 -114 -126l-43 -303h-139l50 355q2 20 2 27q0 27 -10 37t-29 10q-28 0 -57.5 -35.5t-55.5 -94.5l-41 -299h-140l74 530h121l-4 -90q34 50 76.5 78
t90.5 28q47 0 78.5 -26t38.5 -75q33 48 76 74.5t90 26.5q54 0 85.5 -34.5zM555.5 782.5q20.5 -20.5 20.5 -52.5q0 -39 -27 -66t-67 -27q-35 0 -56 21t-21 54q0 38 27.5 64.5t67.5 26.5q35 0 55.5 -20.5z" />
    <glyph glyph-name="uni0271" unicode="&#x271;" horiz-adv-x="835" 
d="M758.5 511.5q31.5 -34.5 31.5 -94.5q0 -22 -2 -34l-54 -383h1l-6 -40q-14 -89 -68.5 -134.5t-136.5 -45.5q-75 0 -130 43l58 83q18 -11 32 -15.5t33 -4.5q30 0 48.5 16.5t22.5 49.5l7 48l50 355q2 11 2 28q0 27 -9.5 36.5t-28.5 9.5q-53 0 -114 -126l-43 -303h-139
l50 355q2 20 2 27q0 27 -10 37t-29 10q-28 0 -57.5 -35.5t-55.5 -94.5l-41 -299h-140l74 530h121l-4 -90q34 50 76.5 78t90.5 28q47 0 78.5 -26t38.5 -75q33 48 76 74.5t90 26.5q54 0 85.5 -34.5z" />
    <glyph glyph-name="uni0270" unicode="&#x270;" horiz-adv-x="831" 
d="M804 530l-103 -736l-142 -15l42 294q-33 -42 -72.5 -65.5t-82.5 -23.5t-76 25.5t-41 73.5q-36 -47 -78.5 -73t-86.5 -26q-55 0 -87 34.5t-32 95.5q0 21 2 33l54 383h140l-52 -355q-3 -16 -3 -28q0 -26 11 -36t29 -10q28 0 58 35t57 94l42 300h140l-52 -355q-2 -20 -2 -27
q0 -27 10 -37t29 -10q28 0 58.5 36t56.5 94l41 299h140z" />
    <glyph glyph-name="uni026F" unicode="&#x26f;" horiz-adv-x="835" 
d="M803 530l-74 -530h-121l4 90q-72 -106 -167 -106q-47 0 -78.5 26.5t-38.5 75.5q-32 -48 -75.5 -75t-90.5 -27q-54 0 -85.5 34.5t-31.5 94.5q0 22 2 34l54 383h140l-51 -355q-2 -11 -2 -28q0 -26 10 -36t28 -10q54 0 114 127l43 302h139l-50 -355q-2 -20 -2 -26
q0 -27 10 -37.5t29 -10.5q28 0 57.5 35.5t55.5 94.5l42 299h139z" />
    <glyph glyph-name="n" unicode="n" horiz-adv-x="571" 
d="M493.5 512q32.5 -34 32.5 -95q0 -16 -3 -36l-53 -381h-140l50 355q2 20 2 25q0 27 -10 38t-29 11q-62 0 -130 -131l-41 -298h-140l74 530h121l-4 -96q36 52 82.5 82t98.5 30q57 0 89.5 -34z" />
    <glyph glyph-name="nacute" unicode="&#x144;" horiz-adv-x="571" 
d="M493.5 512q32.5 -34 32.5 -95q0 -16 -3 -36l-53 -381h-140l50 355q2 20 2 25q0 27 -10 38t-29 11q-62 0 -130 -131l-41 -298h-140l74 530h121l-4 -96q36 52 82.5 82t98.5 30q57 0 89.5 -34zM486 718l-239 -92l-29 73l227 128z" />
    <glyph glyph-name="napostrophe" unicode="&#x149;" horiz-adv-x="691" 
d="M210.5 741.5q16.5 -16.5 16.5 -42.5q0 -18 -7 -34.5t-28 -48.5l-52 -82h-65l41 106q-21 21 -21 48q0 28 21.5 49t50.5 21q27 0 43.5 -16.5zM614 511.5q32 -34.5 32 -95.5q0 -23 -2 -35l-54 -381h-139l50 355q2 20 2 25q0 27 -10 38t-29 11q-62 0 -130 -131l-42 -298h-139
l74 530h121l-4 -96q36 52 82.5 82t98.5 30q57 0 89 -34.5z" />
    <glyph glyph-name="ncaron" unicode="&#x148;" horiz-adv-x="571" 
d="M493.5 512q32.5 -34 32.5 -95q0 -16 -3 -36l-53 -381h-140l50 355q2 20 2 25q0 27 -10 38t-29 11q-62 0 -130 -131l-41 -298h-140l74 530h121l-4 -96q36 52 82.5 82t98.5 30q57 0 89.5 -34zM533 746l-155 -131h-87l-120 131l56 60l116 -89l144 89z" />
    <glyph glyph-name="uni1E4B" unicode="&#x1e4b;" horiz-adv-x="571" 
d="M493.5 512q32.5 -34 32.5 -95q0 -16 -3 -36l-53 -381h-140l50 355q2 20 2 25q0 27 -10 38t-29 11q-62 0 -130 -131l-41 -298h-140l74 530h121l-4 -96q36 52 82.5 82t98.5 30q57 0 89.5 -34zM41 -195l155 131h87l120 -131l-59 -60l-116 89l-140 -89z" />
    <glyph glyph-name="ncommaaccent" unicode="&#x146;" horiz-adv-x="571" 
d="M493.5 512q32.5 -34 32.5 -95q0 -16 -3 -36l-53 -381h-140l50 355q2 20 2 25q0 27 -10 38t-29 11q-62 0 -130 -131l-41 -298h-140l74 530h121l-4 -96q36 52 82.5 82t98.5 30q57 0 89.5 -34zM286.5 -88.5q18.5 -18.5 18.5 -46.5q0 -21 -8 -40.5t-29 -52.5l-57 -90h-72
l46 117q-25 20 -25 51q0 35 22.5 57.5t55.5 22.5q30 0 48.5 -18.5z" />
    <glyph glyph-name="uni0235" unicode="&#x235;" horiz-adv-x="757" 
d="M717.5 213q30.5 -27 30.5 -72q0 -74 -57 -115.5t-145 -41.5q-28 0 -58 5l-41 -71l-68 30l40 65q-66 40 -66 125q0 21 2 33l27 184q2 10 2 26q0 27 -10.5 37.5t-29.5 10.5q-33 0 -66.5 -35.5t-64.5 -95.5l-41 -298h-140l74 530h121l-4 -96q36 52 82.5 82t97.5 30
q57 0 90 -34t33 -95q0 -16 -3 -36l-32 -226q-2 -12 -2 -16l1 -10q31 57 66 84t84 27q47 0 77.5 -27zM627 102q21 13 21 35q0 23 -24 23q-19 0 -35.5 -15t-41.5 -55q7 -1 25 -1q34 0 55 13z" />
    <glyph glyph-name="uni1E45" unicode="&#x1e45;" horiz-adv-x="571" 
d="M493.5 512q32.5 -34 32.5 -95q0 -16 -3 -36l-53 -381h-140l50 355q2 20 2 25q0 27 -10 38t-29 11q-62 0 -130 -131l-41 -298h-140l74 530h121l-4 -96q36 52 82.5 82t98.5 30q57 0 89.5 -34zM416.5 782.5q20.5 -20.5 20.5 -52.5q0 -39 -27 -66t-67 -27q-35 0 -56 21
t-21 54q0 38 27.5 64.5t67.5 26.5q35 0 55.5 -20.5z" />
    <glyph glyph-name="uni1E47" unicode="&#x1e47;" horiz-adv-x="571" 
d="M493.5 512q32.5 -34 32.5 -95q0 -16 -3 -36l-53 -381h-140l50 355q2 20 2 25q0 27 -10 38t-29 11q-62 0 -130 -131l-41 -298h-140l74 530h121l-4 -96q36 52 82.5 82t98.5 30q57 0 89.5 -34zM170 -209.5q-21 20.5 -21 53.5q0 39 27 65.5t67 26.5q35 0 56 -21t21 -53
q0 -39 -27.5 -65.5t-66.5 -26.5q-35 0 -56 20.5z" />
    <glyph glyph-name="uni01F9" unicode="&#x1f9;" horiz-adv-x="571" 
d="M493.5 512q32.5 -34 32.5 -95q0 -16 -3 -36l-53 -381h-140l50 355q2 20 2 25q0 27 -10 38t-29 11q-62 0 -130 -131l-41 -298h-140l74 530h121l-4 -96q36 52 82.5 82t98.5 30q57 0 89.5 -34zM493 700l-45 -72l-217 90l67 112z" />
    <glyph glyph-name="eng" unicode="&#x14b;" horiz-adv-x="571" 
d="M493.5 512q32.5 -34 32.5 -95q0 -16 -3 -36l-53 -381l-6 -40q-14 -89 -68.5 -134.5t-136.5 -45.5q-75 0 -130 43l58 83q18 -11 32 -15.5t33 -4.5q30 0 48.5 16.5t22.5 49.5l7 48l50 355q2 20 2 25q0 27 -10 38t-29 11q-62 0 -130 -131l-41 -298h-140l74 530h121l-4 -96
q36 52 82.5 82t98.5 30q57 0 89.5 -34z" />
    <glyph glyph-name="uni0272" unicode="&#x272;" horiz-adv-x="571" 
d="M493.5 512q32.5 -34 32.5 -95q0 -16 -3 -36l-53 -381h-140l50 355q2 20 2 25q0 27 -10 38t-29 11q-62 0 -130 -131l-41 -298l-6 -40q-14 -89 -68.5 -134.5t-136.5 -45.5q-75 0 -130 43l58 83q18 -11 32 -15.5t33 -4.5q30 0 48.5 16.5t22.5 49.5l7 48l74 530h121l-4 -96
q36 52 82.5 82t98.5 30q57 0 89.5 -34z" />
    <glyph glyph-name="uni0273" unicode="&#x273;" horiz-adv-x="571" 
d="M624 -180q-62 -40 -139 -40q-76 0 -119 38.5t-43 110.5q0 23 2 35l5 36l50 355q2 20 2 25q0 27 -10 38t-29 11q-62 0 -130 -131l-41 -298h-140l74 530h121l-4 -96q36 52 82.5 82t98.5 30q57 0 89.5 -34t32.5 -95q0 -16 -3 -36l-53 -381l-7 -52q-1 -6 -1 -16q0 -46 47 -46
q22 0 37.5 4.5t37.5 15.5z" />
    <glyph glyph-name="uni01CC" unicode="&#x1cc;" horiz-adv-x="844" 
d="M493.5 512q32.5 -34 32.5 -95q0 -16 -3 -36l-53 -381h-140l50 355q2 20 2 25q0 27 -10 38t-29 11q-62 0 -130 -131l-41 -298h-140l74 530h121l-4 -96q36 52 82.5 82t98.5 30q57 0 89.5 -34zM745 51q-11 -80 -41.5 -131.5t-77 -82.5t-116.5 -57l-36 103q61 24 91 58
t40 105l68 484h140zM834.5 782.5q20.5 -20.5 20.5 -52.5q0 -39 -27 -66t-67 -27q-35 0 -56 21t-21 54q0 38 27.5 64.5t67.5 26.5q35 0 55.5 -20.5z" />
    <glyph glyph-name="uni019E" unicode="&#x19e;" horiz-adv-x="570" 
d="M493 512q33 -34 33 -95q0 -16 -3 -36l-83 -587l-143 -16l85 577q2 10 2 26q0 27 -10.5 37.5t-29.5 10.5q-33 0 -66.5 -35.5t-64.5 -95.5l-41 -298h-140l74 530h121l-4 -96q36 52 82.5 82t97.5 30q57 0 90 -34z" />
    <glyph glyph-name="ntilde" unicode="&#xf1;" horiz-adv-x="571" 
d="M493.5 512q32.5 -34 32.5 -95q0 -16 -3 -36l-53 -381h-140l50 355q2 20 2 25q0 27 -10 38t-29 11q-62 0 -130 -131l-41 -298h-140l74 530h121l-4 -96q36 52 82.5 82t98.5 30q57 0 89.5 -34zM367 647.5q-16 7.5 -34 20.5q-13 9 -21.5 13.5t-17.5 4.5q-18 0 -31.5 -11
t-29.5 -36l-68 40q26 49 60.5 79t74.5 30q22 0 37 -7t34 -21q12 -9 20 -13.5t17 -4.5q16 0 29.5 11t30.5 34l68 -39q-26 -50 -61 -79t-72 -29q-20 0 -36 7.5z" />
    <glyph glyph-name="o" unicode="o" horiz-adv-x="575" 
d="M484 487q57 -59 57 -162q0 -80 -28.5 -158t-93.5 -130.5t-168 -52.5t-160 59.5t-57 164.5q0 80 28.5 157.5t94 129t167.5 51.5q103 0 160 -59zM209 363.5q-31 -76.5 -31 -165.5q0 -56 20 -82t62 -26q52 0 82.5 39.5t42.5 95t12 107.5q0 56 -20.5 82t-61.5 26
q-75 0 -106 -76.5z" />
    <glyph glyph-name="oacute" unicode="&#xf3;" horiz-adv-x="575" 
d="M484 487q57 -59 57 -162q0 -80 -28.5 -158t-93.5 -130.5t-168 -52.5t-160 59.5t-57 164.5q0 80 28.5 157.5t94 129t167.5 51.5q103 0 160 -59zM209 363.5q-31 -76.5 -31 -165.5q0 -56 20 -82t62 -26q52 0 82.5 39.5t42.5 95t12 107.5q0 56 -20.5 82t-61.5 26
q-75 0 -106 -76.5zM482 718l-239 -92l-29 73l227 128z" />
    <glyph glyph-name="uni0275" unicode="&#x275;" horiz-adv-x="577" 
d="M485.5 486q57.5 -60 57.5 -164q0 -79 -29 -156.5t-94.5 -129.5t-167.5 -52q-104 0 -161 59.5t-57 164.5q0 80 29 157.5t94.5 129t167.5 51.5q103 0 160.5 -60zM233.5 404.5q-31.5 -35.5 -45.5 -93.5h213v21q1 108 -85 108q-51 0 -82.5 -35.5zM346 128q31 38 45 99h-215
q-1 -10 -1 -29q0 -108 86 -108q54 0 85 38z" />
    <glyph glyph-name="obreve" unicode="&#x14f;" horiz-adv-x="575" 
d="M484 487q57 -59 57 -162q0 -80 -28.5 -158t-93.5 -130.5t-168 -52.5t-160 59.5t-57 164.5q0 80 28.5 157.5t94 129t167.5 51.5q103 0 160 -59zM209 363.5q-31 -76.5 -31 -165.5q0 -56 20 -82t62 -26q52 0 82.5 39.5t42.5 95t12 107.5q0 56 -20.5 82t-61.5 26
q-75 0 -106 -76.5zM220 681.5q-38 46.5 -34 118.5l81 11q8 -76 71 -76q34 0 59.5 21t39.5 58l78 -18q-15 -72 -64.5 -116.5t-120.5 -44.5q-72 0 -110 46.5z" />
    <glyph glyph-name="uni01D2" unicode="&#x1d2;" horiz-adv-x="575" 
d="M484 487q57 -59 57 -162q0 -80 -28.5 -158t-93.5 -130.5t-168 -52.5t-160 59.5t-57 164.5q0 80 28.5 157.5t94 129t167.5 51.5q103 0 160 -59zM209 363.5q-31 -76.5 -31 -165.5q0 -56 20 -82t62 -26q52 0 82.5 39.5t42.5 95t12 107.5q0 56 -20.5 82t-61.5 26
q-75 0 -106 -76.5zM529 746l-155 -131h-87l-120 131l56 60l116 -89l144 89z" />
    <glyph glyph-name="ocircumflex" unicode="&#xf4;" horiz-adv-x="575" 
d="M484 487q57 -59 57 -162q0 -80 -28.5 -158t-93.5 -130.5t-168 -52.5t-160 59.5t-57 164.5q0 80 28.5 157.5t94 129t167.5 51.5q103 0 160 -59zM209 363.5q-31 -76.5 -31 -165.5q0 -56 20 -82t62 -26q52 0 82.5 39.5t42.5 95t12 107.5q0 56 -20.5 82t-61.5 26
q-75 0 -106 -76.5zM158 684l156 131h86l120 -131l-59 -60l-116 89l-140 -89z" />
    <glyph glyph-name="uni1ED1" unicode="&#x1ed1;" horiz-adv-x="575" 
d="M666 865l-168 -137l-50 49l148 164zM341 670l-141 -84l-47 60l155 124h86l121 -124l-56 -60zM484 487q57 -59 57 -162q0 -80 -28.5 -158t-93.5 -130.5t-168 -52.5t-160 59.5t-57 164.5q0 80 28.5 157.5t94 129t167.5 51.5q103 0 160 -59zM209 363.5q-31 -76.5 -31 -165.5
q0 -56 20 -82t62 -26q52 0 82.5 39.5t42.5 95t12 107.5q0 56 -20.5 82t-61.5 26q-75 0 -106 -76.5z" />
    <glyph glyph-name="uni1ED9" unicode="&#x1ed9;" horiz-adv-x="575" 
d="M484 487q57 -59 57 -162q0 -80 -28.5 -158t-93.5 -130.5t-168 -52.5t-160 59.5t-57 164.5q0 80 28.5 157.5t94 129t167.5 51.5q103 0 160 -59zM209 363.5q-31 -76.5 -31 -165.5q0 -56 20 -82t62 -26q52 0 82.5 39.5t42.5 95t12 107.5q0 56 -20.5 82t-61.5 26
q-75 0 -106 -76.5zM158 684l156 131h86l120 -131l-59 -60l-116 89l-140 -89zM171 -209.5q-21 20.5 -21 53.5q0 39 27 65.5t67 26.5q35 0 56 -21t21 -53q0 -39 -27.5 -65.5t-66.5 -26.5q-35 0 -56 20.5z" />
    <glyph glyph-name="uni1ED3" unicode="&#x1ed3;" horiz-adv-x="575" 
d="M254 775l-57 -47l-133 137l85 74zM340 670l-141 -84l-47 60l155 124h86l121 -124l-56 -60zM484 487q57 -59 57 -162q0 -80 -28.5 -158t-93.5 -130.5t-168 -52.5t-160 59.5t-57 164.5q0 80 28.5 157.5t94 129t167.5 51.5q103 0 160 -59zM209 363.5q-31 -76.5 -31 -165.5
q0 -56 20 -82t62 -26q52 0 82.5 39.5t42.5 95t12 107.5q0 56 -20.5 82t-61.5 26q-75 0 -106 -76.5z" />
    <glyph glyph-name="uni1ED5" unicode="&#x1ed5;" horiz-adv-x="575" 
d="M475 843q38 2 58 12.5t20 32.5q0 26 -35 26q-28 0 -60 -15l-19 65q45 25 106 25q52 0 80 -24t28 -65q0 -42 -25 -68t-70 -34l-8 -54h-87zM341 670l-141 -84l-47 60l155 124h86l121 -124l-56 -60zM484 487q57 -59 57 -162q0 -80 -28.5 -158t-93.5 -130.5t-168 -52.5
t-160 59.5t-57 164.5q0 80 28.5 157.5t94 129t167.5 51.5q103 0 160 -59zM209 363.5q-31 -76.5 -31 -165.5q0 -56 20 -82t62 -26q52 0 82.5 39.5t42.5 95t12 107.5q0 56 -20.5 82t-61.5 26q-75 0 -106 -76.5z" />
    <glyph glyph-name="uni1ED7" unicode="&#x1ed7;" horiz-adv-x="575" 
d="M388 798.5q-15 6.5 -35 19.5q-12 9 -20.5 13t-17.5 4q-18 0 -31.5 -10.5t-29.5 -33.5l-67 38q26 46 60.5 75t73.5 29q21 0 36.5 -7t33.5 -20q11 -9 19 -13t17 -4q17 0 30.5 10.5t29.5 32.5l68 -37q-26 -48 -60.5 -75.5t-71.5 -27.5q-20 0 -35 6.5zM340 665l-141 -84
l-47 60l155 124h86l121 -124l-56 -60zM484 487q57 -59 57 -162q0 -80 -28.5 -158t-93.5 -130.5t-168 -52.5t-160 59.5t-57 164.5q0 80 28.5 157.5t94 129t167.5 51.5q103 0 160 -59zM209 363.5q-31 -76.5 -31 -165.5q0 -56 20 -82t62 -26q52 0 82.5 39.5t42.5 95t12 107.5
q0 56 -20.5 82t-61.5 26q-75 0 -106 -76.5z" />
    <glyph glyph-name="uni020D" unicode="&#x20d;" horiz-adv-x="575" 
d="M484 487q57 -59 57 -162q0 -80 -28.5 -158t-93.5 -130.5t-168 -52.5t-160 59.5t-57 164.5q0 80 28.5 157.5t94 129t167.5 51.5q103 0 160 -59zM209 363.5q-31 -76.5 -31 -165.5q0 -56 20 -82t62 -26q52 0 82.5 39.5t42.5 95t12 107.5q0 56 -20.5 82t-61.5 26
q-75 0 -106 -76.5zM312 662l-79 -35l-92 176l105 50zM470 664l-78 -32l-84 173l105 48z" />
    <glyph glyph-name="odieresis" unicode="&#xf6;" horiz-adv-x="575" 
d="M484 487q57 -59 57 -162q0 -80 -28.5 -158t-93.5 -130.5t-168 -52.5t-160 59.5t-57 164.5q0 80 28.5 157.5t94 129t167.5 51.5q103 0 160 -59zM209 363.5q-31 -76.5 -31 -165.5q0 -56 20 -82t62 -26q52 0 82.5 39.5t42.5 95t12 107.5q0 56 -20.5 82t-61.5 26
q-75 0 -106 -76.5zM290.5 773.5q18.5 -18.5 18.5 -46.5q0 -34 -23.5 -58.5t-57.5 -24.5q-32 0 -51.5 23t-15.5 55q5 30 28 50t53 20t48.5 -18.5zM513.5 773.5q18.5 -18.5 18.5 -46.5q0 -34 -23 -58.5t-58 -24.5q-29 0 -48 19t-19 48q0 33 23.5 57t57.5 24q30 0 48.5 -18.5z
" />
    <glyph glyph-name="uni022B" unicode="&#x22b;" horiz-adv-x="575" 
d="M206 799l13 100h294l-14 -100h-293zM283.5 736.5q18.5 -18.5 18.5 -46.5q0 -34 -23.5 -58.5t-57.5 -24.5q-32 0 -51.5 23t-15.5 55q5 30 28 50t53 20t48.5 -18.5zM506.5 736.5q18.5 -18.5 18.5 -46.5q0 -34 -23 -58.5t-58 -24.5q-29 0 -48 19t-19 48q0 33 23.5 57
t57.5 24q30 0 48.5 -18.5zM484 487q57 -59 57 -162q0 -80 -28.5 -158t-93.5 -130.5t-168 -52.5t-160 59.5t-57 164.5q0 80 28.5 157.5t94 129t167.5 51.5q103 0 160 -59zM209 363.5q-31 -76.5 -31 -165.5q0 -56 20 -82t62 -26q52 0 82.5 39.5t42.5 95t12 107.5
q0 56 -20.5 82t-61.5 26q-75 0 -106 -76.5z" />
    <glyph glyph-name="uni022F" unicode="&#x22f;" horiz-adv-x="575" 
d="M484 487q57 -59 57 -162q0 -80 -28.5 -158t-93.5 -130.5t-168 -52.5t-160 59.5t-57 164.5q0 80 28.5 157.5t94 129t167.5 51.5q103 0 160 -59zM209 363.5q-31 -76.5 -31 -165.5q0 -56 20 -82t62 -26q52 0 82.5 39.5t42.5 95t12 107.5q0 56 -20.5 82t-61.5 26
q-75 0 -106 -76.5zM412.5 782.5q20.5 -20.5 20.5 -52.5q0 -39 -27 -66t-67 -27q-35 0 -56 21t-21 54q0 38 27.5 64.5t67.5 26.5q35 0 55.5 -20.5z" />
    <glyph glyph-name="uni0231" unicode="&#x231;" horiz-adv-x="575" 
d="M210 795l13 100h294l-14 -100h-293zM403.5 741.5q20.5 -20.5 20.5 -52.5q0 -39 -27 -66t-67 -27q-35 0 -56 21t-21 54q0 38 27.5 64.5t67.5 26.5q35 0 55.5 -20.5zM484 487q57 -59 57 -162q0 -80 -28.5 -158t-93.5 -130.5t-168 -52.5t-160 59.5t-57 164.5
q0 80 28.5 157.5t94 129t167.5 51.5q103 0 160 -59zM209 363.5q-31 -76.5 -31 -165.5q0 -56 20 -82t62 -26q52 0 82.5 39.5t42.5 95t12 107.5q0 56 -20.5 82t-61.5 26q-75 0 -106 -76.5z" />
    <glyph glyph-name="uni1ECD" unicode="&#x1ecd;" horiz-adv-x="575" 
d="M484 487q57 -59 57 -162q0 -80 -28.5 -158t-93.5 -130.5t-168 -52.5t-160 59.5t-57 164.5q0 80 28.5 157.5t94 129t167.5 51.5q103 0 160 -59zM209 363.5q-31 -76.5 -31 -165.5q0 -56 20 -82t62 -26q52 0 82.5 39.5t42.5 95t12 107.5q0 56 -20.5 82t-61.5 26
q-75 0 -106 -76.5zM171 -209.5q-21 20.5 -21 53.5q0 39 27 65.5t67 26.5q35 0 56 -21t21 -53q0 -39 -27.5 -65.5t-66.5 -26.5q-35 0 -56 20.5z" />
    <glyph glyph-name="ograve" unicode="&#xf2;" horiz-adv-x="575" 
d="M484 487q57 -59 57 -162q0 -80 -28.5 -158t-93.5 -130.5t-168 -52.5t-160 59.5t-57 164.5q0 80 28.5 157.5t94 129t167.5 51.5q103 0 160 -59zM209 363.5q-31 -76.5 -31 -165.5q0 -56 20 -82t62 -26q52 0 82.5 39.5t42.5 95t12 107.5q0 56 -20.5 82t-61.5 26
q-75 0 -106 -76.5zM489 700l-45 -72l-217 90l67 112z" />
    </font>
</defs>
</svg>
