<?xml version="1.0" encoding="UTF-8" standalone="no"?>
<svg>
  <path
     style="fill-opacity:1;stroke:none;stroke-width:2;stroke-linecap:butt;stroke-linejoin:miter;stroke-miterlimit:4;stroke-dasharray:none;stroke-dashoffset:0;stroke-opacity:1"
     d="M 0,0 V 47.238977 H 47.238972 V 0 Z m 9.654707,5.905065 c 0.84336,0 1.620573,0.11989 2.331641,0.359668 0.719336,0.239779 1.339453,0.649056 1.860351,1.227832 0.529167,0.570508 0.938444,1.331185 1.227832,2.282032 0.297657,0.950846 0.446485,2.133203 0.446485,3.54707 0,1.273307 -0.107487,2.385384 -0.322461,3.33623 -0.214974,0.942578 -0.520899,1.748731 -0.917774,2.418457 -0.388606,0.669727 -0.855761,1.219563 -1.401464,1.649513 -0.545703,0.42995 -1.153418,0.76894 -1.823145,1.01699 -0.661458,0.24805 -1.372526,0.41755 -2.133203,0.5085 -0.752409,0.091 -1.533756,0.13642 -2.344043,0.13642 H 4.706172 V 19.79569 h 2.207617 c 0.967383,0 1.773536,-0.08268 2.418457,-0.248047 0.65319,-0.173632 1.178223,-0.421679 1.575098,-0.74414 0.405143,-0.330729 0.702799,-0.740007 0.892969,-1.227832 0.198437,-0.487826 0.330729,-1.050065 0.396875,-1.686719 l 0.0248,-0.310059 c -0.438216,0.206706 -0.938444,0.376205 -1.500683,0.508496 -0.56224,0.132292 -1.128613,0.198438 -1.699121,0.198438 -0.785482,0 -1.500684,-0.09095 -2.145606,-0.272852 C 6.231656,15.831074 5.673551,15.541686 5.202262,15.144811 4.739241,14.747936 4.379573,14.235306 4.123258,13.606921 3.866943,12.970267 3.738785,12.205456 3.738785,11.312487 3.738785,10.502201 3.883479,9.766328 4.172867,9.10487 4.470524,8.435143 4.879801,7.864636 5.400699,7.393347 5.929866,6.922058 6.554117,6.558255 7.273453,6.30194 8.001058,6.037357 8.794807,5.905065 9.654703,5.905065 Z m 14.349515,0 c 0.89297,0 1.71565,0.157097 2.46806,0.471289 0.75241,0.314193 1.39733,0.806153 1.93477,1.475879 0.5457,0.669727 0.97152,1.529623 1.27744,2.579688 0.30593,1.050065 0.45889,2.31097 0.45889,3.782715 0,1.331184 -0.1447,2.521809 -0.43408,3.571875 -0.28939,1.050065 -0.71521,1.938899 -1.27745,2.666506 -0.55397,0.71933 -1.23196,1.26917 -2.03398,1.64951 -0.80202,0.38034 -1.71979,0.57051 -2.75332,0.57051 -0.89297,0 -1.71566,-0.1571 -2.46807,-0.47129 -0.752406,-0.31419 -1.401462,-0.80615 -1.947165,-1.47588 -0.545704,-0.677996 -0.971517,-1.542026 -1.277442,-2.592091 -0.305924,-1.050065 -0.458887,-2.306836 -0.458887,-3.770312 0,-1.331185 0.144694,-2.52181 0.434082,-3.571875 0.297657,-1.050065 0.723471,-1.934766 1.277442,-2.654102 0.553971,-0.727604 1.2361,-1.281575 2.04639,-1.661914 0.81028,-0.380338 1.72806,-0.570508 2.75332,-0.570508 z m 13.39453,0.173633 h 2.54248 v 13.617773 h 3.55947 v 2.691306 h -10.79004 v -2.691306 h 4.12998 V 9.278503 l -3.59668,1.984375 -0.99219,-2.468067 z m -13.58057,2.294434 c -0.46302,0 -0.89297,0.119889 -1.28984,0.359668 -0.39688,0.23151 -0.74414,0.591178 -1.0418,1.079004 -0.28939,0.487825 -0.520897,1.099674 -0.69453,1.835546 -0.165365,0.735873 -0.248047,1.608171 -0.248047,2.616895 v 0.471289 c 0,0.14056 0.0083,0.285254 0.02481,0.434082 l 6.077157,-4.39043 c -0.28939,-0.818554 -0.67386,-1.422135 -1.15342,-1.810742 -0.47129,-0.396875 -1.0294,-0.595312 -1.67432,-0.595312 z M 9.505879,8.447542 c -0.396875,0 -0.756543,0.06615 -1.079004,0.198437 C 8.104414,8.778271 7.827429,8.964306 7.595918,9.204085 7.372676,9.443863 7.199043,9.733251 7.07502,10.072249 6.950996,10.402978 6.888985,10.775048 6.888985,11.18846 c 0,0.876432 0.23151,1.529622 0.694531,1.95957 0.463021,0.42168 1.103809,0.63252 1.922363,0.63252 0.223242,0 0.458887,-0.02067 0.706934,-0.06201 0.256315,-0.04134 0.508496,-0.09922 0.756543,-0.173633 0.256315,-0.07441 0.496093,-0.157096 0.719336,-0.248047 0.23151,-0.09922 0.434082,-0.202571 0.607715,-0.310058 0,-0.735873 -0.04961,-1.384929 -0.148829,-1.947168 -0.09095,-0.56224 -0.248046,-1.033529 -0.471289,-1.413868 C 11.461315,9.23716 11.176061,8.943638 10.820528,8.7452 10.464994,8.546763 10.026778,8.447544 9.505879,8.447544 Z m 17.561723,5.022949 -6.039946,4.365625 c 0.264586,0.802018 0.636656,1.397331 1.116216,1.785937 0.47955,0.388607 1.03766,0.582914 1.67431,0.582914 0.46302,0 0.89297,-0.11989 1.28984,-0.359671 0.40515,-0.239779 0.75241,-0.599447 1.0418,-1.079004 0.29766,-0.487826 0.52917,-1.099675 0.69453,-1.835547 0.16537,-0.744141 0.24805,-1.616439 0.24805,-2.616895 0,-0.14056 -0.004,-0.281119 -0.0124,-0.421679 -0.008,-0.148828 -0.0124,-0.289388 -0.0124,-0.42168 z M 4.445723,25.124567 h 4.750098 c 1.050065,0 1.976106,0.11575 2.778125,0.34726 0.810286,0.22324 1.488281,0.55397 2.033984,0.99219 0.553971,0.43822 0.971517,0.97979 1.252637,1.62471 0.289388,0.63665 0.434082,1.36839 0.434082,2.19521 0,0.84336 -0.14056,1.62471 -0.42168,2.34404 -0.28112,0.71107 -0.698665,1.32706 -1.252637,1.84795 -0.553971,0.5209 -1.244368,0.92605 -2.071191,1.21543 -0.826823,0.28939 -1.785938,0.43409 -2.877344,0.43409 H 7.521504 v 5.20898 H 4.445723 Z m 13.989844,0 h 4.750095 c 1.05007,0 1.97611,0.11575 2.77813,0.34726 0.81028,0.22324 1.48828,0.55397 2.03398,0.99219 0.55397,0.43822 0.97152,0.97979 1.25264,1.62471 0.28939,0.63665 0.43408,1.36839 0.43408,2.19521 0,0.84336 -0.14056,1.62471 -0.42168,2.34404 -0.28112,0.71107 -0.69867,1.32706 -1.25264,1.84795 -0.55397,0.5209 -1.24436,0.92605 -2.07119,1.21543 -0.82682,0.28939 -1.78593,0.43409 -2.87734,0.43409 h -1.55029 v 5.20898 h -3.075785 z m 14.597555,0 h 9.76065 v 2.57969 h -6.66006 v 4.03076 h 6.35 v 2.51767 h -6.35 v 4.50205 h 6.66006 v 2.57969 h -9.76065 z m -25.511618,2.53008 v 5.94072 h 1.699121 c 0.529167,0 0.996322,-0.0703 1.401465,-0.21084 0.405143,-0.14883 0.744141,-0.35967 1.016992,-0.63252 0.28112,-0.27285 0.49196,-0.59945 0.63252,-0.97979 0.148828,-0.38033 0.223242,-0.80615 0.223242,-1.27744 0,-0.42995 -0.07028,-0.81855 -0.21084,-1.16582 -0.132292,-0.35553 -0.338997,-0.65732 -0.620117,-0.90537 -0.272852,-0.24805 -0.620117,-0.43822 -1.041797,-0.57051 -0.42168,-0.13229 -0.921907,-0.19843 -1.500683,-0.19843 z m 13.989848,0 v 5.94072 h 1.69912 c 0.52916,0 0.99632,-0.0703 1.40146,-0.21084 0.40514,-0.14883 0.74414,-0.35967 1.01699,-0.63252 0.28112,-0.27285 0.49196,-0.59945 0.63252,-0.97979 0.14883,-0.38033 0.22325,-0.80615 0.22325,-1.27744 0,-0.42995 -0.0703,-0.81855 -0.21084,-1.16582 -0.1323,-0.35553 -0.339,-0.65732 -0.62012,-0.90537 -0.27285,-0.24805 -0.62012,-0.43822 -1.0418,-0.57051 -0.42168,-0.13229 -0.92191,-0.19843 -1.50068,-0.19843 z" />
</svg>
