<?xml version="1.0" encoding="UTF-8" standalone="no"?>
<svg
   xmlns:dc="http://purl.org/dc/elements/1.1/"
   xmlns:cc="http://creativecommons.org/ns#"
   xmlns:rdf="http://www.w3.org/1999/02/22-rdf-syntax-ns#"
   xmlns:svg="http://www.w3.org/2000/svg"
   xmlns="http://www.w3.org/2000/svg"
   id="svg1468"
   version="1.1"
   width="36.294926pt"
   viewBox="-28 0 36.294927 40.724949"
   height="40.724949pt">
  <metadata
     id="metadata1474">
    <rdf:RDF>
      <cc:Work
         rdf:about="">
        <dc:format>image/svg+xml</dc:format>
        <dc:type
           rdf:resource="http://purl.org/dc/dcmitype/StillImage" />
        <dc:title></dc:title>
      </cc:Work>
    </rdf:RDF>
  </metadata>
  <defs
     id="defs1472" />
  <path
     id="path1466"
     d="m -9.8038359,0 -1.2142061,1.3099936 c -0.02548,0.027293 -2.634833,2.7488055 -5.746873,2.7488055 l -0.03169,2.415e-4 C -18.270911,4.0882656 -19.667189,3.643083 -21.613459,2.522676 L -22.784551,1.8484054 -28,8.2492669 l 0.924315,1.012637 c 0.812808,0.8898701 2.921614,3.7026561 2.921614,5.9997211 0,1.774451 -0.773038,3.250035 -1.591129,4.811953 -0.89297,1.704238 -1.905022,3.635825 -1.905022,6.073 0,3.505401 1.236344,6.161364 3.779169,8.11912 2.102552,1.619414 4.762204,2.496567 7.333927,3.344797 2.19328,0.723338 4.265112,1.406496 5.768313,2.46756 l 0.9162749,0.646894 0.9162755,-0.646544 c 1.5032008,-1.061051 3.5749175,-1.744572 5.7681979,-2.46791 2.5717204,-0.84823 5.2310632,-1.725346 7.3339265,-3.344447 2.5428272,-1.957768 3.7791692,-4.613731 3.7791692,-8.119119 0,-2.437199 -1.011936,-4.368896 -1.9049077,-6.073109 -0.8180908,-1.562233 -1.5911297,-3.037406 -1.5911297,-4.811856 0,-2.281209 2.1102444,-5.105842 2.9215004,-6.0000601 L 8.294927,8.2496289 3.0793625,1.8487556 1.9082673,2.5229054 c -1.8949996,1.0908924 -3.2996688,1.5358937 -4.8485443,1.5358937 -3.3183502,0 -5.684695,-2.6783642 -5.7036454,-2.7001137 z m -8.0520111,10.210453 c 0.483321,0 0.928807,0.06859 1.336311,0.206119 0.412251,0.137416 0.767587,0.371951 1.066114,0.703628 0.303255,0.326955 0.537792,0.762972 0.703633,1.307892 0.170583,0.544921 0.255871,1.222453 0.255871,2.032715 0,0.729725 -0.06158,1.366969 -0.184794,1.911903 -0.123193,0.540174 -0.298501,1.002131 -0.525952,1.385942 -0.222711,0.383834 -0.490515,0.699003 -0.803252,0.945408 -0.312739,0.246406 -0.660858,0.440545 -1.044676,0.582684 -0.37907,0.142162 -0.786654,0.239413 -1.222593,0.291523 -0.431199,0.05217 -0.87906,0.07825 -1.343421,0.07825 h -1.073103 v -1.485556 h 1.265121 c 0.554389,0 1.016352,-0.04734 1.385948,-0.142042 0.374331,-0.09939 0.675316,-0.241636 0.902759,-0.42644 0.232183,-0.189538 0.40263,-0.424181 0.511617,-0.703749 0.113723,-0.279567 0.189646,-0.601752 0.227556,-0.966603 l 0.01423,-0.177691 c -0.251137,0.118469 -0.537902,0.215599 -0.860115,0.291402 -0.322214,0.07584 -0.646766,0.113638 -0.973718,0.113638 -0.450147,0 -0.85999,-0.05205 -1.229583,-0.156255 -0.369598,-0.10434 -0.689524,-0.270064 -0.959618,-0.497521 -0.265356,-0.227446 -0.471461,-0.521312 -0.618347,-0.881429 -0.146894,-0.36485 -0.220214,-0.803125 -0.220214,-1.314872 0,-0.464372 0.0828,-0.886053 0.248645,-1.26513 0.170586,-0.38381 0.405108,-0.710849 0.703634,-0.980938 0.303254,-0.270087 0.661094,-0.478561 1.073337,-0.625445 0.416988,-0.151631 0.871832,-0.227446 1.364625,-0.227446 z m 8.223635,0 c 0.5117534,0 0.983186,0.08997 1.4143784,0.269978 0.4311991,0.180059 0.8007573,0.462077 1.108758,0.845889 0.3127388,0.383821 0.5568621,0.876561 0.7321828,1.478349 0.1753238,0.601777 0.2629722,1.324317 0.2629722,2.167764 0,0.762887 -0.083039,1.445261 -0.2488743,2.047037 -0.1658469,0.601788 -0.409853,1.111121 -0.7320668,1.528117 -0.3174727,0.412238 -0.7059912,0.72731 -1.1656162,0.945276 -0.459635,0.217978 -0.98555,0.327184 -1.5778469,0.327184 -0.5117542,0 -0.9831772,-0.09009 -1.4143792,-0.270208 -0.43119,-0.180058 -0.803244,-0.461969 -1.115981,-0.845779 -0.312737,-0.388556 -0.556744,-0.883662 -0.732066,-1.48545 -0.175319,-0.601777 -0.262971,-1.32207 -0.262971,-2.160773 0,-0.762899 0.08278,-1.445152 0.24864,-2.04694 0.170581,-0.601777 0.414708,-1.108862 0.732181,-1.5211 0.317479,-0.416984 0.708356,-0.734435 1.172726,-0.952389 0.464362,-0.217978 0.990395,-0.326955 1.577963,-0.326955 z m 7.6762493,0.09951 h 1.4570244 v 7.804181 h 2.0399456 v 1.542415 H -4.642684 v -1.542416 h 2.3668902 v -5.970364 l -2.0613861,1.137314 -0.5684781,-1.414611 z m -7.7829774,1.314981 c -0.2653539,0 -0.5117329,0.06859 -0.7391699,0.206119 -0.227448,0.132671 -0.426326,0.338778 -0.596908,0.618333 -0.165842,0.279579 -0.298622,0.63018 -0.39813,1.05191 -0.09478,0.421706 -0.142151,0.921583 -0.142151,1.499664 v 0.270318 c 0,0.08055 0.0046,0.163356 0.01421,0.248639 l 3.4826368,-2.516142 C -8.2842933,12.534691 -8.5044946,12.188801 -8.7793229,11.966101 -9.049415,11.738655 -9.3693471,11.624944 -9.7389423,11.624944 Z m -8.2020789,0.04263 c -0.227438,0 -0.43366,0.03804 -0.618464,0.113759 -0.184801,0.07572 -0.343514,0.182317 -0.476196,0.319722 -0.127936,0.137416 -0.227434,0.303237 -0.298512,0.497521 -0.07106,0.189538 -0.106731,0.402746 -0.106731,0.639672 0,0.502267 0.132776,0.876573 0.398133,1.122967 0.265352,0.24166 0.63267,0.362604 1.101767,0.362604 0.127937,0 0.262857,-0.01087 0.405006,-0.0355 0.146893,-0.02367 0.291405,-0.057 0.433553,-0.09951 0.146893,-0.04263 0.284295,-0.08997 0.412232,-0.14215 0.13267,-0.05688 0.248867,-0.116054 0.348378,-0.17768 0,-0.421718 -0.02842,-0.793657 -0.08528,-1.115866 -0.05212,-0.322221 -0.142146,-0.592176 -0.27008,-0.81013 -0.123205,-0.222711 -0.28678,-0.39114 -0.490532,-0.504863 -0.20375,-0.113639 -0.454743,-0.170458 -0.753266,-0.170458 z m 10.0643423,2.878614 -3.4614323,2.50182 c 0.151625,0.459638 0.36472,0.800867 0.639554,1.023591 0.274824,0.2227 0.594758,0.333923 0.9596149,0.333923 0.2653478,0 0.5117328,-0.06859 0.7391723,-0.206118 0.2321839,-0.137405 0.4312977,-0.343525 0.5971408,-0.618345 0.1705808,-0.279568 0.3031327,-0.630169 0.3978995,-1.051899 0.094764,-0.426452 0.1421475,-0.926304 0.1421475,-1.499652 0,-0.08055 -0.0023,-0.161099 -0.0069,-0.24166 -0.0046,-0.08538 -0.00674,-0.165844 -0.00674,-0.24166 z m -12.9642903,6.678775 h 2.722145 c 0.60178,0 1.132555,0.06642 1.592178,0.199006 0.464372,0.127936 0.852764,0.31745 1.165501,0.56859 0.317478,0.251127 0.556861,0.561478 0.717966,0.931074 0.165845,0.364851 0.248759,0.784286 0.248759,1.258138 0,0.483307 -0.08055,0.93117 -0.241653,1.343408 -0.161104,0.407505 -0.400372,0.760496 -0.717848,1.059012 -0.317475,0.298527 -0.713209,0.530682 -1.187054,0.696527 -0.473845,0.165856 -1.023447,0.24876 -1.648924,0.24876 h -0.888428 v 2.985236 h -1.762642 z m 8.017408,0 h 2.722259 c 0.6017812,0 1.1324291,0.06642 1.5920607,0.199006 0.4643629,0.127936 0.8528863,0.31745 1.1656182,0.56859 0.3174774,0.251127 0.5567436,0.561478 0.7178493,0.931074 0.1658457,0.364851 0.248879,0.784286 0.248879,1.258138 0,0.483307 -0.080537,0.93117 -0.2416537,1.343408 -0.1611081,0.407505 -0.4004915,0.760496 -0.7179665,1.059012 -0.317476,0.298527 -0.7130971,0.530682 -1.1869413,0.696527 -0.4738435,0.165856 -1.0235609,0.24876 -1.6490377,0.24876 h -0.888428 v 2.985236 h -1.762639 z m 8.3656686,0 h 5.5936567 v 1.478458 h -3.8166852 v 2.309915 h 3.6390013 v 1.442805 h -3.6390013 v 2.580099 h 3.8166852 v 1.47847 h -5.5936567 z m -14.6204346,1.450014 v 3.404587 h 0.973717 c 0.303265,0 0.570954,-0.04033 0.803139,-0.120787 0.232183,-0.08538 0.426448,-0.206228 0.58281,-0.362604 0.161106,-0.156365 0.282041,-0.343524 0.362595,-0.561478 0.0853,-0.217966 0.127933,-0.46198 0.127933,-0.732069 0,-0.246405 -0.04026,-0.469189 -0.120821,-0.668207 -0.0758,-0.203753 -0.194265,-0.376577 -0.35537,-0.51874 -0.156371,-0.14215 -0.355482,-0.251236 -0.597142,-0.327052 -0.241661,-0.07572 -0.52831,-0.113517 -0.859997,-0.113517 z m 8.017405,0 v 3.404587 h 0.973718 c 0.3032544,0 0.5710771,-0.04033 0.8032528,-0.120787 0.2321872,-0.08538 0.4264497,-0.206228 0.5828114,-0.362604 0.1611061,-0.156365 0.2819227,-0.343524 0.3624778,-0.561478 0.085295,-0.217966 0.1279332,-0.46198 0.1279332,-0.732069 0,-0.246405 -0.04026,-0.469189 -0.1208216,-0.668207 -0.075802,-0.203753 -0.1942633,-0.376577 -0.3553719,-0.51874 -0.1563683,-0.14215 -0.3553645,-0.251236 -0.5970248,-0.327052 -0.2416579,-0.07572 -0.5284236,-0.113517 -0.8601109,-0.113517 z"
     style="stroke-width:0.07954097" />
</svg>
